999
dxfrw 0.5.10
0
SECTION
2
HEADER
9
$ACADVER
1
AC1021
9
$HANDSEED
5
20000
9
$DWGCODEPAGE
3
ANSI_1252
9
$INSBASE
10
0
20
0
30
0
9
$EXTMIN
10
59.907837
20
339.372892811
30
0
9
$EXTMAX
10
77.701506
20
375.336578506
30
0
9
$LIMMIN
10
0
20
0
9
$LIMMAX
10
420
20
297
9
$ORTHOMODE
70
0
9
$LTSCALE
40
1
9
$TEXTSTYLE
7
STANDARD
9
$CLAYER
8
0
9
$DIMASZ
40
2.5
9
$DIMLFAC
40
1
9
$DIMSCALE
40
1
9
$DIMEXO
40
0.625
9
$DIMEXE
40
1.25
9
$DIMTXT
40
2.5
9
$DIMTSZ
40
0
9
$DIMAUNIT
70
0
9
$DIMADEC
70
0
9
$DIMLUNIT
70
2
9
$DIMSTYLE
2
Standard
9
$DIMGAP
40
0.625
9
$DIMTIH
70
0
9
$LUNITS
70
2
9
$LUPREC
70
4
9
$AUNITS
70
0
9
$AUPREC
70
2
9
$SPLINESEGS
70
8
9
$GRIDMODE
70
0
9
$SNAPSTYLE
70
0
9
$PINSBASE
10
0
20
0
30
0
9
$PLIMMIN
10
0
20
0
9
$PLIMMAX
10
210
20
297
9
$INSUNITS
70
4
9
$PSVPSCALE
40
1
0
ENDSEC
0
SECTION
2
CLASSES
0
ENDSEC
0
SECTION
2
TABLES
0
TABLE
2
VPORT
5
8
330
0
100
AcDbSymbolTable
70
1
0
VPORT
5
31
330
2
100
AcDbSymbolTableRecord
100
AcDbViewportTableRecord
2
*ACTIVE
70
0
10
0
20
0
11
1
21
1
12
52.259730775
22
187.89620944
13
0
23
0
14
10
24
10
15
10
25
10
16
0
26
0
36
1
17
0
27
0
37
0
40
36.9002400096
41
1.93654822335
42
50
43
0
44
0
50
0
51
0
71
0
72
100
73
1
74
3
75
0
76
0
77
0
78
0
281
0
65
1
110
0
120
0
130
0
111
1
121
0
131
0
112
0
122
1
132
0
79
0
146
0
348
10020
60
7
61
5
292
1
282
1
141
0
142
0
63
250
421
3358443
0
ENDTAB
0
TABLE
2
LTYPE
5
5
330
0
100
AcDbSymbolTable
70
4
0
LTYPE
5
14
330
5
100
AcDbSymbolTableRecord
100
AcDbLinetypeTableRecord
2
ByBlock
70
0
3

72
65
73
0
40
0
0
LTYPE
5
15
330
5
100
AcDbSymbolTableRecord
100
AcDbLinetypeTableRecord
2
ByLayer
70
0
3

72
65
73
0
40
0
0
LTYPE
5
16
330
5
100
AcDbSymbolTableRecord
100
AcDbLinetypeTableRecord
2
Continuous
70
0
3
Solid line
72
65
73
0
40
0
0
LTYPE
5
32
330
5
100
AcDbSymbolTableRecord
100
AcDbLinetypeTableRecord
2
DOT
70
0
3
Dot . . . . . . . . . . . . . . . . . . . . . .
72
65
73
2
40
6.35
49
0
74
0
49
-6.35
74
0
0
LTYPE
5
33
330
5
100
AcDbSymbolTableRecord
100
AcDbLinetypeTableRecord
2
DOT2
70
0
3
Dot (.5x) .....................................
72
65
73
2
40
3.175
49
0
74
0
49
-3.175
74
0
0
LTYPE
5
34
330
5
100
AcDbSymbolTableRecord
100
AcDbLinetypeTableRecord
2
DOTX2
70
0
3
Dot (2x) .  .  .  .  .  .  .  .  .  .  .  .  .
72
65
73
2
40
12.7
49
0
74
0
49
-12.7
74
0
0
LTYPE
5
35
330
5
100
AcDbSymbolTableRecord
100
AcDbLinetypeTableRecord
2
DASHED
70
0
3
Dot . . . . . . . . . . . . . . . . . . . . . .
72
65
73
2
40
19.05
49
12.7
74
0
49
-6.35
74
0
0
LTYPE
5
36
330
5
100
AcDbSymbolTableRecord
100
AcDbLinetypeTableRecord
2
DASHED2
70
0
3
Dashed (.5x) _ _ _ _ _ _ _ _ _ _ _ _ _ _ _ _ _
72
65
73
2
40
9.525
49
6.35
74
0
49
-3.175
74
0
0
LTYPE
5
37
330
5
100
AcDbSymbolTableRecord
100
AcDbLinetypeTableRecord
2
DASHEDX2
70
0
3
Dashed (2x) ____  ____  ____  ____  ____  ___
72
65
73
2
40
38.1
49
25.4
74
0
49
-12.7
74
0
0
LTYPE
5
38
330
5
100
AcDbSymbolTableRecord
100
AcDbLinetypeTableRecord
2
DASHDOT
70
0
3
Dash dot __ . __ . __ . __ . __ . __ . __ . __
72
65
73
4
40
25.4
49
12.7
74
0
49
-6.35
74
0
49
0
74
0
49
-6.35
74
0
0
LTYPE
5
39
330
5
100
AcDbSymbolTableRecord
100
AcDbLinetypeTableRecord
2
DASHDOT2
70
0
3
Dash dot (.5x) _._._._._._._._._._._._._._._.
72
65
73
4
40
12.7
49
6.35
74
0
49
-3.175
74
0
49
0
74
0
49
-3.175
74
0
0
LTYPE
5
3A
330
5
100
AcDbSymbolTableRecord
100
AcDbLinetypeTableRecord
2
DASHDOTX2
70
0
3
Dash dot (2x) ____  .  ____  .  ____  .  ___
72
65
73
4
40
50.8
49
25.4
74
0
49
-12.7
74
0
49
0
74
0
49
-12.7
74
0
0
LTYPE
5
3B
330
5
100
AcDbSymbolTableRecord
100
AcDbLinetypeTableRecord
2
DIVIDE
70
0
3
Divide ____ . . ____ . . ____ . . ____ . . ____
72
65
73
6
40
31.75
49
12.7
74
0
49
-6.35
74
0
49
0
74
0
49
-6.35
74
0
49
0
74
0
49
-6.35
74
0
0
LTYPE
5
3C
330
5
100
AcDbSymbolTableRecord
100
AcDbLinetypeTableRecord
2
DIVIDE2
70
0
3
Divide (.5x) __..__..__..__..__..__..__..__.._
72
65
73
6
40
15.875
49
6.35
74
0
49
-3.175
74
0
49
0
74
0
49
-3.175
74
0
49
0
74
0
49
-3.175
74
0
0
LTYPE
5
3D
330
5
100
AcDbSymbolTableRecord
100
AcDbLinetypeTableRecord
2
DIVIDEX2
70
0
3
Divide (2x) ________  .  .  ________  .  .  _
72
65
73
6
40
63.5
49
25.4
74
0
49
-12.7
74
0
49
0
74
0
49
-12.7
74
0
49
0
74
0
49
-12.7
74
0
0
LTYPE
5
3E
330
5
100
AcDbSymbolTableRecord
100
AcDbLinetypeTableRecord
2
BORDER
70
0
3
Border __ __ . __ __ . __ __ . __ __ . __ __ .
72
65
73
6
40
44.45
49
12.7
74
0
49
-6.35
74
0
49
12.7
74
0
49
-6.35
74
0
49
0
74
0
49
-6.35
74
0
0
LTYPE
5
3F
330
5
100
AcDbSymbolTableRecord
100
AcDbLinetypeTableRecord
2
BORDER2
70
0
3
Border (.5x) __.__.__.__.__.__.__.__.__.__.__.
72
65
73
6
40
22.225
49
6.35
74
0
49
-3.175
74
0
49
6.35
74
0
49
-3.175
74
0
49
0
74
0
49
-3.175
74
0
0
LTYPE
5
40
330
5
100
AcDbSymbolTableRecord
100
AcDbLinetypeTableRecord
2
BORDERX2
70
0
3
Border (2x) ____  ____  .  ____  ____  .  ___
72
65
73
6
40
88.9
49
25.4
74
0
49
-12.7
74
0
49
25.4
74
0
49
-12.7
74
0
49
0
74
0
49
-12.7
74
0
0
LTYPE
5
41
330
5
100
AcDbSymbolTableRecord
100
AcDbLinetypeTableRecord
2
CENTER
70
0
3
Center ____ _ ____ _ ____ _ ____ _ ____ _ ____
72
65
73
4
40
50.8
49
31.75
74
0
49
-6.35
74
0
49
6.35
74
0
49
-6.35
74
0
0
LTYPE
5
42
330
5
100
AcDbSymbolTableRecord
100
AcDbLinetypeTableRecord
2
CENTER2
70
0
3
Center (.5x) ___ _ ___ _ ___ _ ___ _ ___ _ ___
72
65
73
4
40
28.575
49
19.05
74
0
49
-3.175
74
0
49
3.175
74
0
49
-3.175
74
0
0
LTYPE
5
43
330
5
100
AcDbSymbolTableRecord
100
AcDbLinetypeTableRecord
2
CENTERX2
70
0
3
Center (2x) ________  __  ________  __  _____
72
65
73
4
40
101.6
49
63.5
74
0
49
-12.7
74
0
49
12.7
74
0
49
-12.7
74
0
0
ENDTAB
0
TABLE
2
LAYER
5
2
330
0
100
AcDbSymbolTable
70
1
0
LAYER
5
10
330
2
100
AcDbSymbolTableRecord
100
AcDbLayerTableRecord
2
0
70
0
62
7
6
CONTINUOUS
370
-3
390
F
0
LAYER
5
44
330
2
100
AcDbSymbolTableRecord
100
AcDbLayerTableRecord
2
back
70
0
62
7
6
CONTINUOUS
370
-3
390
F
0
LAYER
5
45
330
2
100
AcDbSymbolTableRecord
100
AcDbLayerTableRecord
2
cut
70
0
62
7
6
CONTINUOUS
370
-3
390
F
0
LAYER
5
46
330
2
100
AcDbSymbolTableRecord
100
AcDbLayerTableRecord
2
engrave
70
0
62
7
6
CONTINUOUS
370
-3
390
F
0
ENDTAB
0
TABLE
2
STYLE
5
3
330
0
100
AcDbSymbolTable
70
3
0
STYLE
5
47
330
2
100
AcDbSymbolTableRecord
100
AcDbTextStyleTableRecord
2
Standard
70
0
40
0
41
1
50
0
71
0
42
1
3
txt
4

0
ENDTAB
0
TABLE
2
VIEW
5
6
330
0
100
AcDbSymbolTable
70
0
0
ENDTAB
0
TABLE
2
UCS
5
7
330
0
100
AcDbSymbolTable
70
0
0
ENDTAB
0
TABLE
2
APPID
5
9
330
0
100
AcDbSymbolTable
70
1
0
APPID
5
12
330
9
100
AcDbSymbolTableRecord
100
AcDbRegAppTableRecord
2
ACAD
70
0
0
ENDTAB
0
TABLE
2
DIMSTYLE
5
A
330
0
100
AcDbSymbolTable
70
1
100
AcDbDimStyleTable
71
1
0
DIMSTYLE
105
48
330
A
100
AcDbSymbolTableRecord
100
AcDbDimStyleTableRecord
2
Standard
70
0
40
1
41
2.5
42
0.625
43
0.38
44
1.25
45
0
46
0
47
0
48
0
140
2.5
141
0.09
142
0
143
25.4
144
1
145
0
146
1
147
0.625
148
0
71
0
72
0
73
0
74
1
75
0
76
0
77
0
78
0
79
0
170
0
171
2
172
0
173
0
174
0
175
0
176
0
177
0
178
0
179
0
271
4
272
4
273
2
274
2
275
0
276
0
277
2
278
46
279
0
280
0
281
0
282
0
283
1
284
0
285
0
286
0
288
0
289
3
340
Standard
341

371
-2
372
-2
0
ENDTAB
0
TABLE
2
BLOCK_RECORD
5
1
330
0
100
AcDbSymbolTable
70
2
0
BLOCK_RECORD
5
1F
330
1
100
AcDbSymbolTableRecord
100
AcDbBlockTableRecord
2
*Model_Space
70
0
280
1
281
0
0
BLOCK_RECORD
5
1E
330
1
100
AcDbSymbolTableRecord
100
AcDbBlockTableRecord
2
*Paper_Space
70
0
280
1
281
0
0
ENDTAB
0
ENDSEC
0
SECTION
2
BLOCKS
0
BLOCK
5
20
330
1F
100
AcDbEntity
8
0
100
AcDbBlockBegin
2
*Model_Space
70
0
10
0
20
0
30
0
3
*Model_Space
1

0
ENDBLK
5
21
330
1F
100
AcDbEntity
8
0
100
AcDbBlockEnd
0
BLOCK
5
1C
330
1B
100
AcDbEntity
8
0
100
AcDbBlockBegin
2
*Paper_Space
70
0
10
0
20
0
30
0
3
*Paper_Space
1

0
ENDBLK
5
1D
330
1F
100
AcDbEntity
8
0
100
AcDbBlockEnd
0
ENDSEC
0
SECTION
2
ENTITIES
0
SPLINE
5
49
100
AcDbEntity
8
cut
6
ByLayer
62
7
370
-1
100
AcDbSpline
210
0
220
0
230
1
70
8
71
3
72
8
73
4
74
0
42
1e-07
43
1e-07
40
0
40
0
40
0
40
0
40
1
40
1
40
1
40
1
10
69.723675
20
368.508807
30
0
10
69.723675
20
368.089602
30
0
10
69.383839
20
367.749767
30
0
10
68.964632
20
367.749767
30
0
0
SPLINE
5
4A
100
AcDbEntity
8
cut
6
ByLayer
62
7
370
-1
100
AcDbSpline
210
0
220
0
230
1
70
8
71
3
72
8
73
4
74
0
42
1e-07
43
1e-07
40
0
40
0
40
0
40
0
40
1
40
1
40
1
40
1
10
68.964632
20
367.749767
30
0
10
68.545419
20
367.749767
30
0
10
68.205596
20
368.089602
30
0
10
68.205596
20
368.508807
30
0
0
SPLINE
5
4B
100
AcDbEntity
8
cut
6
ByLayer
62
7
370
-1
100
AcDbSpline
210
0
220
0
230
1
70
8
71
3
72
8
73
4
74
0
42
1e-07
43
1e-07
40
0
40
0
40
0
40
0
40
1
40
1
40
1
40
1
10
68.205596
20
368.508807
30
0
10
68.205596
20
368.928014
30
0
10
68.545419
20
369.267852
30
0
10
68.964632
20
369.267852
30
0
0
SPLINE
5
4C
100
AcDbEntity
8
cut
6
ByLayer
62
7
370
-1
100
AcDbSpline
210
0
220
0
230
1
70
8
71
3
72
8
73
4
74
0
42
1e-07
43
1e-07
40
0
40
0
40
0
40
0
40
1
40
1
40
1
40
1
10
68.964632
20
369.267852
30
0
10
69.383839
20
369.267852
30
0
10
69.723675
20
368.928014
30
0
10
69.723675
20
368.508807
30
0
0
LINE
5
4D
100
AcDbEntity
8
cut
6
ByLayer
62
7
370
-1
100
AcDbLine
10
69.723675
20
368.508807
11
69.723675
21
368.508807
0
SPLINE
5
4E
100
AcDbEntity
8
cut
6
ByLayer
62
7
370
-1
100
AcDbSpline
210
0
220
0
230
1
70
8
71
3
72
8
73
4
74
0
42
1e-07
43
1e-07
40
0
40
0
40
0
40
0
40
1
40
1
40
1
40
1
10
69.723675
20
364.804454
30
0
10
69.723675
20
364.385247
30
0
10
69.383839
20
364.045414
30
0
10
68.964632
20
364.045414
30
0
0
SPLINE
5
4F
100
AcDbEntity
8
cut
6
ByLayer
62
7
370
-1
100
AcDbSpline
210
0
220
0
230
1
70
8
71
3
72
8
73
4
74
0
42
1e-07
43
1e-07
40
0
40
0
40
0
40
0
40
1
40
1
40
1
40
1
10
68.964632
20
364.045414
30
0
10
68.545419
20
364.045414
30
0
10
68.205596
20
364.385247
30
0
10
68.205596
20
364.804454
30
0
0
SPLINE
5
50
100
AcDbEntity
8
cut
6
ByLayer
62
7
370
-1
100
AcDbSpline
210
0
220
0
230
1
70
8
71
3
72
8
73
4
74
0
42
1e-07
43
1e-07
40
0
40
0
40
0
40
0
40
1
40
1
40
1
40
1
10
68.205596
20
364.804454
30
0
10
68.205596
20
365.223661
30
0
10
68.545419
20
365.563493
30
0
10
68.964632
20
365.563493
30
0
0
SPLINE
5
51
100
AcDbEntity
8
cut
6
ByLayer
62
7
370
-1
100
AcDbSpline
210
0
220
0
230
1
70
8
71
3
72
8
73
4
74
0
42
1e-07
43
1e-07
40
0
40
0
40
0
40
0
40
1
40
1
40
1
40
1
10
68.964632
20
365.563493
30
0
10
69.383839
20
365.563493
30
0
10
69.723675
20
365.223661
30
0
10
69.723675
20
364.804454
30
0
0
LINE
5
52
100
AcDbEntity
8
cut
6
ByLayer
62
7
370
-1
100
AcDbLine
10
69.723675
20
364.804454
11
69.723675
21
364.804454
0
SPLINE
5
53
100
AcDbEntity
8
cut
6
ByLayer
62
7
370
-1
100
AcDbSpline
210
0
220
0
230
1
70
8
71
3
72
8
73
4
74
0
42
1e-07
43
1e-07
40
0
40
0
40
0
40
0
40
1
40
1
40
1
40
1
10
69.749134
20
361.125554
30
0
10
69.749134
20
360.70635
30
0
10
69.409296
20
360.366518
30
0
10
68.990089
20
360.366518
30
0
0
SPLINE
5
54
100
AcDbEntity
8
cut
6
ByLayer
62
7
370
-1
100
AcDbSpline
210
0
220
0
230
1
70
8
71
3
72
8
73
4
74
0
42
1e-07
43
1e-07
40
0
40
0
40
0
40
0
40
1
40
1
40
1
40
1
10
68.990089
20
360.366518
30
0
10
68.570881
20
360.366518
30
0
10
68.231055
20
360.706347
30
0
10
68.231055
20
361.125554
30
0
0
SPLINE
5
55
100
AcDbEntity
8
cut
6
ByLayer
62
7
370
-1
100
AcDbSpline
210
0
220
0
230
1
70
8
71
3
72
8
73
4
74
0
42
1e-07
43
1e-07
40
0
40
0
40
0
40
0
40
1
40
1
40
1
40
1
10
68.231055
20
361.125554
30
0
10
68.231055
20
361.544759
30
0
10
68.570881
20
361.884597
30
0
10
68.990089
20
361.884597
30
0
0
SPLINE
5
56
100
AcDbEntity
8
cut
6
ByLayer
62
7
370
-1
100
AcDbSpline
210
0
220
0
230
1
70
8
71
3
72
8
73
4
74
0
42
1e-07
43
1e-07
40
0
40
0
40
0
40
0
40
1
40
1
40
1
40
1
10
68.990089
20
361.884597
30
0
10
69.409296
20
361.884597
30
0
10
69.749134
20
361.544762
30
0
10
69.749134
20
361.125554
30
0
0
LINE
5
57
100
AcDbEntity
8
cut
6
ByLayer
62
7
370
-1
100
AcDbLine
10
69.749134
20
361.125554
11
69.749134
21
361.125554
0
SPLINE
5
58
100
AcDbEntity
8
cut
6
ByLayer
62
7
370
-1
100
AcDbSpline
210
0
220
0
230
1
70
8
71
3
72
8
73
4
74
0
42
1e-07
43
1e-07
40
0
40
0
40
0
40
0
40
1
40
1
40
1
40
1
10
69.728261
20
357.47212
30
0
10
69.728261
20
357.052916
30
0
10
69.388426
20
356.713081
30
0
10
68.969218
20
356.713081
30
0
0
SPLINE
5
59
100
AcDbEntity
8
cut
6
ByLayer
62
7
370
-1
100
AcDbSpline
210
0
220
0
230
1
70
8
71
3
72
8
73
4
74
0
42
1e-07
43
1e-07
40
0
40
0
40
0
40
0
40
1
40
1
40
1
40
1
10
68.969218
20
356.713081
30
0
10
68.550005
20
356.713081
30
0
10
68.210182
20
357.052916
30
0
10
68.210182
20
357.47212
30
0
0
SPLINE
5
5A
100
AcDbEntity
8
cut
6
ByLayer
62
7
370
-1
100
AcDbSpline
210
0
220
0
230
1
70
8
71
3
72
8
73
4
74
0
42
1e-07
43
1e-07
40
0
40
0
40
0
40
0
40
1
40
1
40
1
40
1
10
68.210182
20
357.47212
30
0
10
68.210182
20
357.891327
30
0
10
68.550005
20
358.231165
30
0
10
68.969218
20
358.231165
30
0
0
SPLINE
5
5B
100
AcDbEntity
8
cut
6
ByLayer
62
7
370
-1
100
AcDbSpline
210
0
220
0
230
1
70
8
71
3
72
8
73
4
74
0
42
1e-07
43
1e-07
40
0
40
0
40
0
40
0
40
1
40
1
40
1
40
1
10
68.969218
20
358.231165
30
0
10
69.388426
20
358.231165
30
0
10
69.728261
20
357.891327
30
0
10
69.728261
20
357.47212
30
0
0
LINE
5
5C
100
AcDbEntity
8
cut
6
ByLayer
62
7
370
-1
100
AcDbLine
10
69.728261
20
357.47212
11
69.728261
21
357.47212
0
SPLINE
5
5D
100
AcDbEntity
8
cut
6
ByLayer
62
7
370
-1
100
AcDbSpline
210
0
220
0
230
1
70
8
71
3
72
8
73
4
74
0
42
1e-07
43
1e-07
40
0
40
0
40
0
40
0
40
1
40
1
40
1
40
1
10
63.945561
20
371.940928
30
0
10
63.761733
20
371.776268
30
0
10
63.64504
20
371.535615
30
0
10
63.64504
20
371.269409
30
0
0
SPLINE
5
5E
100
AcDbEntity
8
cut
6
ByLayer
62
7
370
-1
100
AcDbSpline
210
0
220
0
230
1
70
8
71
3
72
8
73
4
74
0
42
1e-07
43
1e-07
40
0
40
0
40
0
40
0
40
1
40
1
40
1
40
1
10
63.64504
20
371.269409
30
0
10
63.64504
20
371.0032
30
0
10
63.761733
20
370.766254
30
0
10
63.945561
20
370.601603
30
0
0
LINE
5
5F
100
AcDbEntity
8
cut
6
ByLayer
62
7
370
-1
100
AcDbLine
10
63.945561
20
370.601603
11
65.143894
21
370.601603
0
SPLINE
5
60
100
AcDbEntity
8
cut
6
ByLayer
62
7
370
-1
100
AcDbSpline
210
0
220
0
230
1
70
8
71
3
72
8
73
4
74
0
42
1e-07
43
1e-07
40
0
40
0
40
0
40
0
40
1
40
1
40
1
40
1
10
65.143894
20
370.601603
30
0
10
65.327725
20
370.766254
30
0
10
65.444415
20
371.0032
30
0
10
65.444415
20
371.269409
30
0
0
SPLINE
5
61
100
AcDbEntity
8
cut
6
ByLayer
62
7
370
-1
100
AcDbSpline
210
0
220
0
230
1
70
8
71
3
72
8
73
4
74
0
42
1e-07
43
1e-07
40
0
40
0
40
0
40
0
40
1
40
1
40
1
40
1
10
65.444415
20
371.269409
30
0
10
65.444415
20
371.535615
30
0
10
65.327725
20
371.776268
30
0
10
65.143894
20
371.940928
30
0
0
LINE
5
62
100
AcDbEntity
8
cut
6
ByLayer
62
7
370
-1
100
AcDbLine
10
65.143894
20
371.940928
11
63.945561
21
371.940928
0
LINE
5
63
100
AcDbEntity
8
cut
6
ByLayer
62
7
370
-1
100
AcDbLine
10
63.945561
20
371.940928
11
63.945561
21
371.940928
0
SPLINE
5
64
100
AcDbEntity
8
cut
6
ByLayer
62
7
370
-1
100
AcDbSpline
210
0
220
0
230
1
70
8
71
3
72
8
73
4
74
0
42
1e-07
43
1e-07
40
0
40
0
40
0
40
0
40
1
40
1
40
1
40
1
10
66.434044
20
368.508807
30
0
10
66.434044
20
367.897259
30
0
10
65.938284
20
367.401502
30
0
10
65.326734
20
367.401502
30
0
0
SPLINE
5
65
100
AcDbEntity
8
cut
6
ByLayer
62
7
370
-1
100
AcDbSpline
210
0
220
0
230
1
70
8
71
3
72
8
73
4
74
0
42
1e-07
43
1e-07
40
0
40
0
40
0
40
0
40
1
40
1
40
1
40
1
10
65.326734
20
367.401502
30
0
10
64.715178
20
367.401502
30
0
10
64.21943
20
367.897259
30
0
10
64.21943
20
368.508807
30
0
0
SPLINE
5
66
100
AcDbEntity
8
cut
6
ByLayer
62
7
370
-1
100
AcDbSpline
210
0
220
0
230
1
70
8
71
3
72
8
73
4
74
0
42
1e-07
43
1e-07
40
0
40
0
40
0
40
0
40
1
40
1
40
1
40
1
10
64.21943
20
368.508807
30
0
10
64.21943
20
369.120357
30
0
10
64.715178
20
369.616114
30
0
10
65.326734
20
369.616114
30
0
0
SPLINE
5
67
100
AcDbEntity
8
cut
6
ByLayer
62
7
370
-1
100
AcDbSpline
210
0
220
0
230
1
70
8
71
3
72
8
73
4
74
0
42
1e-07
43
1e-07
40
0
40
0
40
0
40
0
40
1
40
1
40
1
40
1
10
65.326734
20
369.616114
30
0
10
65.938284
20
369.616114
30
0
10
66.434044
20
369.120357
30
0
10
66.434044
20
368.508807
30
0
0
LINE
5
68
100
AcDbEntity
8
cut
6
ByLayer
62
7
370
-1
100
AcDbLine
10
66.434044
20
368.508807
11
66.434044
21
368.508807
0
SPLINE
5
69
100
AcDbEntity
8
cut
6
ByLayer
62
7
370
-1
100
AcDbSpline
210
0
220
0
230
1
70
8
71
3
72
8
73
4
74
0
42
1e-07
43
1e-07
40
0
40
0
40
0
40
0
40
1
40
1
40
1
40
1
10
66.434044
20
364.804454
30
0
10
66.434044
20
364.192906
30
0
10
65.938281
20
363.697146
30
0
10
65.326734
20
363.697146
30
0
0
SPLINE
5
6A
100
AcDbEntity
8
cut
6
ByLayer
62
7
370
-1
100
AcDbSpline
210
0
220
0
230
1
70
8
71
3
72
8
73
4
74
0
42
1e-07
43
1e-07
40
0
40
0
40
0
40
0
40
1
40
1
40
1
40
1
10
65.326734
20
363.697146
30
0
10
64.715176
20
363.697146
30
0
10
64.219432
20
364.192906
30
0
10
64.219432
20
364.804454
30
0
0
SPLINE
5
6B
100
AcDbEntity
8
cut
6
ByLayer
62
7
370
-1
100
AcDbSpline
210
0
220
0
230
1
70
8
71
3
72
8
73
4
74
0
42
1e-07
43
1e-07
40
0
40
0
40
0
40
0
40
1
40
1
40
1
40
1
10
64.219432
20
364.804454
30
0
10
64.219432
20
365.415998
30
0
10
64.715176
20
365.911758
30
0
10
65.326734
20
365.911758
30
0
0
SPLINE
5
6C
100
AcDbEntity
8
cut
6
ByLayer
62
7
370
-1
100
AcDbSpline
210
0
220
0
230
1
70
8
71
3
72
8
73
4
74
0
42
1e-07
43
1e-07
40
0
40
0
40
0
40
0
40
1
40
1
40
1
40
1
10
65.326734
20
365.911758
30
0
10
65.938281
20
365.911758
30
0
10
66.434044
20
365.415998
30
0
10
66.434044
20
364.804454
30
0
0
LINE
5
6D
100
AcDbEntity
8
cut
6
ByLayer
62
7
370
-1
100
AcDbLine
10
66.434044
20
364.804454
11
66.434044
21
364.804454
0
SPLINE
5
6E
100
AcDbEntity
8
cut
6
ByLayer
62
7
370
-1
100
AcDbSpline
210
0
220
0
230
1
70
8
71
3
72
8
73
4
74
0
42
1e-07
43
1e-07
40
0
40
0
40
0
40
0
40
1
40
1
40
1
40
1
10
66.408585
20
361.125557
30
0
10
66.408585
20
360.51401
30
0
10
65.912822
20
360.01825
30
0
10
65.301275
20
360.01825
30
0
0
SPLINE
5
6F
100
AcDbEntity
8
cut
6
ByLayer
62
7
370
-1
100
AcDbSpline
210
0
220
0
230
1
70
8
71
3
72
8
73
4
74
0
42
1e-07
43
1e-07
40
0
40
0
40
0
40
0
40
1
40
1
40
1
40
1
10
65.301275
20
360.01825
30
0
10
64.689716
20
360.01825
30
0
10
64.193973
20
360.51401
30
0
10
64.193973
20
361.125557
30
0
0
SPLINE
5
70
100
AcDbEntity
8
cut
6
ByLayer
62
7
370
-1
100
AcDbSpline
210
0
220
0
230
1
70
8
71
3
72
8
73
4
74
0
42
1e-07
43
1e-07
40
0
40
0
40
0
40
0
40
1
40
1
40
1
40
1
10
64.193973
20
361.125557
30
0
10
64.193973
20
361.737102
30
0
10
64.689716
20
362.232865
30
0
10
65.301275
20
362.232865
30
0
0
SPLINE
5
71
100
AcDbEntity
8
cut
6
ByLayer
62
7
370
-1
100
AcDbSpline
210
0
220
0
230
1
70
8
71
3
72
8
73
4
74
0
42
1e-07
43
1e-07
40
0
40
0
40
0
40
0
40
1
40
1
40
1
40
1
10
65.301275
20
362.232865
30
0
10
65.912822
20
362.232865
30
0
10
66.408585
20
361.737102
30
0
10
66.408585
20
361.125557
30
0
0
LINE
5
72
100
AcDbEntity
8
cut
6
ByLayer
62
7
370
-1
100
AcDbLine
10
66.408585
20
361.125557
11
66.408585
21
361.125557
0
SPLINE
5
73
100
AcDbEntity
8
cut
6
ByLayer
62
7
370
-1
100
AcDbSpline
210
0
220
0
230
1
70
8
71
3
72
8
73
4
74
0
42
1e-07
43
1e-07
40
0
40
0
40
0
40
0
40
1
40
1
40
1
40
1
10
66.236556
20
357.47212
30
0
10
66.236556
20
356.86057
30
0
10
65.740796
20
356.364816
30
0
10
65.129246
20
356.364816
30
0
0
SPLINE
5
74
100
AcDbEntity
8
cut
6
ByLayer
62
7
370
-1
100
AcDbSpline
210
0
220
0
230
1
70
8
71
3
72
8
73
4
74
0
42
1e-07
43
1e-07
40
0
40
0
40
0
40
0
40
1
40
1
40
1
40
1
10
65.129246
20
356.364816
30
0
10
64.517696
20
356.364816
30
0
10
64.021945
20
356.86057
30
0
10
64.021945
20
357.47212
30
0
0
SPLINE
5
75
100
AcDbEntity
8
cut
6
ByLayer
62
7
370
-1
100
AcDbSpline
210
0
220
0
230
1
70
8
71
3
72
8
73
4
74
0
42
1e-07
43
1e-07
40
0
40
0
40
0
40
0
40
1
40
1
40
1
40
1
10
64.021945
20
357.47212
30
0
10
64.021945
20
358.083667
30
0
10
64.517696
20
358.579427
30
0
10
65.129246
20
358.579427
30
0
0
SPLINE
5
76
100
AcDbEntity
8
cut
6
ByLayer
62
7
370
-1
100
AcDbSpline
210
0
220
0
230
1
70
8
71
3
72
8
73
4
74
0
42
1e-07
43
1e-07
40
0
40
0
40
0
40
0
40
1
40
1
40
1
40
1
10
65.129246
20
358.579427
30
0
10
65.740796
20
358.579427
30
0
10
66.236556
20
358.083667
30
0
10
66.236556
20
357.47212
30
0
0
LINE
5
77
100
AcDbEntity
8
cut
6
ByLayer
62
7
370
-1
100
AcDbLine
10
66.236556
20
357.47212
11
66.236556
21
357.47212
0
SPLINE
5
78
100
AcDbEntity
8
cut
6
ByLayer
62
7
370
-1
100
AcDbSpline
210
0
220
0
230
1
70
8
71
3
72
8
73
4
74
0
42
1e-07
43
1e-07
40
0
40
0
40
0
40
0
40
1
40
1
40
1
40
1
10
65.880804
20
373.057035
30
0
10
65.696973
20
372.892375
30
0
10
65.580283
20
372.651722
30
0
10
65.580283
20
372.385516
30
0
0
SPLINE
5
79
100
AcDbEntity
8
cut
6
ByLayer
62
7
370
-1
100
AcDbSpline
210
0
220
0
230
1
70
8
71
3
72
8
73
4
74
0
42
1e-07
43
1e-07
40
0
40
0
40
0
40
0
40
1
40
1
40
1
40
1
10
65.580283
20
372.385516
30
0
10
65.580283
20
372.119307
30
0
10
65.696973
20
371.882361
30
0
10
65.880804
20
371.71771
30
0
0
LINE
5
7A
100
AcDbEntity
8
cut
6
ByLayer
62
7
370
-1
100
AcDbLine
10
65.880804
20
371.71771
11
67.079137
21
371.71771
0
SPLINE
5
7B
100
AcDbEntity
8
cut
6
ByLayer
62
7
370
-1
100
AcDbSpline
210
0
220
0
230
1
70
8
71
3
72
8
73
4
74
0
42
1e-07
43
1e-07
40
0
40
0
40
0
40
0
40
1
40
1
40
1
40
1
10
67.079137
20
371.71771
30
0
10
67.262968
20
371.882361
30
0
10
67.379658
20
372.119307
30
0
10
67.379658
20
372.385516
30
0
0
SPLINE
5
7C
100
AcDbEntity
8
cut
6
ByLayer
62
7
370
-1
100
AcDbSpline
210
0
220
0
230
1
70
8
71
3
72
8
73
4
74
0
42
1e-07
43
1e-07
40
0
40
0
40
0
40
0
40
1
40
1
40
1
40
1
10
67.379658
20
372.385516
30
0
10
67.379658
20
372.651722
30
0
10
67.262968
20
372.892375
30
0
10
67.079137
20
373.057035
30
0
0
LINE
5
7D
100
AcDbEntity
8
cut
6
ByLayer
62
7
370
-1
100
AcDbLine
10
67.079137
20
373.057035
11
65.880804
21
373.057035
0
LINE
5
7E
100
AcDbEntity
8
cut
6
ByLayer
62
7
370
-1
100
AcDbLine
10
65.880804
20
373.057035
11
65.880804
21
373.057035
0
SPLINE
5
7F
100
AcDbEntity
8
cut
6
ByLayer
62
7
370
-1
100
AcDbSpline
210
0
220
0
230
1
70
8
71
3
72
8
73
4
74
0
42
1e-07
43
1e-07
40
0
40
0
40
0
40
0
40
1
40
1
40
1
40
1
10
68.284146
20
371.877863
30
0
10
68.100318
20
371.713211
30
0
10
67.983628
20
371.472555
30
0
10
67.983628
20
371.206346
30
0
0
SPLINE
5
80
100
AcDbEntity
8
cut
6
ByLayer
62
7
370
-1
100
AcDbSpline
210
0
220
0
230
1
70
8
71
3
72
8
73
4
74
0
42
1e-07
43
1e-07
40
0
40
0
40
0
40
0
40
1
40
1
40
1
40
1
10
67.983628
20
371.206346
30
0
10
67.983628
20
370.940134
30
0
10
68.100318
20
370.703195
30
0
10
68.284146
20
370.538543
30
0
0
LINE
5
81
100
AcDbEntity
8
cut
6
ByLayer
62
7
370
-1
100
AcDbLine
10
68.284146
20
370.538543
11
69.482482
21
370.538543
0
SPLINE
5
82
100
AcDbEntity
8
cut
6
ByLayer
62
7
370
-1
100
AcDbSpline
210
0
220
0
230
1
70
8
71
3
72
8
73
4
74
0
42
1e-07
43
1e-07
40
0
40
0
40
0
40
0
40
1
40
1
40
1
40
1
10
69.482482
20
370.538543
30
0
10
69.66631
20
370.703195
30
0
10
69.783
20
370.940134
30
0
10
69.783
20
371.206346
30
0
0
SPLINE
5
83
100
AcDbEntity
8
cut
6
ByLayer
62
7
370
-1
100
AcDbSpline
210
0
220
0
230
1
70
8
71
3
72
8
73
4
74
0
42
1e-07
43
1e-07
40
0
40
0
40
0
40
0
40
1
40
1
40
1
40
1
10
69.783
20
371.206346
30
0
10
69.783
20
371.472555
30
0
10
69.66631
20
371.713211
30
0
10
69.482482
20
371.877863
30
0
0
LINE
5
84
100
AcDbEntity
8
cut
6
ByLayer
62
7
370
-1
100
AcDbLine
10
69.482482
20
371.877863
11
68.284146
21
371.877863
0
LINE
5
85
100
AcDbEntity
8
cut
6
ByLayer
62
7
370
-1
100
AcDbLine
10
68.284146
20
371.877863
11
68.284146
21
371.877863
0
SPLINE
5
86
100
AcDbEntity
8
cut
6
ByLayer
62
7
370
-1
100
AcDbSpline
210
0
220
0
230
1
70
8
71
3
72
8
73
4
74
0
42
1e-07
43
1e-07
40
0
40
0
40
0
40
0
40
1
40
1
40
1
40
1
10
75.482557
20
345.659751
30
0
10
75.482557
20
345.240547
30
0
10
75.142722
20
344.900715
30
0
10
74.723515
20
344.900715
30
0
0
SPLINE
5
87
100
AcDbEntity
8
cut
6
ByLayer
62
7
370
-1
100
AcDbSpline
210
0
220
0
230
1
70
8
71
3
72
8
73
4
74
0
42
1e-07
43
1e-07
40
0
40
0
40
0
40
0
40
1
40
1
40
1
40
1
10
74.723515
20
344.900715
30
0
10
74.304305
20
344.900715
30
0
10
73.964478
20
345.240547
30
0
10
73.964478
20
345.659751
30
0
0
SPLINE
5
88
100
AcDbEntity
8
cut
6
ByLayer
62
7
370
-1
100
AcDbSpline
210
0
220
0
230
1
70
8
71
3
72
8
73
4
74
0
42
1e-07
43
1e-07
40
0
40
0
40
0
40
0
40
1
40
1
40
1
40
1
10
73.964478
20
345.659751
30
0
10
73.964478
20
346.078959
30
0
10
74.304305
20
346.418794
30
0
10
74.723515
20
346.418794
30
0
0
SPLINE
5
89
100
AcDbEntity
8
cut
6
ByLayer
62
7
370
-1
100
AcDbSpline
210
0
220
0
230
1
70
8
71
3
72
8
73
4
74
0
42
1e-07
43
1e-07
40
0
40
0
40
0
40
0
40
1
40
1
40
1
40
1
10
74.723515
20
346.418794
30
0
10
75.142722
20
346.418794
30
0
10
75.482557
20
346.078959
30
0
10
75.482557
20
345.659751
30
0
0
LINE
5
8A
100
AcDbEntity
8
cut
6
ByLayer
62
7
370
-1
100
AcDbLine
10
75.482557
20
345.659751
11
75.482557
21
345.659751
0
SPLINE
5
8B
100
AcDbEntity
8
cut
6
ByLayer
62
7
370
-1
100
AcDbSpline
210
0
220
0
230
1
70
8
71
3
72
8
73
4
74
0
42
1e-07
43
1e-07
40
0
40
0
40
0
40
0
40
1
40
1
40
1
40
1
10
72.585487
20
345.583193
30
0
10
72.585487
20
344.971646
30
0
10
72.08973
20
344.475888
30
0
10
71.478177
20
344.475888
30
0
0
SPLINE
5
8C
100
AcDbEntity
8
cut
6
ByLayer
62
7
370
-1
100
AcDbSpline
210
0
220
0
230
1
70
8
71
3
72
8
73
4
74
0
42
1e-07
43
1e-07
40
0
40
0
40
0
40
0
40
1
40
1
40
1
40
1
10
71.478177
20
344.475888
30
0
10
70.866624
20
344.475888
30
0
10
70.370872
20
344.971646
30
0
10
70.370872
20
345.583193
30
0
0
SPLINE
5
8D
100
AcDbEntity
8
cut
6
ByLayer
62
7
370
-1
100
AcDbSpline
210
0
220
0
230
1
70
8
71
3
72
8
73
4
74
0
42
1e-07
43
1e-07
40
0
40
0
40
0
40
0
40
1
40
1
40
1
40
1
10
70.370872
20
345.583193
30
0
10
70.370872
20
346.194743
30
0
10
70.866624
20
346.6905
30
0
10
71.478177
20
346.6905
30
0
0
SPLINE
5
8E
100
AcDbEntity
8
cut
6
ByLayer
62
7
370
-1
100
AcDbSpline
210
0
220
0
230
1
70
8
71
3
72
8
73
4
74
0
42
1e-07
43
1e-07
40
0
40
0
40
0
40
0
40
1
40
1
40
1
40
1
10
71.478177
20
346.6905
30
0
10
72.089727
20
346.6905
30
0
10
72.585487
20
346.194743
30
0
10
72.585487
20
345.583193
30
0
0
LINE
5
8F
100
AcDbEntity
8
cut
6
ByLayer
62
7
370
-1
100
AcDbLine
10
72.585487
20
345.583193
11
72.585487
21
345.583193
0
SPLINE
5
90
100
AcDbEntity
8
cut
6
ByLayer
62
7
370
-1
100
AcDbSpline
210
0
220
0
230
1
70
8
71
3
72
8
73
4
74
0
42
1e-07
43
1e-07
40
0
40
0
40
0
40
0
40
1
40
1
40
1
40
1
10
68.726781
20
344.76014
30
0
10
68.726781
20
343.846313
30
0
10
67.985976
20
343.105508
30
0
10
67.072137
20
343.105508
30
0
0
SPLINE
5
91
100
AcDbEntity
8
cut
6
ByLayer
62
7
370
-1
100
AcDbSpline
210
0
220
0
230
1
70
8
71
3
72
8
73
4
74
0
42
1e-07
43
1e-07
40
0
40
0
40
0
40
0
40
1
40
1
40
1
40
1
10
67.072137
20
343.105508
30
0
10
66.158302
20
343.105508
30
0
10
65.417519
20
343.846313
30
0
10
65.417519
20
344.76014
30
0
0
SPLINE
5
92
100
AcDbEntity
8
cut
6
ByLayer
62
7
370
-1
100
AcDbSpline
210
0
220
0
230
1
70
8
71
3
72
8
73
4
74
0
42
1e-07
43
1e-07
40
0
40
0
40
0
40
0
40
1
40
1
40
1
40
1
10
65.417519
20
344.76014
30
0
10
65.417519
20
345.673967
30
0
10
66.158302
20
346.414769
30
0
10
67.072137
20
346.414769
30
0
0
SPLINE
5
93
100
AcDbEntity
8
cut
6
ByLayer
62
7
370
-1
100
AcDbSpline
210
0
220
0
230
1
70
8
71
3
72
8
73
4
74
0
42
1e-07
43
1e-07
40
0
40
0
40
0
40
0
40
1
40
1
40
1
40
1
10
67.072137
20
346.414769
30
0
10
67.985976
20
346.414769
30
0
10
68.726781
20
345.673967
30
0
10
68.726781
20
344.76014
30
0
0
LINE
5
94
100
AcDbEntity
8
cut
6
ByLayer
62
7
370
-1
100
AcDbLine
10
68.726781
20
344.76014
11
68.726781
21
344.76014
0
SPLINE
5
95
100
AcDbEntity
8
cut
6
ByLayer
62
7
370
-1
100
AcDbSpline
210
0
220
0
230
1
70
8
71
3
72
8
73
4
74
0
42
1e-07
43
1e-07
40
0
40
0
40
0
40
0
40
1
40
1
40
1
40
1
10
67.211583
20
340.504071
30
0
10
67.211583
20
340.722285
30
0
10
67.034687
20
340.899182
30
0
10
66.816472
20
340.899182
30
0
0
SPLINE
5
96
100
AcDbEntity
8
cut
6
ByLayer
62
7
370
-1
100
AcDbSpline
210
0
220
0
230
1
70
8
71
3
72
8
73
4
74
0
42
1e-07
43
1e-07
40
0
40
0
40
0
40
0
40
1
40
1
40
1
40
1
10
66.816472
20
340.899182
30
0
10
66.598258
20
340.899182
30
0
10
66.421361
20
340.722285
30
0
10
66.421361
20
340.504071
30
0
0
SPLINE
5
97
100
AcDbEntity
8
cut
6
ByLayer
62
7
370
-1
100
AcDbSpline
210
0
220
0
230
1
70
8
71
3
72
8
73
4
74
0
42
1e-07
43
1e-07
40
0
40
0
40
0
40
0
40
1
40
1
40
1
40
1
10
66.421361
20
340.504071
30
0
10
66.421361
20
340.285856
30
0
10
66.598258
20
340.108959
30
0
10
66.816472
20
340.108959
30
0
0
SPLINE
5
98
100
AcDbEntity
8
cut
6
ByLayer
62
7
370
-1
100
AcDbSpline
210
0
220
0
230
1
70
8
71
3
72
8
73
4
74
0
42
1e-07
43
1e-07
40
0
40
0
40
0
40
0
40
1
40
1
40
1
40
1
10
66.816472
20
340.108959
30
0
10
67.034687
20
340.108959
30
0
10
67.211583
20
340.285856
30
0
10
67.211583
20
340.504071
30
0
0
LINE
5
99
100
AcDbEntity
8
cut
6
ByLayer
62
7
370
-1
100
AcDbLine
10
67.211583
20
340.504071
11
67.211583
21
340.504071
0
SPLINE
5
9A
100
AcDbEntity
8
cut
6
ByLayer
62
7
370
-1
100
AcDbSpline
210
0
220
0
230
1
70
8
71
3
72
8
73
4
74
0
42
1e-07
43
1e-07
40
0
40
0
40
0
40
0
40
1
40
1
40
1
40
1
10
61.499787
20
373.653131
30
0
10
61.499787
20
373.871345
30
0
10
61.32289
20
374.048242
30
0
10
61.104676
20
374.048242
30
0
0
SPLINE
5
9B
100
AcDbEntity
8
cut
6
ByLayer
62
7
370
-1
100
AcDbSpline
210
0
220
0
230
1
70
8
71
3
72
8
73
4
74
0
42
1e-07
43
1e-07
40
0
40
0
40
0
40
0
40
1
40
1
40
1
40
1
10
61.104676
20
374.048242
30
0
10
60.886461
20
374.048242
30
0
10
60.709564
20
373.871345
30
0
10
60.709564
20
373.653131
30
0
0
SPLINE
5
9C
100
AcDbEntity
8
cut
6
ByLayer
62
7
370
-1
100
AcDbSpline
210
0
220
0
230
1
70
8
71
3
72
8
73
4
74
0
42
1e-07
43
1e-07
40
0
40
0
40
0
40
0
40
1
40
1
40
1
40
1
10
60.709564
20
373.653131
30
0
10
60.709564
20
373.434917
30
0
10
60.886461
20
373.25802
30
0
10
61.104676
20
373.25802
30
0
0
SPLINE
5
9D
100
AcDbEntity
8
cut
6
ByLayer
62
7
370
-1
100
AcDbSpline
210
0
220
0
230
1
70
8
71
3
72
8
73
4
74
0
42
1e-07
43
1e-07
40
0
40
0
40
0
40
0
40
1
40
1
40
1
40
1
10
61.104676
20
373.25802
30
0
10
61.32289
20
373.25802
30
0
10
61.499787
20
373.434917
30
0
10
61.499787
20
373.653131
30
0
0
LINE
5
9E
100
AcDbEntity
8
cut
6
ByLayer
62
7
370
-1
100
AcDbLine
10
61.499787
20
373.653131
11
61.499787
21
373.653131
0
SPLINE
5
9F
100
AcDbEntity
8
cut
6
ByLayer
62
7
370
-1
100
AcDbSpline
210
0
220
0
230
1
70
8
71
3
72
8
73
4
74
0
42
1e-07
43
1e-07
40
0
40
0
40
0
40
0
40
1
40
1
40
1
40
1
10
71.583502
20
373.500336
30
0
10
71.583502
20
373.71855
30
0
10
71.406605
20
373.895447
30
0
10
71.188391
20
373.895447
30
0
0
SPLINE
5
A0
100
AcDbEntity
8
cut
6
ByLayer
62
7
370
-1
100
AcDbSpline
210
0
220
0
230
1
70
8
71
3
72
8
73
4
74
0
42
1e-07
43
1e-07
40
0
40
0
40
0
40
0
40
1
40
1
40
1
40
1
10
71.188391
20
373.895447
30
0
10
70.970177
20
373.895447
30
0
10
70.79328
20
373.71855
30
0
10
70.79328
20
373.500336
30
0
0
SPLINE
5
A1
100
AcDbEntity
8
cut
6
ByLayer
62
7
370
-1
100
AcDbSpline
210
0
220
0
230
1
70
8
71
3
72
8
73
4
74
0
42
1e-07
43
1e-07
40
0
40
0
40
0
40
0
40
1
40
1
40
1
40
1
10
70.79328
20
373.500336
30
0
10
70.79328
20
373.282121
30
0
10
70.970177
20
373.105225
30
0
10
71.188391
20
373.105225
30
0
0
SPLINE
5
A2
100
AcDbEntity
8
cut
6
ByLayer
62
7
370
-1
100
AcDbSpline
210
0
220
0
230
1
70
8
71
3
72
8
73
4
74
0
42
1e-07
43
1e-07
40
0
40
0
40
0
40
0
40
1
40
1
40
1
40
1
10
71.188391
20
373.105225
30
0
10
71.406605
20
373.105225
30
0
10
71.583502
20
373.282121
30
0
10
71.583502
20
373.500336
30
0
0
LINE
5
A3
100
AcDbEntity
8
cut
6
ByLayer
62
7
370
-1
100
AcDbLine
10
71.583502
20
373.500336
11
71.583502
21
373.500336
0
SPLINE
5
A4
100
AcDbEntity
8
cut
6
ByLayer
62
7
370
-1
100
AcDbSpline
210
0
220
0
230
1
70
8
71
3
72
8
73
4
74
0
42
1e-07
43
1e-07
40
0
40
0
40
0
40
0
40
1
40
1
40
1
40
1
10
74.20371
20
354.955299
30
0
10
74.20371
20
355.173513
30
0
10
74.026813
20
355.35041
30
0
10
73.808598
20
355.35041
30
0
0
SPLINE
5
A5
100
AcDbEntity
8
cut
6
ByLayer
62
7
370
-1
100
AcDbSpline
210
0
220
0
230
1
70
8
71
3
72
8
73
4
74
0
42
1e-07
43
1e-07
40
0
40
0
40
0
40
0
40
1
40
1
40
1
40
1
10
73.808598
20
355.35041
30
0
10
73.590384
20
355.35041
30
0
10
73.413487
20
355.173513
30
0
10
73.413487
20
354.955299
30
0
0
SPLINE
5
A6
100
AcDbEntity
8
cut
6
ByLayer
62
7
370
-1
100
AcDbSpline
210
0
220
0
230
1
70
8
71
3
72
8
73
4
74
0
42
1e-07
43
1e-07
40
0
40
0
40
0
40
0
40
1
40
1
40
1
40
1
10
73.413487
20
354.955299
30
0
10
73.413487
20
354.737085
30
0
10
73.590384
20
354.560188
30
0
10
73.808598
20
354.560188
30
0
0
SPLINE
5
A7
100
AcDbEntity
8
cut
6
ByLayer
62
7
370
-1
100
AcDbSpline
210
0
220
0
230
1
70
8
71
3
72
8
73
4
74
0
42
1e-07
43
1e-07
40
0
40
0
40
0
40
0
40
1
40
1
40
1
40
1
10
73.808598
20
354.560188
30
0
10
74.026813
20
354.560188
30
0
10
74.20371
20
354.737085
30
0
10
74.20371
20
354.955299
30
0
0
LINE
5
A8
100
AcDbEntity
8
cut
6
ByLayer
62
7
370
-1
100
AcDbLine
10
74.20371
20
354.955299
11
74.20371
21
354.955299
0
SPLINE
5
A9
100
AcDbEntity
8
cut
6
ByLayer
62
7
370
-1
100
AcDbSpline
210
0
220
0
230
1
70
8
71
3
72
8
73
4
74
0
42
1e-07
43
1e-07
40
0
40
0
40
0
40
0
40
1
40
1
40
1
40
1
10
72.68843
20
359.45765
30
0
10
72.688432
20
357.912598
30
0
10
73.530009
20
356.492275
30
0
10
74.879635
20
355.75957
30
0
0
LINE
5
AA
100
AcDbEntity
8
cut
6
ByLayer
62
7
370
-1
100
AcDbLine
10
74.879635
20
355.75957
11
76.798419
21
354.717856
0
LINE
5
AB
100
AcDbEntity
8
cut
6
ByLayer
62
7
370
-1
100
AcDbLine
10
59.907837
20
374.146904
11
59.919812
21
340.533395
0
SPLINE
5
AC
100
AcDbEntity
8
cut
6
ByLayer
62
7
370
-1
100
AcDbSpline
210
0
220
0
230
1
70
8
71
3
72
8
73
4
74
0
42
1e-07
43
1e-07
40
0
40
0
40
0
40
0
40
1
40
1
40
1
40
1
10
59.919812
20
340.533395
30
0
10
62.87142
20
339.42698
30
0
10
66.1114
20
339.094484
30
0
10
69.217565
20
339.608515
30
0
0
SPLINE
5
AD
100
AcDbEntity
8
cut
6
ByLayer
62
7
370
-1
100
AcDbSpline
210
0
220
0
230
1
70
8
71
3
72
8
73
4
74
0
42
1e-07
43
1e-07
40
0
40
0
40
0
40
0
40
1
40
1
40
1
40
1
10
69.217565
20
339.608515
30
0
10
72.32373
20
340.122544
30
0
10
75.288116
20
341.481781
30
0
10
77.701506
20
343.476048
30
0
0
LINE
5
AE
100
AcDbEntity
8
cut
6
ByLayer
62
7
370
-1
100
AcDbLine
10
77.701506
20
343.476048
11
77.697422
21
348.090775
0
LINE
5
AF
100
AcDbEntity
8
cut
6
ByLayer
62
7
370
-1
100
AcDbLine
10
77.697422
20
348.090775
11
63.452987
21
348.089375
0
SPLINE
5
B0
100
AcDbEntity
8
cut
6
ByLayer
62
7
370
-1
100
AcDbSpline
210
0
220
0
230
1
70
8
71
3
72
8
73
4
74
0
42
1e-07
43
1e-07
40
0
40
0
40
0
40
0
40
1
40
1
40
1
40
1
10
63.452987
20
348.089375
30
0
10
63.034025
20
348.089333
30
0
10
62.696737
20
348.429323
30
0
10
62.696737
20
348.851588
30
0
0
LINE
5
B1
100
AcDbEntity
8
cut
6
ByLayer
62
7
370
-1
100
AcDbLine
10
62.696737
20
348.851588
11
62.69382
21
349.680631
0
SPLINE
5
B2
100
AcDbEntity
8
cut
6
ByLayer
62
7
370
-1
100
AcDbSpline
210
0
220
0
230
1
70
8
71
3
72
8
73
4
74
0
42
1e-07
43
1e-07
40
0
40
0
40
0
40
0
40
1
40
1
40
1
40
1
10
62.69382
20
349.680631
30
0
10
62.160686
20
349.680631
30
0
10
61.858944
20
350.334755
30
0
10
61.858944
20
351.141661
30
0
0
SPLINE
5
B3
100
AcDbEntity
8
cut
6
ByLayer
62
7
370
-1
100
AcDbSpline
210
0
220
0
230
1
70
8
71
3
72
8
73
4
74
0
42
1e-07
43
1e-07
40
0
40
0
40
0
40
0
40
1
40
1
40
1
40
1
10
61.858944
20
351.141661
30
0
10
61.858944
20
351.948565
30
0
10
62.160686
20
352.602689
30
0
10
62.69382
20
352.602689
30
0
0
LINE
5
B4
100
AcDbEntity
8
cut
6
ByLayer
62
7
370
-1
100
AcDbLine
10
62.69382
20
352.602689
11
62.696737
21
353.199859
0
SPLINE
5
B5
100
AcDbEntity
8
cut
6
ByLayer
62
7
370
-1
100
AcDbSpline
210
0
220
0
230
1
70
8
71
3
72
8
73
4
74
0
42
1e-07
43
1e-07
40
0
40
0
40
0
40
0
40
1
40
1
40
1
40
1
10
62.696737
20
353.199859
30
0
10
62.696737
20
353.622124
30
0
10
62.75832
20
353.962554
30
0
10
63.177282
20
353.962072
30
0
0
LINE
5
B6
100
AcDbEntity
8
cut
6
ByLayer
62
7
370
-1
100
AcDbLine
10
63.177282
20
353.962072
11
77.662959
21
353.945466
0
SPLINE
5
B7
100
AcDbEntity
8
cut
6
ByLayer
62
7
370
-1
100
AcDbSpline
210
0
220
0
230
1
70
8
71
3
72
8
73
4
74
0
42
1e-07
43
1e-07
40
0
40
0
40
0
40
0
40
1
40
1
40
1
40
1
10
77.662959
20
353.945466
30
0
10
77.689604
20
353.978978
30
0
10
77.68238
20
354.072956
30
0
10
77.626695
20
354.175335
30
0
0
SPLINE
5
B8
100
AcDbEntity
8
cut
6
ByLayer
62
7
370
-1
100
AcDbSpline
210
0
220
0
230
1
70
8
71
3
72
8
73
4
74
0
42
1e-07
43
1e-07
40
0
40
0
40
0
40
0
40
1
40
1
40
1
40
1
10
77.626695
20
354.175335
30
0
10
77.583714
20
354.255479
30
0
10
77.510559
20
354.332123
30
0
10
77.422845
20
354.378944
30
0
0
LINE
5
B9
100
AcDbEntity
8
cut
6
ByLayer
62
7
370
-1
100
AcDbLine
10
72.68843
20
374.146904
11
72.68843
21
359.45765
0
SPLINE
5
BA
100
AcDbEntity
8
cut
6
ByLayer
62
7
370
-1
100
AcDbSpline
210
0
220
0
230
1
70
8
71
3
72
8
73
4
74
0
42
1e-07
43
1e-07
40
0
40
0
40
0
40
0
40
1
40
1
40
1
40
1
10
72.68843
20
374.146904
30
0
10
68.573887
20
375.734789
30
0
10
64.022379
20
375.734789
30
0
10
59.907837
20
374.146904
30
0
0
LINE
5
BB
100
AcDbEntity
8
cut
6
ByLayer
62
7
370
-1
100
AcDbLine
10
77.422834
20
354.378866
11
77.380575
21
354.4018
0
LINE
5
BC
100
AcDbEntity
8
cut
6
ByLayer
62
7
370
-1
100
AcDbLine
10
77.380575
20
354.4018
11
77.337787
21
354.425043
0
LINE
5
BD
100
AcDbEntity
8
cut
6
ByLayer
62
7
370
-1
100
AcDbLine
10
77.337787
20
354.425043
11
77.294528
21
354.448537
0
LINE
5
BE
100
AcDbEntity
8
cut
6
ByLayer
62
7
370
-1
100
AcDbLine
10
77.294528
20
354.448537
11
77.250824
21
354.472256
0
LINE
5
BF
100
AcDbEntity
8
cut
6
ByLayer
62
7
370
-1
100
AcDbLine
10
77.250824
20
354.472256
11
77.206731
21
354.496198
0
LINE
5
C0
100
AcDbEntity
8
cut
6
ByLayer
62
7
370
-1
100
AcDbLine
10
77.206731
20
354.496198
11
77.162276
21
354.520337
0
LINE
5
C1
100
AcDbEntity
8
cut
6
ByLayer
62
7
370
-1
100
AcDbLine
10
77.162276
20
354.520337
11
77.117489
21
354.544644
0
LINE
5
C2
100
AcDbEntity
8
cut
6
ByLayer
62
7
370
-1
100
AcDbLine
10
77.117489
20
354.544644
11
77.072423
21
354.569118
0
LINE
5
C3
100
AcDbEntity
8
cut
6
ByLayer
62
7
370
-1
100
AcDbLine
10
77.072423
20
354.569118
11
77.027136
21
354.593705
0
LINE
5
C4
100
AcDbEntity
8
cut
6
ByLayer
62
7
370
-1
100
AcDbLine
10
77.027136
20
354.593705
11
76.981626
21
354.618403
0
LINE
5
C5
100
AcDbEntity
8
cut
6
ByLayer
62
7
370
-1
100
AcDbLine
10
76.981626
20
354.618403
11
76.935977
21
354.643186
0
LINE
5
C6
100
AcDbEntity
8
cut
6
ByLayer
62
7
370
-1
100
AcDbLine
10
76.935977
20
354.643186
11
76.890189
21
354.668053
0
LINE
5
C7
100
AcDbEntity
8
cut
6
ByLayer
62
7
370
-1
100
AcDbLine
10
76.890189
20
354.668053
11
76.844318
21
354.692947
0
LINE
5
C8
100
AcDbEntity
8
cut
6
ByLayer
62
7
370
-1
100
AcDbLine
10
76.844318
20
354.692947
11
76.798419
21
354.71787
0
SPLINE
5
C9
100
AcDbEntity
8
cut
6
ByLayer
62
1
370
-1
100
AcDbSpline
210
0
220
0
230
1
70
8
71
3
72
8
73
4
74
0
42
1e-07
43
1e-07
40
0
40
0
40
0
40
0
40
1
40
1
40
1
40
1
10
75.441608
20
352.270821
30
0
10
75.441608
20
352.021783
30
0
10
75.239723
20
351.819895
30
0
10
74.990682
20
351.819895
30
0
0
SPLINE
5
CA
100
AcDbEntity
8
cut
6
ByLayer
62
1
370
-1
100
AcDbSpline
210
0
220
0
230
1
70
8
71
3
72
8
73
4
74
0
42
1e-07
43
1e-07
40
0
40
0
40
0
40
0
40
1
40
1
40
1
40
1
10
74.990682
20
351.819895
30
0
10
74.741643
20
351.819895
30
0
10
74.539756
20
352.021783
30
0
10
74.539756
20
352.270821
30
0
0
SPLINE
5
CB
100
AcDbEntity
8
cut
6
ByLayer
62
1
370
-1
100
AcDbSpline
210
0
220
0
230
1
70
8
71
3
72
8
73
4
74
0
42
1e-07
43
1e-07
40
0
40
0
40
0
40
0
40
1
40
1
40
1
40
1
10
74.539756
20
352.270821
30
0
10
74.539756
20
352.519863
30
0
10
74.741643
20
352.721748
30
0
10
74.990682
20
352.721748
30
0
0
SPLINE
5
CC
100
AcDbEntity
8
cut
6
ByLayer
62
1
370
-1
100
AcDbSpline
210
0
220
0
230
1
70
8
71
3
72
8
73
4
74
0
42
1e-07
43
1e-07
40
0
40
0
40
0
40
0
40
1
40
1
40
1
40
1
10
74.990682
20
352.721748
30
0
10
75.239723
20
352.721748
30
0
10
75.441608
20
352.519863
30
0
10
75.441608
20
352.270821
30
0
0
LINE
5
CD
100
AcDbEntity
8
cut
6
ByLayer
62
1
370
-1
100
AcDbLine
10
75.441608
20
352.270821
11
75.441608
21
352.270821
0
SPLINE
5
CE
100
AcDbEntity
8
cut
6
ByLayer
62
1
370
-1
100
AcDbSpline
210
0
220
0
230
1
70
8
71
3
72
8
73
4
74
0
42
1e-07
43
1e-07
40
0
40
0
40
0
40
0
40
1
40
1
40
1
40
1
10
76.092254
20
352.270821
30
0
10
76.092254
20
351.662441
30
0
10
75.599063
20
351.169249
30
0
10
74.990682
20
351.169249
30
0
0
SPLINE
5
CF
100
AcDbEntity
8
cut
6
ByLayer
62
1
370
-1
100
AcDbSpline
210
0
220
0
230
1
70
8
71
3
72
8
73
4
74
0
42
1e-07
43
1e-07
40
0
40
0
40
0
40
0
40
1
40
1
40
1
40
1
10
74.990682
20
351.169249
30
0
10
74.382301
20
351.169249
30
0
10
73.889109
20
351.662441
30
0
10
73.889109
20
352.270821
30
0
0
SPLINE
5
D0
100
AcDbEntity
8
cut
6
ByLayer
62
1
370
-1
100
AcDbSpline
210
0
220
0
230
1
70
8
71
3
72
8
73
4
74
0
42
1e-07
43
1e-07
40
0
40
0
40
0
40
0
40
1
40
1
40
1
40
1
10
73.889109
20
352.270821
30
0
10
73.889109
20
352.879202
30
0
10
74.382301
20
353.372394
30
0
10
74.990682
20
353.372394
30
0
0
SPLINE
5
D1
100
AcDbEntity
8
cut
6
ByLayer
62
1
370
-1
100
AcDbSpline
210
0
220
0
230
1
70
8
71
3
72
8
73
4
74
0
42
1e-07
43
1e-07
40
0
40
0
40
0
40
0
40
1
40
1
40
1
40
1
10
74.990682
20
353.372394
30
0
10
75.599063
20
353.372394
30
0
10
76.092254
20
352.879202
30
0
10
76.092254
20
352.270821
30
0
0
LINE
5
D2
100
AcDbEntity
8
cut
6
ByLayer
62
1
370
-1
100
AcDbLine
10
76.092254
20
352.270821
11
76.092254
21
352.270821
0
SPLINE
5
D3
100
AcDbEntity
8
cut
6
ByLayer
62
1
370
-1
100
AcDbSpline
210
0
220
0
230
1
70
8
71
3
72
8
73
4
74
0
42
1e-07
43
1e-07
40
0
40
0
40
0
40
0
40
1
40
1
40
1
40
1
10
70.865956
20
352.08875
30
0
10
70.865956
20
351.839712
30
0
10
70.664071
20
351.637824
30
0
10
70.41503
20
351.637824
30
0
0
SPLINE
5
D4
100
AcDbEntity
8
cut
6
ByLayer
62
1
370
-1
100
AcDbSpline
210
0
220
0
230
1
70
8
71
3
72
8
73
4
74
0
42
1e-07
43
1e-07
40
0
40
0
40
0
40
0
40
1
40
1
40
1
40
1
10
70.41503
20
351.637824
30
0
10
70.165991
20
351.637824
30
0
10
69.964104
20
351.839712
30
0
10
69.964104
20
352.08875
30
0
0
SPLINE
5
D5
100
AcDbEntity
8
cut
6
ByLayer
62
1
370
-1
100
AcDbSpline
210
0
220
0
230
1
70
8
71
3
72
8
73
4
74
0
42
1e-07
43
1e-07
40
0
40
0
40
0
40
0
40
1
40
1
40
1
40
1
10
69.964104
20
352.08875
30
0
10
69.964104
20
352.337791
30
0
10
70.165991
20
352.539676
30
0
10
70.41503
20
352.539676
30
0
0
SPLINE
5
D6
100
AcDbEntity
8
cut
6
ByLayer
62
1
370
-1
100
AcDbSpline
210
0
220
0
230
1
70
8
71
3
72
8
73
4
74
0
42
1e-07
43
1e-07
40
0
40
0
40
0
40
0
40
1
40
1
40
1
40
1
10
70.41503
20
352.539676
30
0
10
70.664071
20
352.539676
30
0
10
70.865956
20
352.337791
30
0
10
70.865956
20
352.08875
30
0
0
LINE
5
D7
100
AcDbEntity
8
cut
6
ByLayer
62
1
370
-1
100
AcDbLine
10
70.865956
20
352.08875
11
70.865956
21
352.08875
0
SPLINE
5
D8
100
AcDbEntity
8
cut
6
ByLayer
62
1
370
-1
100
AcDbSpline
210
0
220
0
230
1
70
8
71
3
72
8
73
4
74
0
42
1e-07
43
1e-07
40
0
40
0
40
0
40
0
40
1
40
1
40
1
40
1
10
71.516602
20
352.08875
30
0
10
71.516602
20
351.480369
30
0
10
71.023411
20
350.987178
30
0
10
70.41503
20
350.987178
30
0
0
SPLINE
5
D9
100
AcDbEntity
8
cut
6
ByLayer
62
1
370
-1
100
AcDbSpline
210
0
220
0
230
1
70
8
71
3
72
8
73
4
74
0
42
1e-07
43
1e-07
40
0
40
0
40
0
40
0
40
1
40
1
40
1
40
1
10
70.41503
20
350.987178
30
0
10
69.806649
20
350.987178
30
0
10
69.313457
20
351.480369
30
0
10
69.313457
20
352.08875
30
0
0
SPLINE
5
DA
100
AcDbEntity
8
cut
6
ByLayer
62
1
370
-1
100
AcDbSpline
210
0
220
0
230
1
70
8
71
3
72
8
73
4
74
0
42
1e-07
43
1e-07
40
0
40
0
40
0
40
0
40
1
40
1
40
1
40
1
10
69.313457
20
352.08875
30
0
10
69.313457
20
352.697131
30
0
10
69.806649
20
353.190323
30
0
10
70.41503
20
353.190323
30
0
0
SPLINE
5
DB
100
AcDbEntity
8
cut
6
ByLayer
62
1
370
-1
100
AcDbSpline
210
0
220
0
230
1
70
8
71
3
72
8
73
4
74
0
42
1e-07
43
1e-07
40
0
40
0
40
0
40
0
40
1
40
1
40
1
40
1
10
70.41503
20
353.190323
30
0
10
71.023411
20
353.190323
30
0
10
71.516602
20
352.697131
30
0
10
71.516602
20
352.08875
30
0
0
LINE
5
DC
100
AcDbEntity
8
cut
6
ByLayer
62
1
370
-1
100
AcDbLine
10
71.516602
20
352.08875
11
71.516602
21
352.08875
0
SPLINE
5
DD
100
AcDbEntity
8
cut
6
ByLayer
62
1
370
-1
100
AcDbSpline
210
0
220
0
230
1
70
8
71
3
72
8
73
4
74
0
42
1e-07
43
1e-07
40
0
40
0
40
0
40
0
40
1
40
1
40
1
40
1
10
73.651646
20
349.967198
30
0
10
73.651646
20
349.718159
30
0
10
73.449761
20
349.516271
30
0
10
73.20072
20
349.516271
30
0
0
SPLINE
5
DE
100
AcDbEntity
8
cut
6
ByLayer
62
1
370
-1
100
AcDbSpline
210
0
220
0
230
1
70
8
71
3
72
8
73
4
74
0
42
1e-07
43
1e-07
40
0
40
0
40
0
40
0
40
1
40
1
40
1
40
1
10
73.20072
20
349.516271
30
0
10
72.951681
20
349.516271
30
0
10
72.749794
20
349.718159
30
0
10
72.749794
20
349.967198
30
0
0
SPLINE
5
DF
100
AcDbEntity
8
cut
6
ByLayer
62
1
370
-1
100
AcDbSpline
210
0
220
0
230
1
70
8
71
3
72
8
73
4
74
0
42
1e-07
43
1e-07
40
0
40
0
40
0
40
0
40
1
40
1
40
1
40
1
10
72.749794
20
349.967198
30
0
10
72.749794
20
350.216239
30
0
10
72.951681
20
350.418124
30
0
10
73.20072
20
350.418124
30
0
0
SPLINE
5
E0
100
AcDbEntity
8
cut
6
ByLayer
62
1
370
-1
100
AcDbSpline
210
0
220
0
230
1
70
8
71
3
72
8
73
4
74
0
42
1e-07
43
1e-07
40
0
40
0
40
0
40
0
40
1
40
1
40
1
40
1
10
73.20072
20
350.418124
30
0
10
73.449761
20
350.418124
30
0
10
73.651646
20
350.216239
30
0
10
73.651646
20
349.967198
30
0
0
LINE
5
E1
100
AcDbEntity
8
cut
6
ByLayer
62
1
370
-1
100
AcDbLine
10
73.651646
20
349.967198
11
73.651646
21
349.967198
0
SPLINE
5
E2
100
AcDbEntity
8
cut
6
ByLayer
62
1
370
-1
100
AcDbSpline
210
0
220
0
230
1
70
8
71
3
72
8
73
4
74
0
42
1e-07
43
1e-07
40
0
40
0
40
0
40
0
40
1
40
1
40
1
40
1
10
74.302293
20
349.967198
30
0
10
74.302293
20
349.358817
30
0
10
73.809101
20
348.865625
30
0
10
73.20072
20
348.865625
30
0
0
SPLINE
5
E3
100
AcDbEntity
8
cut
6
ByLayer
62
1
370
-1
100
AcDbSpline
210
0
220
0
230
1
70
8
71
3
72
8
73
4
74
0
42
1e-07
43
1e-07
40
0
40
0
40
0
40
0
40
1
40
1
40
1
40
1
10
73.20072
20
348.865625
30
0
10
72.592339
20
348.865625
30
0
10
72.099147
20
349.358817
30
0
10
72.099147
20
349.967198
30
0
0
SPLINE
5
E4
100
AcDbEntity
8
cut
6
ByLayer
62
1
370
-1
100
AcDbSpline
210
0
220
0
230
1
70
8
71
3
72
8
73
4
74
0
42
1e-07
43
1e-07
40
0
40
0
40
0
40
0
40
1
40
1
40
1
40
1
10
72.099147
20
349.967198
30
0
10
72.099147
20
350.575578
30
0
10
72.592339
20
351.06877
30
0
10
73.20072
20
351.06877
30
0
0
SPLINE
5
E5
100
AcDbEntity
8
cut
6
ByLayer
62
1
370
-1
100
AcDbSpline
210
0
220
0
230
1
70
8
71
3
72
8
73
4
74
0
42
1e-07
43
1e-07
40
0
40
0
40
0
40
0
40
1
40
1
40
1
40
1
10
73.20072
20
351.06877
30
0
10
73.809101
20
351.06877
30
0
10
74.302293
20
350.575578
30
0
10
74.302293
20
349.967198
30
0
0
LINE
5
E6
100
AcDbEntity
8
cut
6
ByLayer
62
1
370
-1
100
AcDbLine
10
74.302293
20
349.967198
11
74.302293
21
349.967198
0
SPLINE
5
E7
100
AcDbEntity
8
cut
6
ByLayer
62
1
370
-1
100
AcDbSpline
210
0
220
0
230
1
70
8
71
3
72
8
73
4
74
0
42
1e-07
43
1e-07
40
0
40
0
40
0
40
0
40
1
40
1
40
1
40
1
10
68.486128
20
350.077887
30
0
10
68.486128
20
349.828849
30
0
10
68.284243
20
349.626961
30
0
10
68.035202
20
349.626961
30
0
0
SPLINE
5
E8
100
AcDbEntity
8
cut
6
ByLayer
62
1
370
-1
100
AcDbSpline
210
0
220
0
230
1
70
8
71
3
72
8
73
4
74
0
42
1e-07
43
1e-07
40
0
40
0
40
0
40
0
40
1
40
1
40
1
40
1
10
68.035202
20
349.626961
30
0
10
67.786163
20
349.626961
30
0
10
67.584275
20
349.828849
30
0
10
67.584275
20
350.077887
30
0
0
SPLINE
5
E9
100
AcDbEntity
8
cut
6
ByLayer
62
1
370
-1
100
AcDbSpline
210
0
220
0
230
1
70
8
71
3
72
8
73
4
74
0
42
1e-07
43
1e-07
40
0
40
0
40
0
40
0
40
1
40
1
40
1
40
1
10
67.584275
20
350.077887
30
0
10
67.584275
20
350.326929
30
0
10
67.786163
20
350.528814
30
0
10
68.035202
20
350.528814
30
0
0
SPLINE
5
EA
100
AcDbEntity
8
cut
6
ByLayer
62
1
370
-1
100
AcDbSpline
210
0
220
0
230
1
70
8
71
3
72
8
73
4
74
0
42
1e-07
43
1e-07
40
0
40
0
40
0
40
0
40
1
40
1
40
1
40
1
10
68.035202
20
350.528814
30
0
10
68.284243
20
350.528814
30
0
10
68.486128
20
350.326929
30
0
10
68.486128
20
350.077887
30
0
0
LINE
5
EB
100
AcDbEntity
8
cut
6
ByLayer
62
1
370
-1
100
AcDbLine
10
68.486128
20
350.077887
11
68.486128
21
350.077887
0
SPLINE
5
EC
100
AcDbEntity
8
cut
6
ByLayer
62
1
370
-1
100
AcDbSpline
210
0
220
0
230
1
70
8
71
3
72
8
73
4
74
0
42
1e-07
43
1e-07
40
0
40
0
40
0
40
0
40
1
40
1
40
1
40
1
10
69.136774
20
350.077887
30
0
10
69.136774
20
349.469507
30
0
10
68.643582
20
348.976315
30
0
10
68.035202
20
348.976315
30
0
0
SPLINE
5
ED
100
AcDbEntity
8
cut
6
ByLayer
62
1
370
-1
100
AcDbSpline
210
0
220
0
230
1
70
8
71
3
72
8
73
4
74
0
42
1e-07
43
1e-07
40
0
40
0
40
0
40
0
40
1
40
1
40
1
40
1
10
68.035202
20
348.976315
30
0
10
67.426821
20
348.976315
30
0
10
66.933629
20
349.469507
30
0
10
66.933629
20
350.077887
30
0
0
SPLINE
5
EE
100
AcDbEntity
8
cut
6
ByLayer
62
1
370
-1
100
AcDbSpline
210
0
220
0
230
1
70
8
71
3
72
8
73
4
74
0
42
1e-07
43
1e-07
40
0
40
0
40
0
40
0
40
1
40
1
40
1
40
1
10
66.933629
20
350.077887
30
0
10
66.933629
20
350.686268
30
0
10
67.426821
20
351.17946
30
0
10
68.035202
20
351.17946
30
0
0
SPLINE
5
EF
100
AcDbEntity
8
cut
6
ByLayer
62
1
370
-1
100
AcDbSpline
210
0
220
0
230
1
70
8
71
3
72
8
73
4
74
0
42
1e-07
43
1e-07
40
0
40
0
40
0
40
0
40
1
40
1
40
1
40
1
10
68.035202
20
351.17946
30
0
10
68.643582
20
351.17946
30
0
10
69.136774
20
350.686268
30
0
10
69.136774
20
350.077887
30
0
0
LINE
5
F0
100
AcDbEntity
8
cut
6
ByLayer
62
1
370
-1
100
AcDbLine
10
69.136774
20
350.077887
11
69.136774
21
350.077887
0
SPLINE
5
F1
100
AcDbEntity
8
cut
6
ByLayer
62
1
370
-1
100
AcDbSpline
210
0
220
0
230
1
70
8
71
3
72
8
73
4
74
0
42
1e-07
43
1e-07
40
0
40
0
40
0
40
0
40
1
40
1
40
1
40
1
10
66.346127
20
352.162543
30
0
10
66.346127
20
351.913505
30
0
10
66.144242
20
351.711617
30
0
10
65.895201
20
351.711617
30
0
0
SPLINE
5
F2
100
AcDbEntity
8
cut
6
ByLayer
62
1
370
-1
100
AcDbSpline
210
0
220
0
230
1
70
8
71
3
72
8
73
4
74
0
42
1e-07
43
1e-07
40
0
40
0
40
0
40
0
40
1
40
1
40
1
40
1
10
65.895201
20
351.711617
30
0
10
65.646162
20
351.711617
30
0
10
65.444275
20
351.913505
30
0
10
65.444275
20
352.162543
30
0
0
SPLINE
5
F3
100
AcDbEntity
8
cut
6
ByLayer
62
1
370
-1
100
AcDbSpline
210
0
220
0
230
1
70
8
71
3
72
8
73
4
74
0
42
1e-07
43
1e-07
40
0
40
0
40
0
40
0
40
1
40
1
40
1
40
1
10
65.444275
20
352.162543
30
0
10
65.444275
20
352.411585
30
0
10
65.646162
20
352.613469
30
0
10
65.895201
20
352.613469
30
0
0
SPLINE
5
F4
100
AcDbEntity
8
cut
6
ByLayer
62
1
370
-1
100
AcDbSpline
210
0
220
0
230
1
70
8
71
3
72
8
73
4
74
0
42
1e-07
43
1e-07
40
0
40
0
40
0
40
0
40
1
40
1
40
1
40
1
10
65.895201
20
352.613469
30
0
10
66.144242
20
352.613469
30
0
10
66.346127
20
352.411585
30
0
10
66.346127
20
352.162543
30
0
0
LINE
5
F5
100
AcDbEntity
8
cut
6
ByLayer
62
1
370
-1
100
AcDbLine
10
66.346127
20
352.162543
11
66.346127
21
352.162543
0
SPLINE
5
F6
100
AcDbEntity
8
cut
6
ByLayer
62
1
370
-1
100
AcDbSpline
210
0
220
0
230
1
70
8
71
3
72
8
73
4
74
0
42
1e-07
43
1e-07
40
0
40
0
40
0
40
0
40
1
40
1
40
1
40
1
10
66.996773
20
352.162543
30
0
10
66.996773
20
351.554162
30
0
10
66.503582
20
351.060971
30
0
10
65.895201
20
351.060971
30
0
0
SPLINE
5
F7
100
AcDbEntity
8
cut
6
ByLayer
62
1
370
-1
100
AcDbSpline
210
0
220
0
230
1
70
8
71
3
72
8
73
4
74
0
42
1e-07
43
1e-07
40
0
40
0
40
0
40
0
40
1
40
1
40
1
40
1
10
65.895201
20
351.060971
30
0
10
65.28682
20
351.060971
30
0
10
64.793628
20
351.554162
30
0
10
64.793628
20
352.162543
30
0
0
SPLINE
5
F8
100
AcDbEntity
8
cut
6
ByLayer
62
1
370
-1
100
AcDbSpline
210
0
220
0
230
1
70
8
71
3
72
8
73
4
74
0
42
1e-07
43
1e-07
40
0
40
0
40
0
40
0
40
1
40
1
40
1
40
1
10
64.793628
20
352.162543
30
0
10
64.793628
20
352.770924
30
0
10
65.28682
20
353.264116
30
0
10
65.895201
20
353.264116
30
0
0
SPLINE
5
F9
100
AcDbEntity
8
cut
6
ByLayer
62
1
370
-1
100
AcDbSpline
210
0
220
0
230
1
70
8
71
3
72
8
73
4
74
0
42
1e-07
43
1e-07
40
0
40
0
40
0
40
0
40
1
40
1
40
1
40
1
10
65.895201
20
353.264116
30
0
10
66.503582
20
353.264116
30
0
10
66.996773
20
352.770924
30
0
10
66.996773
20
352.162543
30
0
0
LINE
5
FA
100
AcDbEntity
8
cut
6
ByLayer
62
1
370
-1
100
AcDbLine
10
66.996773
20
352.162543
11
66.996773
21
352.162543
0
SPLINE
5
FB
100
AcDbEntity
8
engrave
6
ByLayer
62
7
370
-1
100
AcDbSpline
210
0
220
0
230
1
70
8
71
3
72
8
73
4
74
0
42
1e-07
43
1e-07
40
0
40
0
40
0
40
0
40
1
40
1
40
1
40
1
10
65.247781
20
366.343695
30
0
10
64.435258
20
366.302366
30
0
10
63.786712
20
365.628072
30
0
10
63.786712
20
364.805466
30
0
0
SPLINE
5
FC
100
AcDbEntity
8
engrave
6
ByLayer
62
7
370
-1
100
AcDbSpline
210
0
220
0
230
1
70
8
71
3
72
8
73
4
74
0
42
1e-07
43
1e-07
40
0
40
0
40
0
40
0
40
1
40
1
40
1
40
1
10
63.786712
20
364.805466
30
0
10
63.786712
20
363.956324
30
0
10
64.478288
20
363.264748
30
0
10
65.32743
20
363.264748
30
0
0
SPLINE
5
FD
100
AcDbEntity
8
engrave
6
ByLayer
62
7
370
-1
100
AcDbSpline
210
0
220
0
230
1
70
8
71
3
72
8
73
4
74
0
42
1e-07
43
1e-07
40
0
40
0
40
0
40
0
40
1
40
1
40
1
40
1
10
65.32743
20
363.264748
30
0
10
66.139273
20
363.264748
30
0
10
66.80612
20
363.895888
30
0
10
66.86317
20
364.693459
30
0
0
LINE
5
FE
100
AcDbEntity
8
engrave
6
ByLayer
62
7
370
-1
100
AcDbLine
10
66.86317
20
364.693459
11
67.818962
21
364.693459
0
SPLINE
5
FF
100
AcDbEntity
8
engrave
6
ByLayer
62
7
370
-1
100
AcDbSpline
210
0
220
0
230
1
70
8
71
3
72
8
73
4
74
0
42
1e-07
43
1e-07
40
0
40
0
40
0
40
0
40
1
40
1
40
1
40
1
10
67.818962
20
364.693459
30
0
10
67.874709
20
364.110902
30
0
10
68.36717
20
363.653039
30
0
10
68.963922
20
363.653039
30
0
0
SPLINE
5
100
100
AcDbEntity
8
engrave
6
ByLayer
62
7
370
-1
100
AcDbSpline
210
0
220
0
230
1
70
8
71
3
72
8
73
4
74
0
42
1e-07
43
1e-07
40
0
40
0
40
0
40
0
40
1
40
1
40
1
40
1
10
68.963922
20
363.653039
30
0
10
69.560666
20
363.653039
30
0
10
70.053128
20
364.11091
30
0
10
70.108882
20
364.693459
30
0
0
LINE
5
101
100
AcDbEntity
8
engrave
6
ByLayer
62
7
370
-1
100
AcDbLine
10
70.108882
20
364.693459
11
70.308005
21
364.693459
0
SPLINE
5
102
100
AcDbEntity
8
engrave
6
ByLayer
62
7
370
-1
100
AcDbSpline
210
0
220
0
230
1
70
8
71
3
72
8
73
4
74
0
42
1e-07
43
1e-07
40
0
40
0
40
0
40
0
40
1
40
1
40
1
40
1
10
70.308005
20
364.693459
30
0
10
70.352594
20
364.579959
30
0
10
70.462435
20
364.499314
30
0
10
70.591756
20
364.499314
30
0
0
SPLINE
5
103
100
AcDbEntity
8
engrave
6
ByLayer
62
7
370
-1
100
AcDbSpline
210
0
220
0
230
1
70
8
71
3
72
8
73
4
74
0
42
1e-07
43
1e-07
40
0
40
0
40
0
40
0
40
1
40
1
40
1
40
1
10
70.591756
20
364.499314
30
0
10
70.760486
20
364.499314
30
0
10
70.897909
20
364.636734
30
0
10
70.897909
20
364.805466
30
0
0
SPLINE
5
104
100
AcDbEntity
8
engrave
6
ByLayer
62
7
370
-1
100
AcDbSpline
210
0
220
0
230
1
70
8
71
3
72
8
73
4
74
0
42
1e-07
43
1e-07
40
0
40
0
40
0
40
0
40
1
40
1
40
1
40
1
10
70.897909
20
364.805466
30
0
10
70.897909
20
364.974196
30
0
10
70.760486
20
365.109129
30
0
10
70.591756
20
365.109129
30
0
0
SPLINE
5
105
100
AcDbEntity
8
engrave
6
ByLayer
62
7
370
-1
100
AcDbSpline
210
0
220
0
230
1
70
8
71
3
72
8
73
4
74
0
42
1e-07
43
1e-07
40
0
40
0
40
0
40
0
40
1
40
1
40
1
40
1
10
70.591756
20
365.109129
30
0
10
70.462435
20
365.109129
30
0
10
70.352594
20
365.028484
30
0
10
70.308005
20
364.914984
30
0
0
LINE
5
106
100
AcDbEntity
8
engrave
6
ByLayer
62
7
370
-1
100
AcDbLine
10
70.308005
20
364.914984
11
70.108882
21
364.914984
0
SPLINE
5
107
100
AcDbEntity
8
engrave
6
ByLayer
62
7
370
-1
100
AcDbSpline
210
0
220
0
230
1
70
8
71
3
72
8
73
4
74
0
42
1e-07
43
1e-07
40
0
40
0
40
0
40
0
40
1
40
1
40
1
40
1
10
70.108882
20
364.914984
30
0
10
70.053199
20
365.497606
30
0
10
69.560719
20
365.955404
30
0
10
68.963922
20
365.955404
30
0
0
SPLINE
5
108
100
AcDbEntity
8
engrave
6
ByLayer
62
7
370
-1
100
AcDbSpline
210
0
220
0
230
1
70
8
71
3
72
8
73
4
74
0
42
1e-07
43
1e-07
40
0
40
0
40
0
40
0
40
1
40
1
40
1
40
1
10
68.963922
20
365.955404
30
0
10
68.367117
20
365.955404
30
0
10
67.874637
20
365.497614
30
0
10
67.818962
20
364.914984
30
0
0
LINE
5
109
100
AcDbEntity
8
engrave
6
ByLayer
62
7
370
-1
100
AcDbLine
10
67.818962
20
364.914984
11
66.86317
21
364.914984
0
SPLINE
5
10A
100
AcDbEntity
8
engrave
6
ByLayer
62
7
370
-1
100
AcDbSpline
210
0
220
0
230
1
70
8
71
3
72
8
73
4
74
0
42
1e-07
43
1e-07
40
0
40
0
40
0
40
0
40
1
40
1
40
1
40
1
10
66.86317
20
364.914984
30
0
10
66.80612
20
365.712555
30
0
10
66.139273
20
366.343695
30
0
10
65.32743
20
366.343695
30
0
0
SPLINE
5
10B
100
AcDbEntity
8
engrave
6
ByLayer
62
7
370
-1
100
AcDbSpline
210
0
220
0
230
1
70
8
71
3
72
8
73
4
74
0
42
1e-07
43
1e-07
40
0
40
0
40
0
40
0
40
1
40
1
40
1
40
1
10
65.32743
20
366.343695
30
0
10
65.300894
20
366.343695
30
0
10
65.273991
20
366.345025
30
0
10
65.247781
20
366.343695
30
0
0
LINE
5
10C
100
AcDbEntity
8
engrave
6
ByLayer
62
7
370
-1
100
AcDbLine
10
65.247781
20
366.343695
11
65.247781
21
366.343695
0
SPLINE
5
10D
100
AcDbEntity
8
engrave
6
ByLayer
62
7
370
-1
100
AcDbSpline
210
0
220
0
230
1
70
8
71
3
72
8
73
4
74
0
42
1e-07
43
1e-07
40
0
40
0
40
0
40
0
40
1
40
1
40
1
40
1
10
65.32743
20
366.112214
30
0
10
66.05074
20
366.112214
30
0
10
66.634178
20
365.528776
30
0
10
66.634178
20
364.805466
30
0
0
SPLINE
5
10E
100
AcDbEntity
8
engrave
6
ByLayer
62
7
370
-1
100
AcDbSpline
210
0
220
0
230
1
70
8
71
3
72
8
73
4
74
0
42
1e-07
43
1e-07
40
0
40
0
40
0
40
0
40
1
40
1
40
1
40
1
10
66.634178
20
364.805466
30
0
10
66.634178
20
364.082156
30
0
10
66.05074
20
363.496229
30
0
10
65.32743
20
363.496229
30
0
0
SPLINE
5
10F
100
AcDbEntity
8
engrave
6
ByLayer
62
7
370
-1
100
AcDbSpline
210
0
220
0
230
1
70
8
71
3
72
8
73
4
74
0
42
1e-07
43
1e-07
40
0
40
0
40
0
40
0
40
1
40
1
40
1
40
1
10
65.32743
20
363.496229
30
0
10
64.604119
20
363.496229
30
0
10
64.018193
20
364.082156
30
0
10
64.018193
20
364.805466
30
0
0
SPLINE
5
110
100
AcDbEntity
8
engrave
6
ByLayer
62
7
370
-1
100
AcDbSpline
210
0
220
0
230
1
70
8
71
3
72
8
73
4
74
0
42
1e-07
43
1e-07
40
0
40
0
40
0
40
0
40
1
40
1
40
1
40
1
10
64.018193
20
364.805466
30
0
10
64.018193
20
365.528776
30
0
10
64.604119
20
366.112214
30
0
10
65.32743
20
366.112214
30
0
0
LINE
5
111
100
AcDbEntity
8
engrave
6
ByLayer
62
7
370
-1
100
AcDbLine
10
65.32743
20
366.112214
11
65.32743
21
366.112214
0
SPLINE
5
112
100
AcDbEntity
8
engrave
6
ByLayer
62
7
370
-1
100
AcDbSpline
210
0
220
0
230
1
70
8
71
3
72
8
73
4
74
0
42
1e-07
43
1e-07
40
0
40
0
40
0
40
0
40
1
40
1
40
1
40
1
10
68.963922
20
365.7065
30
0
10
69.463131
20
365.7065
30
0
10
69.864956
20
365.304677
30
0
10
69.864956
20
364.805466
30
0
0
SPLINE
5
113
100
AcDbEntity
8
engrave
6
ByLayer
62
7
370
-1
100
AcDbSpline
210
0
220
0
230
1
70
8
71
3
72
8
73
4
74
0
42
1e-07
43
1e-07
40
0
40
0
40
0
40
0
40
1
40
1
40
1
40
1
10
69.864956
20
364.805466
30
0
10
69.864956
20
364.306257
30
0
10
69.463131
20
363.904432
30
0
10
68.963922
20
363.904432
30
0
0
SPLINE
5
114
100
AcDbEntity
8
engrave
6
ByLayer
62
7
370
-1
100
AcDbSpline
210
0
220
0
230
1
70
8
71
3
72
8
73
4
74
0
42
1e-07
43
1e-07
40
0
40
0
40
0
40
0
40
1
40
1
40
1
40
1
10
68.963922
20
363.904432
30
0
10
68.464711
20
363.904432
30
0
10
68.062888
20
364.306257
30
0
10
68.062888
20
364.805466
30
0
0
SPLINE
5
115
100
AcDbEntity
8
engrave
6
ByLayer
62
7
370
-1
100
AcDbSpline
210
0
220
0
230
1
70
8
71
3
72
8
73
4
74
0
42
1e-07
43
1e-07
40
0
40
0
40
0
40
0
40
1
40
1
40
1
40
1
10
68.062888
20
364.805466
30
0
10
68.062888
20
365.304677
30
0
10
68.464711
20
365.7065
30
0
10
68.963922
20
365.7065
30
0
0
LINE
5
116
100
AcDbEntity
8
engrave
6
ByLayer
62
7
370
-1
100
AcDbLine
10
68.963922
20
365.7065
11
68.963922
21
365.7065
0
SPLINE
5
117
100
AcDbEntity
8
engrave
6
ByLayer
62
7
370
-1
100
AcDbSpline
210
0
220
0
230
1
70
8
71
3
72
8
73
4
74
0
42
1e-07
43
1e-07
40
0
40
0
40
0
40
0
40
1
40
1
40
1
40
1
10
65.32743
20
370.099661
30
0
10
64.450213
20
370.099661
30
0
10
63.734442
20
369.386379
30
0
10
63.734442
20
368.509162
30
0
0
SPLINE
5
118
100
AcDbEntity
8
engrave
6
ByLayer
62
7
370
-1
100
AcDbSpline
210
0
220
0
230
1
70
8
71
3
72
8
73
4
74
0
42
1e-07
43
1e-07
40
0
40
0
40
0
40
0
40
1
40
1
40
1
40
1
10
63.734442
20
368.509162
30
0
10
63.734442
20
367.631946
30
0
10
64.450213
20
366.918664
30
0
10
65.32743
20
366.918664
30
0
0
SPLINE
5
119
100
AcDbEntity
8
engrave
6
ByLayer
62
7
370
-1
100
AcDbSpline
210
0
220
0
230
1
70
8
71
3
72
8
73
4
74
0
42
1e-07
43
1e-07
40
0
40
0
40
0
40
0
40
1
40
1
40
1
40
1
10
65.32743
20
366.918664
30
0
10
66.166941
20
366.918664
30
0
10
66.855199
20
367.572064
30
0
10
66.91295
20
368.397156
30
0
0
LINE
5
11A
100
AcDbEntity
8
engrave
6
ByLayer
62
7
370
-1
100
AcDbLine
10
66.91295
20
368.397156
11
67.818962
21
368.397156
0
SPLINE
5
11B
100
AcDbEntity
8
engrave
6
ByLayer
62
7
370
-1
100
AcDbSpline
210
0
220
0
230
1
70
8
71
3
72
8
73
4
74
0
42
1e-07
43
1e-07
40
0
40
0
40
0
40
0
40
1
40
1
40
1
40
1
10
67.818962
20
368.397156
30
0
10
67.87579
20
367.815698
30
0
10
68.367958
20
367.356735
30
0
10
68.963922
20
367.356735
30
0
0
SPLINE
5
11C
100
AcDbEntity
8
engrave
6
ByLayer
62
7
370
-1
100
AcDbSpline
210
0
220
0
230
1
70
8
71
3
72
8
73
4
74
0
42
1e-07
43
1e-07
40
0
40
0
40
0
40
0
40
1
40
1
40
1
40
1
10
68.963922
20
367.356735
30
0
10
69.55988
20
367.356735
30
0
10
70.052049
20
367.815703
30
0
10
70.108882
20
368.397156
30
0
0
LINE
5
11D
100
AcDbEntity
8
engrave
6
ByLayer
62
7
370
-1
100
AcDbLine
10
70.108882
20
368.397156
11
70.315473
21
368.397156
0
SPLINE
5
11E
100
AcDbEntity
8
engrave
6
ByLayer
62
7
370
-1
100
AcDbSpline
210
0
220
0
230
1
70
8
71
3
72
8
73
4
74
0
42
1e-07
43
1e-07
40
0
40
0
40
0
40
0
40
1
40
1
40
1
40
1
10
70.315473
20
368.397156
30
0
10
70.36422
20
368.293191
30
0
10
70.469338
20
368.220433
30
0
10
70.591756
20
368.220433
30
0
0
SPLINE
5
11F
100
AcDbEntity
8
engrave
6
ByLayer
62
7
370
-1
100
AcDbSpline
210
0
220
0
230
1
70
8
71
3
72
8
73
4
74
0
42
1e-07
43
1e-07
40
0
40
0
40
0
40
0
40
1
40
1
40
1
40
1
10
70.591756
20
368.220433
30
0
10
70.760486
20
368.220433
30
0
10
70.897909
20
368.357854
30
0
10
70.897909
20
368.526586
30
0
0
SPLINE
5
120
100
AcDbEntity
8
engrave
6
ByLayer
62
7
370
-1
100
AcDbSpline
210
0
220
0
230
1
70
8
71
3
72
8
73
4
74
0
42
1e-07
43
1e-07
40
0
40
0
40
0
40
0
40
1
40
1
40
1
40
1
10
70.897909
20
368.526586
30
0
10
70.897909
20
368.695316
30
0
10
70.760486
20
368.832738
30
0
10
70.591756
20
368.832738
30
0
0
SPLINE
5
121
100
AcDbEntity
8
engrave
6
ByLayer
62
7
370
-1
100
AcDbSpline
210
0
220
0
230
1
70
8
71
3
72
8
73
4
74
0
42
1e-07
43
1e-07
40
0
40
0
40
0
40
0
40
1
40
1
40
1
40
1
10
70.591756
20
368.832738
30
0
10
70.45521
20
368.832738
30
0
10
70.342169
20
368.742277
30
0
10
70.303027
20
368.61868
30
0
0
LINE
5
122
100
AcDbEntity
8
engrave
6
ByLayer
62
7
370
-1
100
AcDbLine
10
70.303027
20
368.61868
11
70.108882
21
368.61868
0
SPLINE
5
123
100
AcDbEntity
8
engrave
6
ByLayer
62
7
370
-1
100
AcDbSpline
210
0
220
0
230
1
70
8
71
3
72
8
73
4
74
0
42
1e-07
43
1e-07
40
0
40
0
40
0
40
0
40
1
40
1
40
1
40
1
10
70.108882
20
368.61868
30
0
10
70.053199
20
369.201303
30
0
10
69.560719
20
369.6591
30
0
10
68.963922
20
369.6591
30
0
0
SPLINE
5
124
100
AcDbEntity
8
engrave
6
ByLayer
62
7
370
-1
100
AcDbSpline
210
0
220
0
230
1
70
8
71
3
72
8
73
4
74
0
42
1e-07
43
1e-07
40
0
40
0
40
0
40
0
40
1
40
1
40
1
40
1
10
68.963922
20
369.6591
30
0
10
68.367117
20
369.6591
30
0
10
67.874637
20
369.201311
30
0
10
67.818962
20
368.61868
30
0
0
LINE
5
125
100
AcDbEntity
8
engrave
6
ByLayer
62
7
370
-1
100
AcDbLine
10
67.818962
20
368.61868
11
66.91295
21
368.61868
0
SPLINE
5
126
100
AcDbEntity
8
engrave
6
ByLayer
62
7
370
-1
100
AcDbSpline
210
0
220
0
230
1
70
8
71
3
72
8
73
4
74
0
42
1e-07
43
1e-07
40
0
40
0
40
0
40
0
40
1
40
1
40
1
40
1
10
66.91295
20
368.61868
30
0
10
66.856427
20
369.444958
30
0
10
66.167794
20
370.099661
30
0
10
65.32743
20
370.099661
30
0
0
LINE
5
127
100
AcDbEntity
8
engrave
6
ByLayer
62
7
370
-1
100
AcDbLine
10
65.32743
20
370.099661
11
65.32743
21
370.099661
0
SPLINE
5
128
100
AcDbEntity
8
engrave
6
ByLayer
62
7
370
-1
100
AcDbSpline
210
0
220
0
230
1
70
8
71
3
72
8
73
4
74
0
42
1e-07
43
1e-07
40
0
40
0
40
0
40
0
40
1
40
1
40
1
40
1
10
65.32743
20
369.858224
30
0
10
66.074656
20
369.858224
30
0
10
66.676491
20
369.256388
30
0
10
66.676491
20
368.509162
30
0
0
SPLINE
5
129
100
AcDbEntity
8
engrave
6
ByLayer
62
7
370
-1
100
AcDbSpline
210
0
220
0
230
1
70
8
71
3
72
8
73
4
74
0
42
1e-07
43
1e-07
40
0
40
0
40
0
40
0
40
1
40
1
40
1
40
1
10
66.676491
20
368.509162
30
0
10
66.676491
20
367.761937
30
0
10
66.074656
20
367.157612
30
0
10
65.32743
20
367.157612
30
0
0
SPLINE
5
12A
100
AcDbEntity
8
engrave
6
ByLayer
62
7
370
-1
100
AcDbSpline
210
0
220
0
230
1
70
8
71
3
72
8
73
4
74
0
42
1e-07
43
1e-07
40
0
40
0
40
0
40
0
40
1
40
1
40
1
40
1
10
65.32743
20
367.157612
30
0
10
64.580204
20
367.157612
30
0
10
63.975879
20
367.761937
30
0
10
63.975879
20
368.509162
30
0
0
SPLINE
5
12B
100
AcDbEntity
8
engrave
6
ByLayer
62
7
370
-1
100
AcDbSpline
210
0
220
0
230
1
70
8
71
3
72
8
73
4
74
0
42
1e-07
43
1e-07
40
0
40
0
40
0
40
0
40
1
40
1
40
1
40
1
10
63.975879
20
368.509162
30
0
10
63.975879
20
369.256388
30
0
10
64.580204
20
369.858224
30
0
10
65.32743
20
369.858224
30
0
0
LINE
5
12C
100
AcDbEntity
8
engrave
6
ByLayer
62
7
370
-1
100
AcDbLine
10
65.32743
20
369.858224
11
65.32743
21
369.858224
0
SPLINE
5
12D
100
AcDbEntity
8
engrave
6
ByLayer
62
7
370
-1
100
AcDbSpline
210
0
220
0
230
1
70
8
71
3
72
8
73
4
74
0
42
1e-07
43
1e-07
40
0
40
0
40
0
40
0
40
1
40
1
40
1
40
1
10
68.963922
20
369.410196
30
0
10
69.463131
20
369.410196
30
0
10
69.864956
20
369.008374
30
0
10
69.864956
20
368.509162
30
0
0
SPLINE
5
12E
100
AcDbEntity
8
engrave
6
ByLayer
62
7
370
-1
100
AcDbSpline
210
0
220
0
230
1
70
8
71
3
72
8
73
4
74
0
42
1e-07
43
1e-07
40
0
40
0
40
0
40
0
40
1
40
1
40
1
40
1
10
69.864956
20
368.509162
30
0
10
69.864956
20
368.009954
30
0
10
69.463131
20
367.608129
30
0
10
68.963922
20
367.608129
30
0
0
SPLINE
5
12F
100
AcDbEntity
8
engrave
6
ByLayer
62
7
370
-1
100
AcDbSpline
210
0
220
0
230
1
70
8
71
3
72
8
73
4
74
0
42
1e-07
43
1e-07
40
0
40
0
40
0
40
0
40
1
40
1
40
1
40
1
10
68.963922
20
367.608129
30
0
10
68.464711
20
367.608129
30
0
10
68.062888
20
368.009954
30
0
10
68.062888
20
368.509162
30
0
0
SPLINE
5
130
100
AcDbEntity
8
engrave
6
ByLayer
62
7
370
-1
100
AcDbSpline
210
0
220
0
230
1
70
8
71
3
72
8
73
4
74
0
42
1e-07
43
1e-07
40
0
40
0
40
0
40
0
40
1
40
1
40
1
40
1
10
68.062888
20
368.509162
30
0
10
68.062888
20
369.008374
30
0
10
68.464711
20
369.410196
30
0
10
68.963922
20
369.410196
30
0
0
LINE
5
131
100
AcDbEntity
8
engrave
6
ByLayer
62
7
370
-1
100
AcDbLine
10
68.963922
20
369.410196
11
68.963922
21
369.410196
0
SPLINE
5
132
100
AcDbEntity
8
engrave
6
ByLayer
62
7
370
-1
100
AcDbSpline
210
0
220
0
230
1
70
8
71
3
72
8
73
4
74
0
42
1e-07
43
1e-07
40
0
40
0
40
0
40
0
40
1
40
1
40
1
40
1
10
71.243886
20
347.257711
30
0
10
70.441265
20
347.257711
30
0
10
69.787795
20
346.604241
30
0
10
69.787795
20
345.801621
30
0
0
LINE
5
133
100
AcDbEntity
8
engrave
6
ByLayer
62
7
370
-1
100
AcDbLine
10
69.787795
20
345.801621
11
69.787795
21
345.36106
0
SPLINE
5
134
100
AcDbEntity
8
engrave
6
ByLayer
62
7
370
-1
100
AcDbSpline
210
0
220
0
230
1
70
8
71
3
72
8
73
4
74
0
42
1e-07
43
1e-07
40
0
40
0
40
0
40
0
40
1
40
1
40
1
40
1
10
69.787795
20
345.36106
30
0
10
69.787795
20
344.55844
30
0
10
70.441265
20
343.914926
30
0
10
71.243886
20
343.914926
30
0
0
LINE
5
135
100
AcDbEntity
8
engrave
6
ByLayer
62
7
370
-1
100
AcDbLine
10
71.243886
20
343.914926
11
72.125007
21
343.914926
0
LINE
5
136
100
AcDbEntity
8
engrave
6
ByLayer
62
7
370
-1
100
AcDbLine
10
72.125007
20
343.914926
11
72.125007
21
342.685338
0
SPLINE
5
137
100
AcDbEntity
8
engrave
6
ByLayer
62
7
370
-1
100
AcDbSpline
210
0
220
0
230
1
70
8
71
3
72
8
73
4
74
0
42
1e-07
43
1e-07
40
0
40
0
40
0
40
0
40
1
40
1
40
1
40
1
10
72.125007
20
342.685338
30
0
10
72.005296
20
342.643971
30
0
10
71.918416
20
342.532871
30
0
10
71.918416
20
342.399098
30
0
0
SPLINE
5
138
100
AcDbEntity
8
engrave
6
ByLayer
62
7
370
-1
100
AcDbSpline
210
0
220
0
230
1
70
8
71
3
72
8
73
4
74
0
42
1e-07
43
1e-07
40
0
40
0
40
0
40
0
40
1
40
1
40
1
40
1
10
71.918416
20
342.399098
30
0
10
71.918416
20
342.230368
30
0
10
72.053349
20
342.092946
30
0
10
72.22208
20
342.092946
30
0
0
SPLINE
5
139
100
AcDbEntity
8
engrave
6
ByLayer
62
7
370
-1
100
AcDbSpline
210
0
220
0
230
1
70
8
71
3
72
8
73
4
74
0
42
1e-07
43
1e-07
40
0
40
0
40
0
40
0
40
1
40
1
40
1
40
1
10
72.22208
20
342.092946
30
0
10
72.390811
20
342.092946
30
0
10
72.528232
20
342.230368
30
0
10
72.528232
20
342.399098
30
0
0
SPLINE
5
13A
100
AcDbEntity
8
engrave
6
ByLayer
62
7
370
-1
100
AcDbSpline
210
0
220
0
230
1
70
8
71
3
72
8
73
4
74
0
42
1e-07
43
1e-07
40
0
40
0
40
0
40
0
40
1
40
1
40
1
40
1
10
72.528232
20
342.399098
30
0
10
72.528232
20
342.533966
30
0
10
72.440396
20
342.647319
30
0
10
72.319152
20
342.687828
30
0
0
LINE
5
13B
100
AcDbEntity
8
engrave
6
ByLayer
62
7
370
-1
100
AcDbLine
10
72.319152
20
342.687828
11
72.319152
21
343.914926
0
LINE
5
13C
100
AcDbEntity
8
engrave
6
ByLayer
62
7
370
-1
100
AcDbLine
10
72.319152
20
343.914926
11
74.628985
21
343.914926
0
SPLINE
5
13D
100
AcDbEntity
8
engrave
6
ByLayer
62
7
370
-1
100
AcDbSpline
210
0
220
0
230
1
70
8
71
3
72
8
73
4
74
0
42
1e-07
43
1e-07
40
0
40
0
40
0
40
0
40
1
40
1
40
1
40
1
10
74.628985
20
343.914926
30
0
10
75.431605
20
343.914926
30
0
10
76.085075
20
344.55844
30
0
10
76.085075
20
345.36106
30
0
0
LINE
5
13E
100
AcDbEntity
8
engrave
6
ByLayer
62
7
370
-1
100
AcDbLine
10
76.085075
20
345.36106
11
76.085075
21
345.801621
0
SPLINE
5
13F
100
AcDbEntity
8
engrave
6
ByLayer
62
7
370
-1
100
AcDbSpline
210
0
220
0
230
1
70
8
71
3
72
8
73
4
74
0
42
1e-07
43
1e-07
40
0
40
0
40
0
40
0
40
1
40
1
40
1
40
1
10
76.085075
20
345.801621
30
0
10
76.085075
20
346.604241
30
0
10
75.431605
20
347.257711
30
0
10
74.628985
20
347.257711
30
0
0
LINE
5
140
100
AcDbEntity
8
engrave
6
ByLayer
62
7
370
-1
100
AcDbLine
10
74.628985
20
347.257711
11
71.243886
21
347.257711
0
LINE
5
141
100
AcDbEntity
8
engrave
6
ByLayer
62
7
370
-1
100
AcDbLine
10
71.243886
20
347.257711
11
71.243886
21
347.257711
0
LINE
5
142
100
AcDbEntity
8
engrave
6
ByLayer
62
7
370
-1
100
AcDbLine
10
71.243886
20
347.00134
11
74.628985
21
347.00134
0
SPLINE
5
143
100
AcDbEntity
8
engrave
6
ByLayer
62
7
370
-1
100
AcDbSpline
210
0
220
0
230
1
70
8
71
3
72
8
73
4
74
0
42
1e-07
43
1e-07
40
0
40
0
40
0
40
0
40
1
40
1
40
1
40
1
10
74.628985
20
347.00134
30
0
10
75.296454
20
347.00134
30
0
10
75.828703
20
346.46909
30
0
10
75.828703
20
345.801621
30
0
0
LINE
5
144
100
AcDbEntity
8
engrave
6
ByLayer
62
7
370
-1
100
AcDbLine
10
75.828703
20
345.801621
11
75.828703
21
345.36106
0
SPLINE
5
145
100
AcDbEntity
8
engrave
6
ByLayer
62
7
370
-1
100
AcDbSpline
210
0
220
0
230
1
70
8
71
3
72
8
73
4
74
0
42
1e-07
43
1e-07
40
0
40
0
40
0
40
0
40
1
40
1
40
1
40
1
10
75.828703
20
345.36106
30
0
10
75.828703
20
344.69359
30
0
10
75.296454
20
344.161341
30
0
10
74.628985
20
344.161341
30
0
0
LINE
5
146
100
AcDbEntity
8
engrave
6
ByLayer
62
7
370
-1
100
AcDbLine
10
74.628985
20
344.161341
11
71.243886
21
344.161341
0
SPLINE
5
147
100
AcDbEntity
8
engrave
6
ByLayer
62
7
370
-1
100
AcDbSpline
210
0
220
0
230
1
70
8
71
3
72
8
73
4
74
0
42
1e-07
43
1e-07
40
0
40
0
40
0
40
0
40
1
40
1
40
1
40
1
10
71.243886
20
344.161341
30
0
10
70.576416
20
344.161341
30
0
10
70.044167
20
344.69359
30
0
10
70.044167
20
345.36106
30
0
0
LINE
5
148
100
AcDbEntity
8
engrave
6
ByLayer
62
7
370
-1
100
AcDbLine
10
70.044167
20
345.36106
11
70.044167
21
345.801621
0
SPLINE
5
149
100
AcDbEntity
8
engrave
6
ByLayer
62
7
370
-1
100
AcDbSpline
210
0
220
0
230
1
70
8
71
3
72
8
73
4
74
0
42
1e-07
43
1e-07
40
0
40
0
40
0
40
0
40
1
40
1
40
1
40
1
10
70.044167
20
345.801621
30
0
10
70.044167
20
346.46909
30
0
10
70.576416
20
347.00134
30
0
10
71.243886
20
347.00134
30
0
0
LINE
5
14A
100
AcDbEntity
8
engrave
6
ByLayer
62
7
370
-1
100
AcDbLine
10
71.243886
20
347.00134
11
71.243886
21
347.00134
0
SPLINE
5
14B
100
AcDbEntity
8
engrave
6
ByLayer
62
7
370
-1
100
AcDbSpline
210
0
220
0
230
1
70
8
71
3
72
8
73
4
74
0
42
1e-07
43
1e-07
40
0
40
0
40
0
40
0
40
1
40
1
40
1
40
1
10
65.30005
20
362.664889
30
0
10
64.450908
20
362.664889
30
0
10
63.761822
20
361.975799
30
0
10
63.761822
20
361.12666
30
0
0
SPLINE
5
14C
100
AcDbEntity
8
engrave
6
ByLayer
62
7
370
-1
100
AcDbSpline
210
0
220
0
230
1
70
8
71
3
72
8
73
4
74
0
42
1e-07
43
1e-07
40
0
40
0
40
0
40
0
40
1
40
1
40
1
40
1
10
63.761822
20
361.12666
30
0
10
63.761822
20
360.277518
30
0
10
64.450908
20
359.585942
30
0
10
65.30005
20
359.585942
30
0
0
SPLINE
5
14D
100
AcDbEntity
8
engrave
6
ByLayer
62
7
370
-1
100
AcDbSpline
210
0
220
0
230
1
70
8
71
3
72
8
73
4
74
0
42
1e-07
43
1e-07
40
0
40
0
40
0
40
0
40
1
40
1
40
1
40
1
10
65.30005
20
359.585942
30
0
10
66.111866
20
359.585942
30
0
10
66.778702
20
360.217118
30
0
10
66.83579
20
361.014653
30
0
0
LINE
5
14E
100
AcDbEntity
8
engrave
6
ByLayer
62
7
370
-1
100
AcDbLine
10
66.83579
20
361.014653
11
67.843853
21
361.014653
0
SPLINE
5
14F
100
AcDbEntity
8
engrave
6
ByLayer
62
7
370
-1
100
AcDbSpline
210
0
220
0
230
1
70
8
71
3
72
8
73
4
74
0
42
1e-07
43
1e-07
40
0
40
0
40
0
40
0
40
1
40
1
40
1
40
1
10
67.843853
20
361.014653
30
0
10
67.899599
20
360.432096
30
0
10
68.39206
20
359.974233
30
0
10
68.988813
20
359.974233
30
0
0
SPLINE
5
150
100
AcDbEntity
8
engrave
6
ByLayer
62
7
370
-1
100
AcDbSpline
210
0
220
0
230
1
70
8
71
3
72
8
73
4
74
0
42
1e-07
43
1e-07
40
0
40
0
40
0
40
0
40
1
40
1
40
1
40
1
10
68.988813
20
359.974233
30
0
10
69.585557
20
359.974233
30
0
10
70.078019
20
360.432104
30
0
10
70.133772
20
361.014653
30
0
0
LINE
5
151
100
AcDbEntity
8
engrave
6
ByLayer
62
7
370
-1
100
AcDbLine
10
70.133772
20
361.014653
11
70.308005
21
361.014653
0
SPLINE
5
152
100
AcDbEntity
8
engrave
6
ByLayer
62
7
370
-1
100
AcDbSpline
210
0
220
0
230
1
70
8
71
3
72
8
73
4
74
0
42
1e-07
43
1e-07
40
0
40
0
40
0
40
0
40
1
40
1
40
1
40
1
10
70.308005
20
361.014653
30
0
10
70.352594
20
360.901153
30
0
10
70.462435
20
360.820508
30
0
10
70.591756
20
360.820508
30
0
0
SPLINE
5
153
100
AcDbEntity
8
engrave
6
ByLayer
62
7
370
-1
100
AcDbSpline
210
0
220
0
230
1
70
8
71
3
72
8
73
4
74
0
42
1e-07
43
1e-07
40
0
40
0
40
0
40
0
40
1
40
1
40
1
40
1
10
70.591756
20
360.820508
30
0
10
70.760486
20
360.820508
30
0
10
70.897909
20
360.957928
30
0
10
70.897909
20
361.12666
30
0
0
SPLINE
5
154
100
AcDbEntity
8
engrave
6
ByLayer
62
7
370
-1
100
AcDbSpline
210
0
220
0
230
1
70
8
71
3
72
8
73
4
74
0
42
1e-07
43
1e-07
40
0
40
0
40
0
40
0
40
1
40
1
40
1
40
1
10
70.897909
20
361.12666
30
0
10
70.897909
20
361.29539
30
0
10
70.760486
20
361.430323
30
0
10
70.591756
20
361.430323
30
0
0
SPLINE
5
155
100
AcDbEntity
8
engrave
6
ByLayer
62
7
370
-1
100
AcDbSpline
210
0
220
0
230
1
70
8
71
3
72
8
73
4
74
0
42
1e-07
43
1e-07
40
0
40
0
40
0
40
0
40
1
40
1
40
1
40
1
10
70.591756
20
361.430323
30
0
10
70.462435
20
361.430323
30
0
10
70.352594
20
361.349678
30
0
10
70.308005
20
361.236178
30
0
0
LINE
5
156
100
AcDbEntity
8
engrave
6
ByLayer
62
7
370
-1
100
AcDbLine
10
70.308005
20
361.236178
11
70.133772
21
361.236178
0
SPLINE
5
157
100
AcDbEntity
8
engrave
6
ByLayer
62
7
370
-1
100
AcDbSpline
210
0
220
0
230
1
70
8
71
3
72
8
73
4
74
0
42
1e-07
43
1e-07
40
0
40
0
40
0
40
0
40
1
40
1
40
1
40
1
10
70.133772
20
361.236178
30
0
10
70.07809
20
361.818801
30
0
10
69.585609
20
362.276598
30
0
10
68.988813
20
362.276598
30
0
0
SPLINE
5
158
100
AcDbEntity
8
engrave
6
ByLayer
62
7
370
-1
100
AcDbSpline
210
0
220
0
230
1
70
8
71
3
72
8
73
4
74
0
42
1e-07
43
1e-07
40
0
40
0
40
0
40
0
40
1
40
1
40
1
40
1
10
68.988813
20
362.276598
30
0
10
68.392008
20
362.276598
30
0
10
67.899528
20
361.818808
30
0
10
67.843853
20
361.236178
30
0
0
LINE
5
159
100
AcDbEntity
8
engrave
6
ByLayer
62
7
370
-1
100
AcDbLine
10
67.843853
20
361.236178
11
66.83579
21
361.236178
0
SPLINE
5
15A
100
AcDbEntity
8
engrave
6
ByLayer
62
7
370
-1
100
AcDbSpline
210
0
220
0
230
1
70
8
71
3
72
8
73
4
74
0
42
1e-07
43
1e-07
40
0
40
0
40
0
40
0
40
1
40
1
40
1
40
1
10
66.83579
20
361.236178
30
0
10
66.778702
20
362.03371
30
0
10
66.111866
20
362.664889
30
0
10
65.30005
20
362.664889
30
0
0
LINE
5
15B
100
AcDbEntity
8
engrave
6
ByLayer
62
7
370
-1
100
AcDbLine
10
65.30005
20
362.664889
11
65.30005
21
362.664889
0
SPLINE
5
15C
100
AcDbEntity
8
engrave
6
ByLayer
62
7
370
-1
100
AcDbSpline
210
0
220
0
230
1
70
8
71
3
72
8
73
4
74
0
42
1e-07
43
1e-07
40
0
40
0
40
0
40
0
40
1
40
1
40
1
40
1
10
65.30005
20
362.433408
30
0
10
66.023361
20
362.433408
30
0
10
66.609287
20
361.849967
30
0
10
66.609287
20
361.12666
30
0
0
SPLINE
5
15D
100
AcDbEntity
8
engrave
6
ByLayer
62
7
370
-1
100
AcDbSpline
210
0
220
0
230
1
70
8
71
3
72
8
73
4
74
0
42
1e-07
43
1e-07
40
0
40
0
40
0
40
0
40
1
40
1
40
1
40
1
10
66.609287
20
361.12666
30
0
10
66.609287
20
360.40335
30
0
10
66.023361
20
359.817423
30
0
10
65.30005
20
359.817423
30
0
0
SPLINE
5
15E
100
AcDbEntity
8
engrave
6
ByLayer
62
7
370
-1
100
AcDbSpline
210
0
220
0
230
1
70
8
71
3
72
8
73
4
74
0
42
1e-07
43
1e-07
40
0
40
0
40
0
40
0
40
1
40
1
40
1
40
1
10
65.30005
20
359.817423
30
0
10
64.57674
20
359.817423
30
0
10
63.993303
20
360.40335
30
0
10
63.993303
20
361.12666
30
0
0
SPLINE
5
15F
100
AcDbEntity
8
engrave
6
ByLayer
62
7
370
-1
100
AcDbSpline
210
0
220
0
230
1
70
8
71
3
72
8
73
4
74
0
42
1e-07
43
1e-07
40
0
40
0
40
0
40
0
40
1
40
1
40
1
40
1
10
63.993303
20
361.12666
30
0
10
63.993303
20
361.849967
30
0
10
64.57674
20
362.433408
30
0
10
65.30005
20
362.433408
30
0
0
LINE
5
160
100
AcDbEntity
8
engrave
6
ByLayer
62
7
370
-1
100
AcDbLine
10
65.30005
20
362.433408
11
65.30005
21
362.433408
0
SPLINE
5
161
100
AcDbEntity
8
engrave
6
ByLayer
62
7
370
-1
100
AcDbSpline
210
0
220
0
230
1
70
8
71
3
72
8
73
4
74
0
42
1e-07
43
1e-07
40
0
40
0
40
0
40
0
40
1
40
1
40
1
40
1
10
68.988813
20
362.027694
30
0
10
69.488021
20
362.027694
30
0
10
69.889846
20
361.625871
30
0
10
69.889846
20
361.12666
30
0
0
SPLINE
5
162
100
AcDbEntity
8
engrave
6
ByLayer
62
7
370
-1
100
AcDbSpline
210
0
220
0
230
1
70
8
71
3
72
8
73
4
74
0
42
1e-07
43
1e-07
40
0
40
0
40
0
40
0
40
1
40
1
40
1
40
1
10
69.889846
20
361.12666
30
0
10
69.889846
20
360.627451
30
0
10
69.488021
20
360.225626
30
0
10
68.988813
20
360.225626
30
0
0
SPLINE
5
163
100
AcDbEntity
8
engrave
6
ByLayer
62
7
370
-1
100
AcDbSpline
210
0
220
0
230
1
70
8
71
3
72
8
73
4
74
0
42
1e-07
43
1e-07
40
0
40
0
40
0
40
0
40
1
40
1
40
1
40
1
10
68.988813
20
360.225626
30
0
10
68.489601
20
360.225626
30
0
10
68.090268
20
360.627451
30
0
10
68.090268
20
361.12666
30
0
0
SPLINE
5
164
100
AcDbEntity
8
engrave
6
ByLayer
62
7
370
-1
100
AcDbSpline
210
0
220
0
230
1
70
8
71
3
72
8
73
4
74
0
42
1e-07
43
1e-07
40
0
40
0
40
0
40
0
40
1
40
1
40
1
40
1
10
68.090268
20
361.12666
30
0
10
68.090268
20
361.625871
30
0
10
68.489601
20
362.027694
30
0
10
68.988813
20
362.027694
30
0
0
LINE
5
165
100
AcDbEntity
8
engrave
6
ByLayer
62
7
370
-1
100
AcDbLine
10
68.988813
20
362.027694
11
68.988813
21
362.027694
0
SPLINE
5
166
100
AcDbEntity
8
engrave
6
ByLayer
62
7
370
-1
100
AcDbSpline
210
0
220
0
230
1
70
8
71
3
72
8
73
4
74
0
42
1e-07
43
1e-07
40
0
40
0
40
0
40
0
40
1
40
1
40
1
40
1
10
65.051146
20
359.010973
30
0
10
64.238623
20
358.969644
30
0
10
63.590078
20
358.295351
30
0
10
63.590078
20
357.472745
30
0
0
SPLINE
5
167
100
AcDbEntity
8
engrave
6
ByLayer
62
7
370
-1
100
AcDbSpline
210
0
220
0
230
1
70
8
71
3
72
8
73
4
74
0
42
1e-07
43
1e-07
40
0
40
0
40
0
40
0
40
1
40
1
40
1
40
1
10
63.590078
20
357.472745
30
0
10
63.590078
20
356.623602
30
0
10
64.279164
20
355.932027
30
0
10
65.128306
20
355.932027
30
0
0
SPLINE
5
168
100
AcDbEntity
8
engrave
6
ByLayer
62
7
370
-1
100
AcDbSpline
210
0
220
0
230
1
70
8
71
3
72
8
73
4
74
0
42
1e-07
43
1e-07
40
0
40
0
40
0
40
0
40
1
40
1
40
1
40
1
10
65.128306
20
355.932027
30
0
10
65.935511
20
355.932027
30
0
10
66.600409
20
356.557175
30
0
10
66.664046
20
357.348292
30
0
0
LINE
5
169
100
AcDbEntity
8
engrave
6
ByLayer
62
7
370
-1
100
AcDbLine
10
66.664046
20
357.348292
11
67.82394
21
357.370694
0
SPLINE
5
16A
100
AcDbEntity
8
engrave
6
ByLayer
62
7
370
-1
100
AcDbSpline
210
0
220
0
230
1
70
8
71
3
72
8
73
4
74
0
42
1e-07
43
1e-07
40
0
40
0
40
0
40
0
40
1
40
1
40
1
40
1
10
67.82394
20
357.370694
30
0
10
67.876128
20
356.784549
30
0
10
68.369571
20
356.320318
30
0
10
68.9689
20
356.320318
30
0
0
SPLINE
5
16B
100
AcDbEntity
8
engrave
6
ByLayer
62
7
370
-1
100
AcDbSpline
210
0
220
0
230
1
70
8
71
3
72
8
73
4
74
0
42
1e-07
43
1e-07
40
0
40
0
40
0
40
0
40
1
40
1
40
1
40
1
10
68.9689
20
356.320318
30
0
10
69.563178
20
356.320318
30
0
10
70.054742
20
356.776648
30
0
10
70.11386
20
357.35576
30
0
0
LINE
5
16C
100
AcDbEntity
8
engrave
6
ByLayer
62
7
370
-1
100
AcDbLine
10
70.11386
20
357.35576
11
70.310495
21
357.35576
0
SPLINE
5
16D
100
AcDbEntity
8
engrave
6
ByLayer
62
7
370
-1
100
AcDbSpline
210
0
220
0
230
1
70
8
71
3
72
8
73
4
74
0
42
1e-07
43
1e-07
40
0
40
0
40
0
40
0
40
1
40
1
40
1
40
1
10
70.310495
20
357.35576
30
0
10
70.356349
20
357.244944
30
0
10
70.464369
20
357.166592
30
0
10
70.591756
20
357.166592
30
0
0
SPLINE
5
16E
100
AcDbEntity
8
engrave
6
ByLayer
62
7
370
-1
100
AcDbSpline
210
0
220
0
230
1
70
8
71
3
72
8
73
4
74
0
42
1e-07
43
1e-07
40
0
40
0
40
0
40
0
40
1
40
1
40
1
40
1
10
70.591756
20
357.166592
30
0
10
70.760486
20
357.166592
30
0
10
70.897909
20
357.304013
30
0
10
70.897909
20
357.472745
30
0
0
SPLINE
5
16F
100
AcDbEntity
8
engrave
6
ByLayer
62
7
370
-1
100
AcDbSpline
210
0
220
0
230
1
70
8
71
3
72
8
73
4
74
0
42
1e-07
43
1e-07
40
0
40
0
40
0
40
0
40
1
40
1
40
1
40
1
10
70.897909
20
357.472745
30
0
10
70.897909
20
357.641475
30
0
10
70.760486
20
357.776408
30
0
10
70.591756
20
357.776408
30
0
0
SPLINE
5
170
100
AcDbEntity
8
engrave
6
ByLayer
62
7
370
-1
100
AcDbSpline
210
0
220
0
230
1
70
8
71
3
72
8
73
4
74
0
42
1e-07
43
1e-07
40
0
40
0
40
0
40
0
40
1
40
1
40
1
40
1
10
70.591756
20
357.776408
30
0
10
70.462543
20
357.776408
30
0
10
70.352666
20
357.698102
30
0
10
70.308005
20
357.584752
30
0
0
LINE
5
171
100
AcDbEntity
8
engrave
6
ByLayer
62
7
370
-1
100
AcDbLine
10
70.308005
20
357.584752
11
70.11386
21
357.584752
0
SPLINE
5
172
100
AcDbEntity
8
engrave
6
ByLayer
62
7
370
-1
100
AcDbSpline
210
0
220
0
230
1
70
8
71
3
72
8
73
4
74
0
42
1e-07
43
1e-07
40
0
40
0
40
0
40
0
40
1
40
1
40
1
40
1
10
70.11386
20
357.584752
30
0
10
70.057033
20
358.16621
30
0
10
69.564861
20
358.622683
30
0
10
68.9689
20
358.622683
30
0
0
SPLINE
5
173
100
AcDbEntity
8
engrave
6
ByLayer
62
7
370
-1
100
AcDbSpline
210
0
220
0
230
1
70
8
71
3
72
8
73
4
74
0
42
1e-07
43
1e-07
40
0
40
0
40
0
40
0
40
1
40
1
40
1
40
1
10
68.9689
20
358.622683
30
0
10
68.375461
20
358.622683
30
0
10
67.884197
20
358.170157
30
0
10
67.82394
20
357.592219
30
0
0
LINE
5
174
100
AcDbEntity
8
engrave
6
ByLayer
62
7
370
-1
100
AcDbLine
10
67.82394
20
357.592219
11
66.664046
21
357.577284
0
SPLINE
5
175
100
AcDbEntity
8
engrave
6
ByLayer
62
7
370
-1
100
AcDbSpline
210
0
220
0
230
1
70
8
71
3
72
8
73
4
74
0
42
1e-07
43
1e-07
40
0
40
0
40
0
40
0
40
1
40
1
40
1
40
1
10
66.664046
20
357.577284
30
0
10
66.610138
20
358.377894
30
0
10
65.94233
20
359.010973
30
0
10
65.128306
20
359.010973
30
0
0
SPLINE
5
176
100
AcDbEntity
8
engrave
6
ByLayer
62
7
370
-1
100
AcDbSpline
210
0
220
0
230
1
70
8
71
3
72
8
73
4
74
0
42
1e-07
43
1e-07
40
0
40
0
40
0
40
0
40
1
40
1
40
1
40
1
10
65.128306
20
359.010973
30
0
10
65.10177
20
359.010973
30
0
10
65.077356
20
359.012303
30
0
10
65.051146
20
359.010973
30
0
0
LINE
5
177
100
AcDbEntity
8
engrave
6
ByLayer
62
7
370
-1
100
AcDbLine
10
65.051146
20
359.010973
11
65.051146
21
359.010973
0
SPLINE
5
178
100
AcDbEntity
8
engrave
6
ByLayer
62
7
370
-1
100
AcDbSpline
210
0
220
0
230
1
70
8
71
3
72
8
73
4
74
0
42
1e-07
43
1e-07
40
0
40
0
40
0
40
0
40
1
40
1
40
1
40
1
10
65.128306
20
358.779492
30
0
10
65.851614
20
358.779492
30
0
10
66.437543
20
358.196055
30
0
10
66.437543
20
357.472745
30
0
0
SPLINE
5
179
100
AcDbEntity
8
engrave
6
ByLayer
62
7
370
-1
100
AcDbSpline
210
0
220
0
230
1
70
8
71
3
72
8
73
4
74
0
42
1e-07
43
1e-07
40
0
40
0
40
0
40
0
40
1
40
1
40
1
40
1
10
66.437543
20
357.472745
30
0
10
66.437543
20
356.749434
30
0
10
65.851614
20
356.165997
30
0
10
65.128306
20
356.165997
30
0
0
SPLINE
5
17A
100
AcDbEntity
8
engrave
6
ByLayer
62
7
370
-1
100
AcDbSpline
210
0
220
0
230
1
70
8
71
3
72
8
73
4
74
0
42
1e-07
43
1e-07
40
0
40
0
40
0
40
0
40
1
40
1
40
1
40
1
10
65.128306
20
356.165997
30
0
10
64.404996
20
356.165997
30
0
10
63.821559
20
356.749434
30
0
10
63.821559
20
357.472745
30
0
0
SPLINE
5
17B
100
AcDbEntity
8
engrave
6
ByLayer
62
7
370
-1
100
AcDbSpline
210
0
220
0
230
1
70
8
71
3
72
8
73
4
74
0
42
1e-07
43
1e-07
40
0
40
0
40
0
40
0
40
1
40
1
40
1
40
1
10
63.821559
20
357.472745
30
0
10
63.821559
20
358.196055
30
0
10
64.404994
20
358.779492
30
0
10
65.128306
20
358.779492
30
0
0
LINE
5
17C
100
AcDbEntity
8
engrave
6
ByLayer
62
7
370
-1
100
AcDbLine
10
65.128306
20
358.779492
11
65.128306
21
358.779492
0
SPLINE
5
17D
100
AcDbEntity
8
engrave
6
ByLayer
62
7
370
-1
100
AcDbSpline
210
0
220
0
230
1
70
8
71
3
72
8
73
4
74
0
42
1e-07
43
1e-07
40
0
40
0
40
0
40
0
40
1
40
1
40
1
40
1
10
68.9689
20
358.373778
30
0
10
69.468109
20
358.373778
30
0
10
69.869934
20
357.971956
30
0
10
69.869934
20
357.472745
30
0
0
SPLINE
5
17E
100
AcDbEntity
8
engrave
6
ByLayer
62
7
370
-1
100
AcDbSpline
210
0
220
0
230
1
70
8
71
3
72
8
73
4
74
0
42
1e-07
43
1e-07
40
0
40
0
40
0
40
0
40
1
40
1
40
1
40
1
10
69.869934
20
357.472745
30
0
10
69.869934
20
356.973536
30
0
10
69.468109
20
356.571711
30
0
10
68.9689
20
356.571711
30
0
0
SPLINE
5
17F
100
AcDbEntity
8
engrave
6
ByLayer
62
7
370
-1
100
AcDbSpline
210
0
220
0
230
1
70
8
71
3
72
8
73
4
74
0
42
1e-07
43
1e-07
40
0
40
0
40
0
40
0
40
1
40
1
40
1
40
1
10
68.9689
20
356.571711
30
0
10
68.469689
20
356.571711
30
0
10
68.067867
20
356.973536
30
0
10
68.067867
20
357.472745
30
0
0
SPLINE
5
180
100
AcDbEntity
8
engrave
6
ByLayer
62
7
370
-1
100
AcDbSpline
210
0
220
0
230
1
70
8
71
3
72
8
73
4
74
0
42
1e-07
43
1e-07
40
0
40
0
40
0
40
0
40
1
40
1
40
1
40
1
10
68.067867
20
357.472745
30
0
10
68.067867
20
357.971956
30
0
10
68.469689
20
358.373778
30
0
10
68.9689
20
358.373778
30
0
0
LINE
5
181
100
AcDbEntity
8
engrave
6
ByLayer
62
7
370
-1
100
AcDbLine
10
68.9689
20
358.373778
11
68.9689
21
358.373778
0
LINE
5
182
100
AcDbEntity
8
engrave
6
ByLayer
62
7
370
-1
100
AcDbLine
10
67.012511
20
347.705741
11
67.012511
21
347.312472
0
SPLINE
5
183
100
AcDbEntity
8
engrave
6
ByLayer
62
7
370
-1
100
AcDbSpline
210
0
220
0
230
1
70
8
71
3
72
8
73
4
74
0
42
1e-07
43
1e-07
40
0
40
0
40
0
40
0
40
1
40
1
40
1
40
1
10
67.012511
20
347.312472
30
0
10
65.669523
20
347.282142
30
0
10
64.575062
20
346.204241
30
0
10
64.516001
20
344.868232
30
0
0
LINE
5
184
100
AcDbEntity
8
engrave
6
ByLayer
62
7
370
-1
100
AcDbLine
10
64.516001
20
344.868232
11
63.724485
21
344.868232
0
SPLINE
5
185
100
AcDbEntity
8
engrave
6
ByLayer
62
7
370
-1
100
AcDbSpline
210
0
220
0
230
1
70
8
71
3
72
8
73
4
74
0
42
1e-07
43
1e-07
40
0
40
0
40
0
40
0
40
1
40
1
40
1
40
1
10
63.724485
20
344.868232
30
0
10
63.679338
20
344.980566
30
0
10
63.569216
20
345.059888
30
0
10
63.440734
20
345.059888
30
0
0
SPLINE
5
186
100
AcDbEntity
8
engrave
6
ByLayer
62
7
370
-1
100
AcDbSpline
210
0
220
0
230
1
70
8
71
3
72
8
73
4
74
0
42
1e-07
43
1e-07
40
0
40
0
40
0
40
0
40
1
40
1
40
1
40
1
10
63.440734
20
345.059888
30
0
10
63.272004
20
345.059888
30
0
10
63.134582
20
344.922466
30
0
10
63.134582
20
344.753736
30
0
0
SPLINE
5
187
100
AcDbEntity
8
engrave
6
ByLayer
62
7
370
-1
100
AcDbSpline
210
0
220
0
230
1
70
8
71
3
72
8
73
4
74
0
42
1e-07
43
1e-07
40
0
40
0
40
0
40
0
40
1
40
1
40
1
40
1
10
63.134582
20
344.753736
30
0
10
63.134582
20
344.585004
30
0
10
63.272004
20
344.447584
30
0
10
63.440734
20
344.447584
30
0
0
SPLINE
5
188
100
AcDbEntity
8
engrave
6
ByLayer
62
7
370
-1
100
AcDbSpline
210
0
220
0
230
1
70
8
71
3
72
8
73
4
74
0
42
1e-07
43
1e-07
40
0
40
0
40
0
40
0
40
1
40
1
40
1
40
1
10
63.440734
20
344.447584
30
0
10
63.568122
20
344.447584
30
0
10
63.676141
20
344.525936
30
0
10
63.721996
20
344.636751
30
0
0
LINE
5
189
100
AcDbEntity
8
engrave
6
ByLayer
62
7
370
-1
100
AcDbLine
10
63.721996
20
344.636751
11
64.516001
21
344.636751
0
SPLINE
5
18A
100
AcDbEntity
8
engrave
6
ByLayer
62
7
370
-1
100
AcDbSpline
210
0
220
0
230
1
70
8
71
3
72
8
73
4
74
0
42
1e-07
43
1e-07
40
0
40
0
40
0
40
0
40
1
40
1
40
1
40
1
10
64.516001
20
344.636751
30
0
10
64.578588
20
343.284802
30
0
10
65.702121
20
342.212423
30
0
10
67.069759
20
342.212423
30
0
0
SPLINE
5
18B
100
AcDbEntity
8
engrave
6
ByLayer
62
7
370
-1
100
AcDbSpline
210
0
220
0
230
1
70
8
71
3
72
8
73
4
74
0
42
1e-07
43
1e-07
40
0
40
0
40
0
40
0
40
1
40
1
40
1
40
1
10
67.069759
20
342.212423
30
0
10
68.477233
20
342.212423
30
0
10
69.628496
20
343.348751
30
0
10
69.628496
20
344.756225
30
0
0
LINE
5
18C
100
AcDbEntity
8
engrave
6
ByLayer
62
7
370
-1
100
AcDbLine
10
69.628496
20
344.756225
11
69.242694
21
344.756225
0
SPLINE
5
18D
100
AcDbEntity
8
engrave
6
ByLayer
62
7
370
-1
100
AcDbSpline
210
0
220
0
230
1
70
8
71
3
72
8
73
4
74
0
42
1e-07
43
1e-07
40
0
40
0
40
0
40
0
40
1
40
1
40
1
40
1
10
69.242694
20
344.756225
30
0
10
69.242694
20
343.557323
30
0
10
68.268671
20
342.598225
30
0
10
67.069759
20
342.598225
30
0
0
SPLINE
5
18E
100
AcDbEntity
8
engrave
6
ByLayer
62
7
370
-1
100
AcDbSpline
210
0
220
0
230
1
70
8
71
3
72
8
73
4
74
0
42
1e-07
43
1e-07
40
0
40
0
40
0
40
0
40
1
40
1
40
1
40
1
10
67.069759
20
342.598225
30
0
10
65.870858
20
342.598225
30
0
10
64.899314
20
343.557323
30
0
10
64.899314
20
344.756225
30
0
0
SPLINE
5
18F
100
AcDbEntity
8
engrave
6
ByLayer
62
7
370
-1
100
AcDbSpline
210
0
220
0
230
1
70
8
71
3
72
8
73
4
74
0
42
1e-07
43
1e-07
40
0
40
0
40
0
40
0
40
1
40
1
40
1
40
1
10
64.899314
20
344.756225
30
0
10
64.899314
20
345.935539
30
0
10
65.840663
20
346.893095
30
0
10
67.012511
20
346.924182
30
0
0
LINE
5
190
100
AcDbEntity
8
engrave
6
ByLayer
62
7
370
-1
100
AcDbLine
10
67.012511
20
346.924182
11
67.012511
21
346.568249
0
LINE
5
191
100
AcDbEntity
8
engrave
6
ByLayer
62
7
370
-1
100
AcDbLine
10
67.012511
20
346.568249
11
67.505342
21
346.851999
0
LINE
5
192
100
AcDbEntity
8
engrave
6
ByLayer
62
7
370
-1
100
AcDbLine
10
67.505342
20
346.851999
11
67.998173
21
347.13575
0
LINE
5
193
100
AcDbEntity
8
engrave
6
ByLayer
62
7
370
-1
100
AcDbLine
10
67.998173
20
347.13575
11
67.505342
21
347.42199
0
LINE
5
194
100
AcDbEntity
8
engrave
6
ByLayer
62
7
370
-1
100
AcDbLine
10
67.505342
20
347.42199
11
67.012511
21
347.705741
0
LINE
5
195
100
AcDbEntity
8
engrave
6
ByLayer
62
7
370
-1
100
AcDbLine
10
67.012511
20
347.705741
11
67.012511
21
347.705741
0
LINE
5
196
100
AcDbEntity
8
engrave
6
ByLayer
62
7
370
-1
100
AcDbLine
10
71.21217
20
368.618642
11
71.21217
21
368.59873
0
LINE
5
197
100
AcDbEntity
8
engrave
6
ByLayer
62
7
370
-1
100
AcDbLine
10
71.21217
20
368.59873
11
71.330648
21
368.59873
0
LINE
5
198
100
AcDbEntity
8
engrave
6
ByLayer
62
7
370
-1
100
AcDbLine
10
71.330648
20
368.59873
11
71.340605
21
368.608686
0
LINE
5
199
100
AcDbEntity
8
engrave
6
ByLayer
62
7
370
-1
100
AcDbLine
10
71.340605
20
368.608686
11
71.391381
21
368.688335
0
LINE
5
19A
100
AcDbEntity
8
engrave
6
ByLayer
62
7
370
-1
100
AcDbLine
10
71.391381
20
368.688335
11
71.391381
21
368.250264
0
LINE
5
19B
100
AcDbEntity
8
engrave
6
ByLayer
62
7
370
-1
100
AcDbLine
10
71.391381
20
368.250264
11
71.222126
21
368.250264
0
LINE
5
19C
100
AcDbEntity
8
engrave
6
ByLayer
62
7
370
-1
100
AcDbLine
10
71.222126
20
368.250264
11
71.21217
21
368.240308
0
LINE
5
19D
100
AcDbEntity
8
engrave
6
ByLayer
62
7
370
-1
100
AcDbLine
10
71.21217
20
368.240308
11
71.21217
21
368.140746
0
LINE
5
19E
100
AcDbEntity
8
engrave
6
ByLayer
62
7
370
-1
100
AcDbLine
10
71.21217
20
368.140746
11
71.222126
21
368.13079
0
LINE
5
19F
100
AcDbEntity
8
engrave
6
ByLayer
62
7
370
-1
100
AcDbLine
10
71.222126
20
368.13079
11
71.670154
21
368.13079
0
LINE
5
1A0
100
AcDbEntity
8
engrave
6
ByLayer
62
7
370
-1
100
AcDbLine
10
71.670154
20
368.13079
11
71.68011
21
368.140746
0
LINE
5
1A1
100
AcDbEntity
8
engrave
6
ByLayer
62
7
370
-1
100
AcDbLine
10
71.68011
20
368.140746
11
71.68011
21
368.240308
0
LINE
5
1A2
100
AcDbEntity
8
engrave
6
ByLayer
62
7
370
-1
100
AcDbLine
10
71.68011
20
368.240308
11
71.670154
21
368.250264
0
LINE
5
1A3
100
AcDbEntity
8
engrave
6
ByLayer
62
7
370
-1
100
AcDbLine
10
71.670154
20
368.250264
11
71.510855
21
368.250264
0
LINE
5
1A4
100
AcDbEntity
8
engrave
6
ByLayer
62
7
370
-1
100
AcDbLine
10
71.510855
20
368.250264
11
71.510855
21
368.847634
0
LINE
5
1A5
100
AcDbEntity
8
engrave
6
ByLayer
62
7
370
-1
100
AcDbLine
10
71.510855
20
368.847634
11
71.500899
21
368.85759
0
LINE
5
1A6
100
AcDbEntity
8
engrave
6
ByLayer
62
7
370
-1
100
AcDbLine
10
71.500899
20
368.85759
11
71.381425
21
368.85759
0
LINE
5
1A7
100
AcDbEntity
8
engrave
6
ByLayer
62
7
370
-1
100
AcDbLine
10
71.381425
20
368.85759
11
71.372464
21
368.847634
0
LINE
5
1A8
100
AcDbEntity
8
engrave
6
ByLayer
62
7
370
-1
100
AcDbLine
10
71.372464
20
368.847634
11
71.21217
21
368.618642
0
LINE
5
1A9
100
AcDbEntity
8
engrave
6
ByLayer
62
7
370
-1
100
AcDbLine
10
71.219637
20
364.921439
11
71.229593
21
364.911483
0
LINE
5
1AA
100
AcDbEntity
8
engrave
6
ByLayer
62
7
370
-1
100
AcDbLine
10
71.229593
20
364.911483
11
71.329155
21
364.911483
0
LINE
5
1AB
100
AcDbEntity
8
engrave
6
ByLayer
62
7
370
-1
100
AcDbLine
10
71.329155
20
364.911483
11
71.339111
21
364.921439
0
LINE
5
1AC
100
AcDbEntity
8
engrave
6
ByLayer
62
7
370
-1
100
AcDbLine
10
71.339111
20
364.921439
11
71.339111
21
364.951308
0
SPLINE
5
1AD
100
AcDbEntity
8
engrave
6
ByLayer
62
7
370
-1
100
AcDbSpline
210
0
220
0
230
1
70
8
71
3
72
8
73
4
74
0
42
1e-07
43
1e-07
40
0
40
0
40
0
40
0
40
1
40
1
40
1
40
1
10
71.339111
20
364.951308
30
0
10
71.339111
20
365.030957
30
0
10
71.39387
20
365.061821
30
0
10
71.453607
20
365.061821
30
0
0
SPLINE
5
1AE
100
AcDbEntity
8
engrave
6
ByLayer
62
7
370
-1
100
AcDbSpline
210
0
220
0
230
1
70
8
71
3
72
8
73
4
74
0
42
1e-07
43
1e-07
40
0
40
0
40
0
40
0
40
1
40
1
40
1
40
1
10
71.453607
20
365.061821
30
0
10
71.508366
20
365.061821
30
0
10
71.563125
20
365.030957
30
0
10
71.563125
20
364.951308
30
0
0
SPLINE
5
1AF
100
AcDbEntity
8
engrave
6
ByLayer
62
7
370
-1
100
AcDbSpline
210
0
220
0
230
1
70
8
71
3
72
8
73
4
74
0
42
1e-07
43
1e-07
40
0
40
0
40
0
40
0
40
1
40
1
40
1
40
1
10
71.563125
20
364.951308
30
0
10
71.563125
20
364.901527
30
0
10
71.541222
20
364.863693
30
0
10
71.507371
20
364.831833
30
0
0
SPLINE
5
1B0
100
AcDbEntity
8
engrave
6
ByLayer
62
7
370
-1
100
AcDbSpline
210
0
220
0
230
1
70
8
71
3
72
8
73
4
74
0
42
1e-07
43
1e-07
40
0
40
0
40
0
40
0
40
1
40
1
40
1
40
1
10
71.507371
20
364.831833
30
0
10
71.376945
20
364.709373
30
0
10
71.209681
20
364.617776
30
0
10
71.209681
20
364.493324
30
0
0
LINE
5
1B1
100
AcDbEntity
8
engrave
6
ByLayer
62
7
370
-1
100
AcDbLine
10
71.209681
20
364.493324
11
71.209681
21
364.443543
0
LINE
5
1B2
100
AcDbEntity
8
engrave
6
ByLayer
62
7
370
-1
100
AcDbLine
10
71.209681
20
364.443543
11
71.219637
21
364.433587
0
LINE
5
1B3
100
AcDbEntity
8
engrave
6
ByLayer
62
7
370
-1
100
AcDbLine
10
71.219637
20
364.433587
11
71.657709
21
364.433587
0
LINE
5
1B4
100
AcDbEntity
8
engrave
6
ByLayer
62
7
370
-1
100
AcDbLine
10
71.657709
20
364.433587
11
71.667665
21
364.443543
0
LINE
5
1B5
100
AcDbEntity
8
engrave
6
ByLayer
62
7
370
-1
100
AcDbLine
10
71.667665
20
364.443543
11
71.667665
21
364.543104
0
LINE
5
1B6
100
AcDbEntity
8
engrave
6
ByLayer
62
7
370
-1
100
AcDbLine
10
71.667665
20
364.543104
11
71.657709
21
364.553061
0
LINE
5
1B7
100
AcDbEntity
8
engrave
6
ByLayer
62
7
370
-1
100
AcDbLine
10
71.657709
20
364.553061
11
71.359024
21
364.553061
0
SPLINE
5
1B8
100
AcDbEntity
8
engrave
6
ByLayer
62
7
370
-1
100
AcDbSpline
210
0
220
0
230
1
70
8
71
3
72
8
73
4
74
0
42
1e-07
43
1e-07
40
0
40
0
40
0
40
0
40
1
40
1
40
1
40
1
10
71.359024
20
364.553061
30
0
10
71.360019
20
364.582929
30
0
10
71.474515
20
364.659592
30
0
10
71.578059
20
364.748202
30
0
0
SPLINE
5
1B9
100
AcDbEntity
8
engrave
6
ByLayer
62
7
370
-1
100
AcDbSpline
210
0
220
0
230
1
70
8
71
3
72
8
73
4
74
0
42
1e-07
43
1e-07
40
0
40
0
40
0
40
0
40
1
40
1
40
1
40
1
10
71.578059
20
364.748202
30
0
10
71.623858
20
364.787031
30
0
10
71.682599
20
364.846768
30
0
10
71.682599
20
364.951308
30
0
0
SPLINE
5
1BA
100
AcDbEntity
8
engrave
6
ByLayer
62
7
370
-1
100
AcDbSpline
210
0
220
0
230
1
70
8
71
3
72
8
73
4
74
0
42
1e-07
43
1e-07
40
0
40
0
40
0
40
0
40
1
40
1
40
1
40
1
10
71.682599
20
364.951308
30
0
10
71.682599
20
365.085715
30
0
10
71.578059
20
365.175321
30
0
10
71.453607
20
365.175321
30
0
0
SPLINE
5
1BB
100
AcDbEntity
8
engrave
6
ByLayer
62
7
370
-1
100
AcDbSpline
210
0
220
0
230
1
70
8
71
3
72
8
73
4
74
0
42
1e-07
43
1e-07
40
0
40
0
40
0
40
0
40
1
40
1
40
1
40
1
10
71.453607
20
365.175321
30
0
10
71.319199
20
365.175321
30
0
10
71.219637
20
365.080738
30
0
10
71.219637
20
364.951308
30
0
0
LINE
5
1BC
100
AcDbEntity
8
engrave
6
ByLayer
62
7
370
-1
100
AcDbLine
10
71.219637
20
364.951308
11
71.219637
21
364.921439
0
LINE
5
1BD
100
AcDbEntity
8
engrave
6
ByLayer
62
7
370
-1
100
AcDbLine
10
71.68011
20
361.486469
11
71.670154
21
361.496425
0
LINE
5
1BE
100
AcDbEntity
8
engrave
6
ByLayer
62
7
370
-1
100
AcDbLine
10
71.670154
20
361.496425
11
71.222126
21
361.496425
0
LINE
5
1BF
100
AcDbEntity
8
engrave
6
ByLayer
62
7
370
-1
100
AcDbLine
10
71.222126
20
361.496425
11
71.21217
21
361.486469
0
LINE
5
1C0
100
AcDbEntity
8
engrave
6
ByLayer
62
7
370
-1
100
AcDbLine
10
71.21217
20
361.486469
11
71.21217
21
361.386907
0
LINE
5
1C1
100
AcDbEntity
8
engrave
6
ByLayer
62
7
370
-1
100
AcDbLine
10
71.21217
20
361.386907
11
71.222126
21
361.376951
0
LINE
5
1C2
100
AcDbEntity
8
engrave
6
ByLayer
62
7
370
-1
100
AcDbLine
10
71.222126
20
361.376951
11
71.500899
21
361.376951
0
LINE
5
1C3
100
AcDbEntity
8
engrave
6
ByLayer
62
7
370
-1
100
AcDbLine
10
71.500899
20
361.376951
11
71.331644
21
361.237565
0
LINE
5
1C4
100
AcDbEntity
8
engrave
6
ByLayer
62
7
370
-1
100
AcDbLine
10
71.331644
20
361.237565
11
71.331644
21
361.138003
0
LINE
5
1C5
100
AcDbEntity
8
engrave
6
ByLayer
62
7
370
-1
100
AcDbLine
10
71.331644
20
361.138003
11
71.3416
21
361.128047
0
LINE
5
1C6
100
AcDbEntity
8
engrave
6
ByLayer
62
7
370
-1
100
AcDbLine
10
71.3416
20
361.128047
11
71.426228
21
361.128047
0
SPLINE
5
1C7
100
AcDbEntity
8
engrave
6
ByLayer
62
7
370
-1
100
AcDbSpline
210
0
220
0
230
1
70
8
71
3
72
8
73
4
74
0
42
1e-07
43
1e-07
40
0
40
0
40
0
40
0
40
1
40
1
40
1
40
1
10
71.426228
20
361.128047
30
0
10
71.500899
20
361.128047
30
0
10
71.570592
20
361.083244
30
0
10
71.570592
20
360.993638
30
0
0
SPLINE
5
1C8
100
AcDbEntity
8
engrave
6
ByLayer
62
7
370
-1
100
AcDbSpline
210
0
220
0
230
1
70
8
71
3
72
8
73
4
74
0
42
1e-07
43
1e-07
40
0
40
0
40
0
40
0
40
1
40
1
40
1
40
1
10
71.570592
20
360.993638
30
0
10
71.570592
20
360.923945
30
0
10
71.520811
20
360.869186
30
0
10
71.44614
20
360.869186
30
0
0
SPLINE
5
1C9
100
AcDbEntity
8
engrave
6
ByLayer
62
7
370
-1
100
AcDbSpline
210
0
220
0
230
1
70
8
71
3
72
8
73
4
74
0
42
1e-07
43
1e-07
40
0
40
0
40
0
40
0
40
1
40
1
40
1
40
1
10
71.44614
20
360.869186
30
0
10
71.371469
20
360.869186
30
0
10
71.321688
20
360.918967
30
0
10
71.321688
20
360.98866
30
0
0
LINE
5
1CA
100
AcDbEntity
8
engrave
6
ByLayer
62
7
370
-1
100
AcDbLine
10
71.321688
20
360.98866
11
71.311732
21
360.998616
0
LINE
5
1CB
100
AcDbEntity
8
engrave
6
ByLayer
62
7
370
-1
100
AcDbLine
10
71.311732
20
360.998616
11
71.21217
21
360.998616
0
LINE
5
1CC
100
AcDbEntity
8
engrave
6
ByLayer
62
7
370
-1
100
AcDbLine
10
71.21217
20
360.998616
11
71.202214
21
360.98866
0
SPLINE
5
1CD
100
AcDbEntity
8
engrave
6
ByLayer
62
7
370
-1
100
AcDbSpline
210
0
220
0
230
1
70
8
71
3
72
8
73
4
74
0
42
1e-07
43
1e-07
40
0
40
0
40
0
40
0
40
1
40
1
40
1
40
1
10
71.202214
20
360.98866
30
0
10
71.202214
20
360.864208
30
0
10
71.291819
20
360.75469
30
0
10
71.44614
20
360.75469
30
0
0
SPLINE
5
1CE
100
AcDbEntity
8
engrave
6
ByLayer
62
7
370
-1
100
AcDbSpline
210
0
220
0
230
1
70
8
71
3
72
8
73
4
74
0
42
1e-07
43
1e-07
40
0
40
0
40
0
40
0
40
1
40
1
40
1
40
1
10
71.44614
20
360.75469
30
0
10
71.600461
20
360.75469
30
0
10
71.690066
20
360.879142
30
0
10
71.690066
20
360.993638
30
0
0
SPLINE
5
1CF
100
AcDbEntity
8
engrave
6
ByLayer
62
7
370
-1
100
AcDbSpline
210
0
220
0
230
1
70
8
71
3
72
8
73
4
74
0
42
1e-07
43
1e-07
40
0
40
0
40
0
40
0
40
1
40
1
40
1
40
1
10
71.690066
20
360.993638
30
0
10
71.690066
20
361.120082
30
0
10
71.610417
20
361.217652
30
0
10
71.485965
20
361.231591
30
0
0
LINE
5
1D0
100
AcDbEntity
8
engrave
6
ByLayer
62
7
370
-1
100
AcDbLine
10
71.485965
20
361.231591
11
71.670154
21
361.376951
0
LINE
5
1D1
100
AcDbEntity
8
engrave
6
ByLayer
62
7
370
-1
100
AcDbLine
10
71.670154
20
361.376951
11
71.68011
21
361.386907
0
LINE
5
1D2
100
AcDbEntity
8
engrave
6
ByLayer
62
7
370
-1
100
AcDbLine
10
71.68011
20
361.386907
11
71.68011
21
361.486469
0
LINE
5
1D3
100
AcDbEntity
8
engrave
6
ByLayer
62
7
370
-1
100
AcDbLine
10
71.35753
20
357.825567
11
71.21217
21
357.444246
0
LINE
5
1D4
100
AcDbEntity
8
engrave
6
ByLayer
62
7
370
-1
100
AcDbLine
10
71.21217
20
357.444246
11
71.21217
21
357.347671
0
LINE
5
1D5
100
AcDbEntity
8
engrave
6
ByLayer
62
7
370
-1
100
AcDbLine
10
71.21217
20
357.347671
11
71.222126
21
357.337715
0
LINE
5
1D6
100
AcDbEntity
8
engrave
6
ByLayer
62
7
370
-1
100
AcDbLine
10
71.222126
20
357.337715
11
71.480987
21
357.337715
0
LINE
5
1D7
100
AcDbEntity
8
engrave
6
ByLayer
62
7
370
-1
100
AcDbLine
10
71.480987
20
357.337715
11
71.480987
21
357.118679
0
LINE
5
1D8
100
AcDbEntity
8
engrave
6
ByLayer
62
7
370
-1
100
AcDbLine
10
71.480987
20
357.118679
11
71.490943
21
357.108723
0
LINE
5
1D9
100
AcDbEntity
8
engrave
6
ByLayer
62
7
370
-1
100
AcDbLine
10
71.490943
20
357.108723
11
71.590505
21
357.108723
0
LINE
5
1DA
100
AcDbEntity
8
engrave
6
ByLayer
62
7
370
-1
100
AcDbLine
10
71.590505
20
357.108723
11
71.600461
21
357.118679
0
LINE
5
1DB
100
AcDbEntity
8
engrave
6
ByLayer
62
7
370
-1
100
AcDbLine
10
71.600461
20
357.118679
11
71.600461
21
357.337715
0
LINE
5
1DC
100
AcDbEntity
8
engrave
6
ByLayer
62
7
370
-1
100
AcDbLine
10
71.600461
20
357.337715
11
71.67115
21
357.337715
0
LINE
5
1DD
100
AcDbEntity
8
engrave
6
ByLayer
62
7
370
-1
100
AcDbLine
10
71.67115
20
357.337715
11
71.68011
21
357.347671
0
LINE
5
1DE
100
AcDbEntity
8
engrave
6
ByLayer
62
7
370
-1
100
AcDbLine
10
71.68011
20
357.347671
11
71.68011
21
357.445241
0
LINE
5
1DF
100
AcDbEntity
8
engrave
6
ByLayer
62
7
370
-1
100
AcDbLine
10
71.68011
20
357.445241
11
71.670154
21
357.455198
0
LINE
5
1E0
100
AcDbEntity
8
engrave
6
ByLayer
62
7
370
-1
100
AcDbLine
10
71.670154
20
357.455198
11
71.600461
21
357.455198
0
LINE
5
1E1
100
AcDbEntity
8
engrave
6
ByLayer
62
7
370
-1
100
AcDbLine
10
71.600461
20
357.455198
11
71.600461
21
357.676225
0
LINE
5
1E2
100
AcDbEntity
8
engrave
6
ByLayer
62
7
370
-1
100
AcDbLine
10
71.600461
20
357.676225
11
71.590505
21
357.686181
0
LINE
5
1E3
100
AcDbEntity
8
engrave
6
ByLayer
62
7
370
-1
100
AcDbLine
10
71.590505
20
357.686181
11
71.490943
21
357.686181
0
LINE
5
1E4
100
AcDbEntity
8
engrave
6
ByLayer
62
7
370
-1
100
AcDbLine
10
71.490943
20
357.686181
11
71.480987
21
357.676225
0
LINE
5
1E5
100
AcDbEntity
8
engrave
6
ByLayer
62
7
370
-1
100
AcDbLine
10
71.480987
20
357.676225
11
71.480987
21
357.455198
0
LINE
5
1E6
100
AcDbEntity
8
engrave
6
ByLayer
62
7
370
-1
100
AcDbLine
10
71.480987
20
357.455198
11
71.336622
21
357.455198
0
LINE
5
1E7
100
AcDbEntity
8
engrave
6
ByLayer
62
7
370
-1
100
AcDbLine
10
71.336622
20
357.455198
11
71.47103
21
357.815611
0
LINE
5
1E8
100
AcDbEntity
8
engrave
6
ByLayer
62
7
370
-1
100
AcDbLine
10
71.47103
20
357.815611
11
71.47103
21
357.835523
0
LINE
5
1E9
100
AcDbEntity
8
engrave
6
ByLayer
62
7
370
-1
100
AcDbLine
10
71.47103
20
357.835523
11
71.366491
21
357.835523
0
LINE
5
1EA
100
AcDbEntity
8
engrave
6
ByLayer
62
7
370
-1
100
AcDbLine
10
71.366491
20
357.835523
11
71.35753
21
357.825567
0
LINE
5
1EB
100
AcDbEntity
8
engrave
6
ByLayer
62
7
370
-1
100
AcDbLine
10
71.248666
20
342.547835
11
71.297452
21
342.667309
0
LINE
5
1EC
100
AcDbEntity
8
engrave
6
ByLayer
62
7
370
-1
100
AcDbLine
10
71.297452
20
342.667309
11
71.567264
21
342.667309
0
LINE
5
1ED
100
AcDbEntity
8
engrave
6
ByLayer
62
7
370
-1
100
AcDbLine
10
71.567264
20
342.667309
11
71.57722
21
342.677265
0
LINE
5
1EE
100
AcDbEntity
8
engrave
6
ByLayer
62
7
370
-1
100
AcDbLine
10
71.57722
20
342.677265
11
71.57722
21
342.776827
0
LINE
5
1EF
100
AcDbEntity
8
engrave
6
ByLayer
62
7
370
-1
100
AcDbLine
10
71.57722
20
342.776827
11
71.567264
21
342.786783
0
LINE
5
1F0
100
AcDbEntity
8
engrave
6
ByLayer
62
7
370
-1
100
AcDbLine
10
71.567264
20
342.786783
11
71.223776
21
342.786783
0
LINE
5
1F1
100
AcDbEntity
8
engrave
6
ByLayer
62
7
370
-1
100
AcDbLine
10
71.223776
20
342.786783
11
71.21382
21
342.776827
0
LINE
5
1F2
100
AcDbEntity
8
engrave
6
ByLayer
62
7
370
-1
100
AcDbLine
10
71.21382
20
342.776827
11
71.129192
21
342.547835
0
LINE
5
1F3
100
AcDbEntity
8
engrave
6
ByLayer
62
7
370
-1
100
AcDbLine
10
71.129192
20
342.547835
11
71.129192
21
342.537878
0
LINE
5
1F4
100
AcDbEntity
8
engrave
6
ByLayer
62
7
370
-1
100
AcDbLine
10
71.129192
20
342.537878
11
71.178973
21
342.439312
0
LINE
5
1F5
100
AcDbEntity
8
engrave
6
ByLayer
62
7
370
-1
100
AcDbLine
10
71.178973
20
342.439312
11
71.188929
21
342.429356
0
LINE
5
1F6
100
AcDbEntity
8
engrave
6
ByLayer
62
7
370
-1
100
AcDbLine
10
71.188929
20
342.429356
11
71.338272
21
342.429356
0
SPLINE
5
1F7
100
AcDbEntity
8
engrave
6
ByLayer
62
7
370
-1
100
AcDbSpline
210
0
220
0
230
1
70
8
71
3
72
8
73
4
74
0
42
1e-07
43
1e-07
40
0
40
0
40
0
40
0
40
1
40
1
40
1
40
1
10
71.338272
20
342.429356
30
0
10
71.432856
20
342.429356
30
0
10
71.486619
20
342.373602
30
0
10
71.486619
20
342.293952
30
0
0
SPLINE
5
1F8
100
AcDbEntity
8
engrave
6
ByLayer
62
7
370
-1
100
AcDbSpline
210
0
220
0
230
1
70
8
71
3
72
8
73
4
74
0
42
1e-07
43
1e-07
40
0
40
0
40
0
40
0
40
1
40
1
40
1
40
1
10
71.486619
20
342.293952
30
0
10
71.486619
20
342.219281
30
0
10
71.432856
20
342.167509
30
0
10
71.353206
20
342.167509
30
0
0
SPLINE
5
1F9
100
AcDbEntity
8
engrave
6
ByLayer
62
7
370
-1
100
AcDbSpline
210
0
220
0
230
1
70
8
71
3
72
8
73
4
74
0
42
1e-07
43
1e-07
40
0
40
0
40
0
40
0
40
1
40
1
40
1
40
1
10
71.353206
20
342.167509
30
0
10
71.274552
20
342.167509
30
0
10
71.223776
20
342.224259
30
0
10
71.218798
20
342.29893
30
0
0
LINE
5
1FA
100
AcDbEntity
8
engrave
6
ByLayer
62
7
370
-1
100
AcDbLine
10
71.218798
20
342.29893
11
71.208842
21
342.308886
0
LINE
5
1FB
100
AcDbEntity
8
engrave
6
ByLayer
62
7
370
-1
100
AcDbLine
10
71.208842
20
342.308886
11
71.10928
21
342.308886
0
LINE
5
1FC
100
AcDbEntity
8
engrave
6
ByLayer
62
7
370
-1
100
AcDbLine
10
71.10928
20
342.308886
11
71.099324
21
342.29893
0
SPLINE
5
1FD
100
AcDbEntity
8
engrave
6
ByLayer
62
7
370
-1
100
AcDbSpline
210
0
220
0
230
1
70
8
71
3
72
8
73
4
74
0
42
1e-07
43
1e-07
40
0
40
0
40
0
40
0
40
1
40
1
40
1
40
1
10
71.099324
20
342.29893
30
0
10
71.099324
20
342.149588
30
0
10
71.21382
20
342.045048
30
0
10
71.353206
20
342.045048
30
0
0
SPLINE
5
1FE
100
AcDbEntity
8
engrave
6
ByLayer
62
7
370
-1
100
AcDbSpline
210
0
220
0
230
1
70
8
71
3
72
8
73
4
74
0
42
1e-07
43
1e-07
40
0
40
0
40
0
40
0
40
1
40
1
40
1
40
1
10
71.353206
20
342.045048
30
0
10
71.492593
20
342.045048
30
0
10
71.607089
20
342.149588
30
0
10
71.607089
20
342.293952
30
0
0
SPLINE
5
1FF
100
AcDbEntity
8
engrave
6
ByLayer
62
7
370
-1
100
AcDbSpline
210
0
220
0
230
1
70
8
71
3
72
8
73
4
74
0
42
1e-07
43
1e-07
40
0
40
0
40
0
40
0
40
1
40
1
40
1
40
1
10
71.607089
20
342.293952
30
0
10
71.607089
20
342.463206
30
0
10
71.496575
20
342.547835
30
0
10
71.338272
20
342.547835
30
0
0
LINE
5
200
100
AcDbEntity
8
engrave
6
ByLayer
62
7
370
-1
100
AcDbLine
10
71.338272
20
342.547835
11
71.248666
21
342.547835
0
SPLINE
5
201
100
AcDbEntity
8
engrave
6
ByLayer
62
7
370
-1
100
AcDbSpline
210
0
220
0
230
1
70
8
71
3
72
8
73
4
74
0
42
1e-07
43
1e-07
40
0
40
0
40
0
40
0
40
1
40
1
40
1
40
1
10
62.55738
20
344.546831
30
0
10
62.482709
20
344.546831
30
0
10
62.430937
20
344.602586
30
0
10
62.430937
20
344.672279
30
0
0
SPLINE
5
202
100
AcDbEntity
8
engrave
6
ByLayer
62
7
370
-1
100
AcDbSpline
210
0
220
0
230
1
70
8
71
3
72
8
73
4
74
0
42
1e-07
43
1e-07
40
0
40
0
40
0
40
0
40
1
40
1
40
1
40
1
10
62.430937
20
344.672279
30
0
10
62.430937
20
344.751928
30
0
10
62.492665
20
344.798722
30
0
10
62.55738
20
344.798722
30
0
0
SPLINE
5
203
100
AcDbEntity
8
engrave
6
ByLayer
62
7
370
-1
100
AcDbSpline
210
0
220
0
230
1
70
8
71
3
72
8
73
4
74
0
42
1e-07
43
1e-07
40
0
40
0
40
0
40
0
40
1
40
1
40
1
40
1
10
62.55738
20
344.798722
30
0
10
62.635038
20
344.798722
30
0
10
62.681832
20
344.74695
30
0
10
62.681832
20
344.672279
30
0
0
SPLINE
5
204
100
AcDbEntity
8
engrave
6
ByLayer
62
7
370
-1
100
AcDbSpline
210
0
220
0
230
1
70
8
71
3
72
8
73
4
74
0
42
1e-07
43
1e-07
40
0
40
0
40
0
40
0
40
1
40
1
40
1
40
1
10
62.681832
20
344.672279
30
0
10
62.681832
20
344.597607
30
0
10
62.635038
20
344.546831
30
0
10
62.55738
20
344.546831
30
0
0
SPLINE
5
205
100
AcDbEntity
8
engrave
6
ByLayer
62
7
370
-1
100
AcDbSpline
210
0
220
0
230
1
70
8
71
3
72
8
73
4
74
0
42
1e-07
43
1e-07
40
0
40
0
40
0
40
0
40
1
40
1
40
1
40
1
10
62.299515
20
344.811665
30
0
10
62.299515
20
344.766862
30
0
10
62.303498
20
344.692191
30
0
10
62.310467
20
344.647388
30
0
0
SPLINE
5
206
100
AcDbEntity
8
engrave
6
ByLayer
62
7
370
-1
100
AcDbSpline
210
0
220
0
230
1
70
8
71
3
72
8
73
4
74
0
42
1e-07
43
1e-07
40
0
40
0
40
0
40
0
40
1
40
1
40
1
40
1
10
62.310467
20
344.647388
30
0
10
62.329384
20
344.522936
30
0
10
62.423968
20
344.433331
30
0
10
62.55738
20
344.433331
30
0
0
SPLINE
5
207
100
AcDbEntity
8
engrave
6
ByLayer
62
7
370
-1
100
AcDbSpline
210
0
220
0
230
1
70
8
71
3
72
8
73
4
74
0
42
1e-07
43
1e-07
40
0
40
0
40
0
40
0
40
1
40
1
40
1
40
1
10
62.55738
20
344.433331
30
0
10
62.711701
20
344.433331
30
0
10
62.801307
20
344.547827
30
0
10
62.801307
20
344.672279
30
0
0
SPLINE
5
208
100
AcDbEntity
8
engrave
6
ByLayer
62
7
370
-1
100
AcDbSpline
210
0
220
0
230
1
70
8
71
3
72
8
73
4
74
0
42
1e-07
43
1e-07
40
0
40
0
40
0
40
0
40
1
40
1
40
1
40
1
10
62.801307
20
344.672279
30
0
10
62.801307
20
344.796731
30
0
10
62.716679
20
344.911227
30
0
10
62.572315
20
344.911227
30
0
0
SPLINE
5
209
100
AcDbEntity
8
engrave
6
ByLayer
62
7
370
-1
100
AcDbSpline
210
0
220
0
230
1
70
8
71
3
72
8
73
4
74
0
42
1e-07
43
1e-07
40
0
40
0
40
0
40
0
40
1
40
1
40
1
40
1
10
62.572315
20
344.911227
30
0
10
62.502621
20
344.911227
30
0
10
62.449854
20
344.881358
30
0
10
62.413016
20
344.841534
30
0
0
SPLINE
5
20A
100
AcDbEntity
8
engrave
6
ByLayer
62
7
370
-1
100
AcDbSpline
210
0
220
0
230
1
70
8
71
3
72
8
73
4
74
0
42
1e-07
43
1e-07
40
0
40
0
40
0
40
0
40
1
40
1
40
1
40
1
10
62.413016
20
344.841534
30
0
10
62.41202
20
344.935122
30
0
10
62.426954
20
345.078491
30
0
10
62.55738
20
345.078491
30
0
0
SPLINE
5
20B
100
AcDbEntity
8
engrave
6
ByLayer
62
7
370
-1
100
AcDbSpline
210
0
220
0
230
1
70
8
71
3
72
8
73
4
74
0
42
1e-07
43
1e-07
40
0
40
0
40
0
40
0
40
1
40
1
40
1
40
1
10
62.55738
20
345.078491
30
0
10
62.617117
20
345.078491
30
0
10
62.66192
20
345.045635
30
0
10
62.66192
20
344.975942
30
0
0
LINE
5
20C
100
AcDbEntity
8
engrave
6
ByLayer
62
7
370
-1
100
AcDbLine
10
62.66192
20
344.975942
11
62.671876
21
344.965986
0
LINE
5
20D
100
AcDbEntity
8
engrave
6
ByLayer
62
7
370
-1
100
AcDbLine
10
62.671876
20
344.965986
11
62.771438
21
344.965986
0
LINE
5
20E
100
AcDbEntity
8
engrave
6
ByLayer
62
7
370
-1
100
AcDbLine
10
62.771438
20
344.965986
11
62.781394
21
344.975942
0
SPLINE
5
20F
100
AcDbEntity
8
engrave
6
ByLayer
62
7
370
-1
100
AcDbSpline
210
0
220
0
230
1
70
8
71
3
72
8
73
4
74
0
42
1e-07
43
1e-07
40
0
40
0
40
0
40
0
40
1
40
1
40
1
40
1
10
62.781394
20
344.975942
30
0
10
62.781394
20
345.11035
30
0
10
62.67785
20
345.19
30
0
10
62.55738
20
345.19
30
0
0
SPLINE
5
210
100
AcDbEntity
8
engrave
6
ByLayer
62
7
370
-1
100
AcDbSpline
210
0
220
0
230
1
70
8
71
3
72
8
73
4
74
0
42
1e-07
43
1e-07
40
0
40
0
40
0
40
0
40
1
40
1
40
1
40
1
10
62.55738
20
345.19
30
0
10
62.421976
20
345.19
30
0
10
62.336353
20
345.095416
30
0
10
62.313454
20
344.975942
30
0
0
SPLINE
5
211
100
AcDbEntity
8
engrave
6
ByLayer
62
7
370
-1
100
AcDbSpline
210
0
220
0
230
1
70
8
71
3
72
8
73
4
74
0
42
1e-07
43
1e-07
40
0
40
0
40
0
40
0
40
1
40
1
40
1
40
1
10
62.313454
20
344.975942
30
0
10
62.305489
20
344.936117
30
0
10
62.299515
20
344.856468
30
0
10
62.299515
20
344.811665
30
0
0
SPLINE
5
212
100
AcDbEntity
8
engrave
6
ByLayer
62
7
370
-1
100
AcDbSpline
210
0
220
0
230
1
70
8
71
3
72
8
73
4
74
0
42
1e-07
43
1e-07
40
0
40
0
40
0
40
0
40
1
40
1
40
1
40
1
10
63.067378
20
373.168652
30
0
10
62.759364
20
373.168652
30
0
10
62.509832
20
372.919118
30
0
10
62.509832
20
372.611106
30
0
0
SPLINE
5
213
100
AcDbEntity
8
engrave
6
ByLayer
62
7
370
-1
100
AcDbSpline
210
0
220
0
230
1
70
8
71
3
72
8
73
4
74
0
42
1e-07
43
1e-07
40
0
40
0
40
0
40
0
40
1
40
1
40
1
40
1
10
62.509832
20
372.611106
30
0
10
62.509832
20
372.303093
30
0
10
62.759364
20
372.051072
30
0
10
63.067378
20
372.051072
30
0
0
SPLINE
5
214
100
AcDbEntity
8
engrave
6
ByLayer
62
7
370
-1
100
AcDbSpline
210
0
220
0
230
1
70
8
71
3
72
8
73
4
74
0
42
1e-07
43
1e-07
40
0
40
0
40
0
40
0
40
1
40
1
40
1
40
1
10
63.067378
20
372.051072
30
0
10
63.375389
20
372.051072
30
0
10
63.627412
20
372.303093
30
0
10
63.627412
20
372.611106
30
0
0
SPLINE
5
215
100
AcDbEntity
8
engrave
6
ByLayer
62
7
370
-1
100
AcDbSpline
210
0
220
0
230
1
70
8
71
3
72
8
73
4
74
0
42
1e-07
43
1e-07
40
0
40
0
40
0
40
0
40
1
40
1
40
1
40
1
10
63.627412
20
372.611106
30
0
10
63.627412
20
372.919118
30
0
10
63.375389
20
373.168652
30
0
10
63.067378
20
373.168652
30
0
0
LINE
5
216
100
AcDbEntity
8
engrave
6
ByLayer
62
7
370
-1
100
AcDbLine
10
63.067378
20
373.168652
11
63.067378
21
373.168652
0
SPLINE
5
217
100
AcDbEntity
8
engrave
6
ByLayer
62
7
370
-1
100
AcDbSpline
210
0
220
0
230
1
70
8
71
3
72
8
73
4
74
0
42
1e-07
43
1e-07
40
0
40
0
40
0
40
0
40
1
40
1
40
1
40
1
10
63.020086
20
373.076558
30
0
10
63.035833
20
373.078151
30
0
10
63.051202
20
373.076558
30
0
10
63.067378
20
373.076558
30
0
0
SPLINE
5
218
100
AcDbEntity
8
engrave
6
ByLayer
62
7
370
-1
100
AcDbSpline
210
0
220
0
230
1
70
8
71
3
72
8
73
4
74
0
42
1e-07
43
1e-07
40
0
40
0
40
0
40
0
40
1
40
1
40
1
40
1
10
63.067378
20
373.076558
30
0
10
63.3134
20
373.076558
30
0
10
63.513682
20
372.889421
30
0
10
63.532829
20
372.648442
30
0
0
LINE
5
219
100
AcDbEntity
8
engrave
6
ByLayer
62
7
370
-1
100
AcDbLine
10
63.532829
20
372.648442
11
63.39842
21
372.65342
0
LINE
5
21A
100
AcDbEntity
8
engrave
6
ByLayer
62
7
370
-1
100
AcDbLine
10
63.39842
20
372.65342
11
63.385975
21
372.65342
0
LINE
5
21B
100
AcDbEntity
8
engrave
6
ByLayer
62
7
370
-1
100
AcDbLine
10
63.385975
20
372.65342
11
63.371041
21
372.631019
0
LINE
5
21C
100
AcDbEntity
8
engrave
6
ByLayer
62
7
370
-1
100
AcDbLine
10
63.371041
20
372.631019
11
63.323749
21
372.52399
0
LINE
5
21D
100
AcDbEntity
8
engrave
6
ByLayer
62
7
370
-1
100
AcDbLine
10
63.323749
20
372.52399
11
63.114669
21
372.8625
0
LINE
5
21E
100
AcDbEntity
8
engrave
6
ByLayer
62
7
370
-1
100
AcDbLine
10
63.114669
20
372.8625
11
63.079823
21
372.917259
0
LINE
5
21F
100
AcDbEntity
8
engrave
6
ByLayer
62
7
370
-1
100
AcDbLine
10
63.079823
20
372.917259
11
63.059911
21
372.855033
0
LINE
5
220
100
AcDbEntity
8
engrave
6
ByLayer
62
7
370
-1
100
AcDbLine
10
63.059911
20
372.855033
11
62.937947
21
372.489143
0
LINE
5
221
100
AcDbEntity
8
engrave
6
ByLayer
62
7
370
-1
100
AcDbLine
10
62.937947
20
372.489143
11
62.863276
21
372.65342
0
LINE
5
222
100
AcDbEntity
8
engrave
6
ByLayer
62
7
370
-1
100
AcDbLine
10
62.863276
20
372.65342
11
62.848342
21
372.673333
0
LINE
5
223
100
AcDbEntity
8
engrave
6
ByLayer
62
7
370
-1
100
AcDbLine
10
62.848342
20
372.673333
11
62.835897
21
372.673333
0
LINE
5
224
100
AcDbEntity
8
engrave
6
ByLayer
62
7
370
-1
100
AcDbLine
10
62.835897
20
372.673333
11
62.604416
21
372.673333
0
SPLINE
5
225
100
AcDbEntity
8
engrave
6
ByLayer
62
7
370
-1
100
AcDbSpline
210
0
220
0
230
1
70
8
71
3
72
8
73
4
74
0
42
1e-07
43
1e-07
40
0
40
0
40
0
40
0
40
1
40
1
40
1
40
1
10
62.604416
20
372.673333
30
0
10
62.633229
20
372.886361
30
0
10
62.804872
20
373.05477
30
0
10
63.020086
20
373.076558
30
0
0
LINE
5
226
100
AcDbEntity
8
engrave
6
ByLayer
62
7
370
-1
100
AcDbLine
10
63.020086
20
373.076558
11
63.020086
21
373.076558
0
LINE
5
227
100
AcDbEntity
8
engrave
6
ByLayer
62
7
370
-1
100
AcDbLine
10
63.092268
20
372.775383
11
63.29637
21
372.449319
0
LINE
5
228
100
AcDbEntity
8
engrave
6
ByLayer
62
7
370
-1
100
AcDbLine
10
63.29637
20
372.449319
11
63.323749
21
372.402027
0
LINE
5
229
100
AcDbEntity
8
engrave
6
ByLayer
62
7
370
-1
100
AcDbLine
10
63.323749
20
372.402027
11
63.351129
21
372.449319
0
LINE
5
22A
100
AcDbEntity
8
engrave
6
ByLayer
62
7
370
-1
100
AcDbLine
10
63.351129
20
372.449319
11
63.418333
21
372.591194
0
LINE
5
22B
100
AcDbEntity
8
engrave
6
ByLayer
62
7
370
-1
100
AcDbLine
10
63.418333
20
372.591194
11
63.532829
21
372.586216
0
SPLINE
5
22C
100
AcDbEntity
8
engrave
6
ByLayer
62
7
370
-1
100
AcDbSpline
210
0
220
0
230
1
70
8
71
3
72
8
73
4
74
0
42
1e-07
43
1e-07
40
0
40
0
40
0
40
0
40
1
40
1
40
1
40
1
10
63.532829
20
372.586216
30
0
10
63.520364
20
372.338694
30
0
10
63.318072
20
372.143166
30
0
10
63.067378
20
372.143166
30
0
0
SPLINE
5
22D
100
AcDbEntity
8
engrave
6
ByLayer
62
7
370
-1
100
AcDbSpline
210
0
220
0
230
1
70
8
71
3
72
8
73
4
74
0
42
1e-07
43
1e-07
40
0
40
0
40
0
40
0
40
1
40
1
40
1
40
1
10
63.067378
20
372.143166
30
0
10
62.81019
20
372.143166
30
0
10
62.602021
20
372.349563
30
0
10
62.599438
20
372.606128
30
0
0
LINE
5
22E
100
AcDbEntity
8
engrave
6
ByLayer
62
7
370
-1
100
AcDbLine
10
62.599438
20
372.606128
11
62.808517
21
372.606128
0
LINE
5
22F
100
AcDbEntity
8
engrave
6
ByLayer
62
7
370
-1
100
AcDbLine
10
62.808517
20
372.606128
11
62.910568
21
372.387093
0
LINE
5
230
100
AcDbEntity
8
engrave
6
ByLayer
62
7
370
-1
100
AcDbLine
10
62.910568
20
372.387093
11
62.942925
21
372.319888
0
LINE
5
231
100
AcDbEntity
8
engrave
6
ByLayer
62
7
370
-1
100
AcDbLine
10
62.942925
20
372.319888
11
62.970305
21
372.39456
0
LINE
5
232
100
AcDbEntity
8
engrave
6
ByLayer
62
7
370
-1
100
AcDbLine
10
62.970305
20
372.39456
11
63.092268
21
372.775383
0
LINE
5
233
100
AcDbEntity
8
engrave
6
ByLayer
62
7
370
-1
100
AcDbLine
10
63.092268
20
372.775383
11
63.092268
21
372.775383
0
LINE
5
234
100
AcDbEntity
8
engrave
6
ByLayer
62
7
370
-1
100
AcDbLine
10
62.415248
20
373.48725
11
62.372935
21
373.447425
0
LINE
5
235
100
AcDbEntity
8
engrave
6
ByLayer
62
7
370
-1
100
AcDbLine
10
62.372935
20
373.447425
11
62.659175
21
373.178608
0
LINE
5
236
100
AcDbEntity
8
engrave
6
ByLayer
62
7
370
-1
100
AcDbLine
10
62.659175
20
373.178608
11
62.614372
21
373.133806
0
LINE
5
237
100
AcDbEntity
8
engrave
6
ByLayer
62
7
370
-1
100
AcDbLine
10
62.614372
20
373.133806
11
62.706466
21
373.111404
0
LINE
5
238
100
AcDbEntity
8
engrave
6
ByLayer
62
7
370
-1
100
AcDbLine
10
62.706466
20
373.111404
11
62.798561
21
373.089003
0
LINE
5
239
100
AcDbEntity
8
engrave
6
ByLayer
62
7
370
-1
100
AcDbLine
10
62.798561
20
373.089003
11
62.773671
21
373.181097
0
LINE
5
23A
100
AcDbEntity
8
engrave
6
ByLayer
62
7
370
-1
100
AcDbLine
10
62.773671
20
373.181097
11
62.746291
21
373.270703
0
LINE
5
23B
100
AcDbEntity
8
engrave
6
ByLayer
62
7
370
-1
100
AcDbLine
10
62.746291
20
373.270703
11
62.701488
21
373.223411
0
LINE
5
23C
100
AcDbEntity
8
engrave
6
ByLayer
62
7
370
-1
100
AcDbLine
10
62.701488
20
373.223411
11
62.415248
21
373.48725
0
LINE
5
23D
100
AcDbEntity
8
engrave
6
ByLayer
62
7
370
-1
100
AcDbLine
10
62.415248
20
373.48725
11
62.415248
21
373.48725
0
LINE
5
23E
100
AcDbEntity
8
engrave
6
ByLayer
62
7
370
-1
100
AcDbLine
10
62.295774
20
373.310528
11
62.248482
21
373.263236
0
LINE
5
23F
100
AcDbEntity
8
engrave
6
ByLayer
62
7
370
-1
100
AcDbLine
10
62.248482
20
373.263236
11
62.48992
21
373.039222
0
LINE
5
240
100
AcDbEntity
8
engrave
6
ByLayer
62
7
370
-1
100
AcDbLine
10
62.48992
20
373.039222
11
62.445117
21
372.99193
0
LINE
5
241
100
AcDbEntity
8
engrave
6
ByLayer
62
7
370
-1
100
AcDbLine
10
62.445117
20
372.99193
11
62.537211
21
372.969529
0
LINE
5
242
100
AcDbEntity
8
engrave
6
ByLayer
62
7
370
-1
100
AcDbLine
10
62.537211
20
372.969529
11
62.629306
21
372.947127
0
LINE
5
243
100
AcDbEntity
8
engrave
6
ByLayer
62
7
370
-1
100
AcDbLine
10
62.629306
20
372.947127
11
62.601927
21
373.039222
0
LINE
5
244
100
AcDbEntity
8
engrave
6
ByLayer
62
7
370
-1
100
AcDbLine
10
62.601927
20
373.039222
11
62.577036
21
373.128827
0
LINE
5
245
100
AcDbEntity
8
engrave
6
ByLayer
62
7
370
-1
100
AcDbLine
10
62.577036
20
373.128827
11
62.534722
21
373.086514
0
LINE
5
246
100
AcDbEntity
8
engrave
6
ByLayer
62
7
370
-1
100
AcDbLine
10
62.534722
20
373.086514
11
62.295774
21
373.310528
0
LINE
5
247
100
AcDbEntity
8
engrave
6
ByLayer
62
7
370
-1
100
AcDbLine
10
62.295774
20
373.310528
11
62.295774
21
373.310528
0
SPLINE
5
248
100
AcDbEntity
8
engrave
6
ByLayer
62
7
370
-1
100
AcDbSpline
210
0
220
0
230
1
70
8
71
3
72
8
73
4
74
0
42
1e-07
43
1e-07
40
0
40
0
40
0
40
0
40
1
40
1
40
1
40
1
10
63.363575
20
373.962656
30
0
10
63.194845
20
373.962656
30
0
10
63.057422
20
373.825234
30
0
10
63.057422
20
373.656504
30
0
0
SPLINE
5
249
100
AcDbEntity
8
engrave
6
ByLayer
62
7
370
-1
100
AcDbSpline
210
0
220
0
230
1
70
8
71
3
72
8
73
4
74
0
42
1e-07
43
1e-07
40
0
40
0
40
0
40
0
40
1
40
1
40
1
40
1
10
63.057422
20
373.656504
30
0
10
63.057422
20
373.487772
30
0
10
63.194845
20
373.350352
30
0
10
63.363575
20
373.350352
30
0
0
SPLINE
5
24A
100
AcDbEntity
8
engrave
6
ByLayer
62
7
370
-1
100
AcDbSpline
210
0
220
0
230
1
70
8
71
3
72
8
73
4
74
0
42
1e-07
43
1e-07
40
0
40
0
40
0
40
0
40
1
40
1
40
1
40
1
10
63.363575
20
373.350352
30
0
10
63.490962
20
373.350352
30
0
10
63.598982
20
373.428704
30
0
10
63.644837
20
373.539519
30
0
0
LINE
5
24B
100
AcDbEntity
8
engrave
6
ByLayer
62
7
370
-1
100
AcDbLine
10
63.644837
20
373.539519
11
64.433863
21
373.539519
0
LINE
5
24C
100
AcDbEntity
8
engrave
6
ByLayer
62
7
370
-1
100
AcDbLine
10
64.433863
20
373.539519
11
64.433863
21
371.87186
0
LINE
5
24D
100
AcDbEntity
8
engrave
6
ByLayer
62
7
370
-1
100
AcDbLine
10
64.433863
20
371.87186
11
64.655388
21
371.87186
0
LINE
5
24E
100
AcDbEntity
8
engrave
6
ByLayer
62
7
370
-1
100
AcDbLine
10
64.655388
20
371.87186
11
64.655388
21
373.539519
0
LINE
5
24F
100
AcDbEntity
8
engrave
6
ByLayer
62
7
370
-1
100
AcDbLine
10
64.655388
20
373.539519
11
66.365361
21
373.539519
0
LINE
5
250
100
AcDbEntity
8
engrave
6
ByLayer
62
7
370
-1
100
AcDbLine
10
66.365361
20
373.539519
11
66.365361
21
372.947127
0
LINE
5
251
100
AcDbEntity
8
engrave
6
ByLayer
62
7
370
-1
100
AcDbLine
10
66.365361
20
372.947127
11
66.596842
21
372.947127
0
LINE
5
252
100
AcDbEntity
8
engrave
6
ByLayer
62
7
370
-1
100
AcDbLine
10
66.596842
20
372.947127
11
66.596842
21
373.539519
0
LINE
5
253
100
AcDbEntity
8
engrave
6
ByLayer
62
7
370
-1
100
AcDbLine
10
66.596842
20
373.539519
11
68.764799
21
373.539519
0
LINE
5
254
100
AcDbEntity
8
engrave
6
ByLayer
62
7
370
-1
100
AcDbLine
10
68.764799
20
373.539519
11
68.774755
21
371.757364
0
LINE
5
255
100
AcDbEntity
8
engrave
6
ByLayer
62
7
370
-1
100
AcDbLine
10
68.774755
20
371.757364
11
68.993791
21
371.757364
0
LINE
5
256
100
AcDbEntity
8
engrave
6
ByLayer
62
7
370
-1
100
AcDbLine
10
68.993791
20
371.757364
11
68.993791
21
373.654015
0
LINE
5
257
100
AcDbEntity
8
engrave
6
ByLayer
62
7
370
-1
100
AcDbLine
10
68.993791
20
373.654015
11
68.993791
21
373.768511
0
LINE
5
258
100
AcDbEntity
8
engrave
6
ByLayer
62
7
370
-1
100
AcDbLine
10
68.993791
20
373.768511
11
68.879295
21
373.768511
0
LINE
5
259
100
AcDbEntity
8
engrave
6
ByLayer
62
7
370
-1
100
AcDbLine
10
68.879295
20
373.768511
11
63.647326
21
373.768511
0
SPLINE
5
25A
100
AcDbEntity
8
engrave
6
ByLayer
62
7
370
-1
100
AcDbSpline
210
0
220
0
230
1
70
8
71
3
72
8
73
4
74
0
42
1e-07
43
1e-07
40
0
40
0
40
0
40
0
40
1
40
1
40
1
40
1
10
63.647326
20
373.768511
30
0
10
63.602737
20
373.882011
30
0
10
63.492896
20
373.962656
30
0
10
63.363575
20
373.962656
30
0
0
LINE
5
25B
100
AcDbEntity
8
engrave
6
ByLayer
62
7
370
-1
100
AcDbLine
10
63.363575
20
373.962656
11
63.363575
21
373.962656
0
LINE
5
25C
100
AcDbEntity
8
engrave
6
ByLayer
62
7
370
-1
100
AcDbLine
10
60.959317
20
356.171412
11
60.971745
21
356.158984
0
LINE
5
25D
100
AcDbEntity
8
engrave
6
ByLayer
62
7
370
-1
100
AcDbLine
10
60.971745
20
356.158984
11
61.85413
21
356.252194
0
LINE
5
25E
100
AcDbEntity
8
engrave
6
ByLayer
62
7
370
-1
100
AcDbLine
10
61.85413
20
356.252194
11
61.866558
21
356.264622
0
LINE
5
25F
100
AcDbEntity
8
engrave
6
ByLayer
62
7
370
-1
100
AcDbLine
10
61.866558
20
356.264622
11
61.866558
21
356.407543
0
LINE
5
260
100
AcDbEntity
8
engrave
6
ByLayer
62
7
370
-1
100
AcDbLine
10
61.866558
20
356.407543
11
61.85413
21
356.419971
0
LINE
5
261
100
AcDbEntity
8
engrave
6
ByLayer
62
7
370
-1
100
AcDbLine
10
61.85413
20
356.419971
11
61.388081
21
356.500753
0
LINE
5
262
100
AcDbEntity
8
engrave
6
ByLayer
62
7
370
-1
100
AcDbLine
10
61.388081
20
356.500753
11
61.85413
21
356.581535
0
LINE
5
263
100
AcDbEntity
8
engrave
6
ByLayer
62
7
370
-1
100
AcDbLine
10
61.85413
20
356.581535
11
61.866558
21
356.593963
0
LINE
5
264
100
AcDbEntity
8
engrave
6
ByLayer
62
7
370
-1
100
AcDbLine
10
61.866558
20
356.593963
11
61.866558
21
356.736884
0
LINE
5
265
100
AcDbEntity
8
engrave
6
ByLayer
62
7
370
-1
100
AcDbLine
10
61.866558
20
356.736884
11
61.85413
21
356.749312
0
LINE
5
266
100
AcDbEntity
8
engrave
6
ByLayer
62
7
370
-1
100
AcDbLine
10
61.85413
20
356.749312
11
60.971745
21
356.842522
0
LINE
5
267
100
AcDbEntity
8
engrave
6
ByLayer
62
7
370
-1
100
AcDbLine
10
60.971745
20
356.842522
11
60.959317
21
356.830094
0
LINE
5
268
100
AcDbEntity
8
engrave
6
ByLayer
62
7
370
-1
100
AcDbLine
10
60.959317
20
356.830094
11
60.959317
21
356.710785
0
LINE
5
269
100
AcDbEntity
8
engrave
6
ByLayer
62
7
370
-1
100
AcDbLine
10
60.959317
20
356.710785
11
60.971745
21
356.698358
0
LINE
5
26A
100
AcDbEntity
8
engrave
6
ByLayer
62
7
370
-1
100
AcDbLine
10
60.971745
20
356.698358
11
61.568287
21
356.652374
0
LINE
5
26B
100
AcDbEntity
8
engrave
6
ByLayer
62
7
370
-1
100
AcDbLine
10
61.568287
20
356.652374
11
61.170592
21
356.577806
0
LINE
5
26C
100
AcDbEntity
8
engrave
6
ByLayer
62
7
370
-1
100
AcDbLine
10
61.170592
20
356.577806
11
61.158164
21
356.565378
0
LINE
5
26D
100
AcDbEntity
8
engrave
6
ByLayer
62
7
370
-1
100
AcDbLine
10
61.158164
20
356.565378
11
61.158164
21
356.436128
0
LINE
5
26E
100
AcDbEntity
8
engrave
6
ByLayer
62
7
370
-1
100
AcDbLine
10
61.158164
20
356.436128
11
61.170592
21
356.4237
0
LINE
5
26F
100
AcDbEntity
8
engrave
6
ByLayer
62
7
370
-1
100
AcDbLine
10
61.170592
20
356.4237
11
61.568287
21
356.347889
0
LINE
5
270
100
AcDbEntity
8
engrave
6
ByLayer
62
7
370
-1
100
AcDbLine
10
61.568287
20
356.347889
11
60.971745
21
356.303149
0
LINE
5
271
100
AcDbEntity
8
engrave
6
ByLayer
62
7
370
-1
100
AcDbLine
10
60.971745
20
356.303149
11
60.959317
21
356.290721
0
LINE
5
272
100
AcDbEntity
8
engrave
6
ByLayer
62
7
370
-1
100
AcDbLine
10
60.959317
20
356.290721
11
60.959317
21
356.171412
0
SPLINE
5
273
100
AcDbEntity
8
engrave
6
ByLayer
62
7
370
-1
100
AcDbSpline
210
0
220
0
230
1
70
8
71
3
72
8
73
4
74
0
42
1e-07
43
1e-07
40
0
40
0
40
0
40
0
40
1
40
1
40
1
40
1
10
61.574501
20
356.936799
30
0
10
61.767134
20
356.936799
30
0
10
61.8852
20
357.085935
30
0
10
61.8852
20
357.247498
30
0
0
SPLINE
5
274
100
AcDbEntity
8
engrave
6
ByLayer
62
7
370
-1
100
AcDbSpline
210
0
220
0
230
1
70
8
71
3
72
8
73
4
74
0
42
1e-07
43
1e-07
40
0
40
0
40
0
40
0
40
1
40
1
40
1
40
1
10
61.8852
20
357.247498
30
0
10
61.8852
20
357.409062
30
0
10
61.767134
20
357.558197
30
0
10
61.574501
20
357.558197
30
0
0
SPLINE
5
275
100
AcDbEntity
8
engrave
6
ByLayer
62
7
370
-1
100
AcDbSpline
210
0
220
0
230
1
70
8
71
3
72
8
73
4
74
0
42
1e-07
43
1e-07
40
0
40
0
40
0
40
0
40
1
40
1
40
1
40
1
10
61.574501
20
357.558197
30
0
10
61.381868
20
357.558197
30
0
10
61.263802
20
357.409062
30
0
10
61.263802
20
357.247498
30
0
0
SPLINE
5
276
100
AcDbEntity
8
engrave
6
ByLayer
62
7
370
-1
100
AcDbSpline
210
0
220
0
230
1
70
8
71
3
72
8
73
4
74
0
42
1e-07
43
1e-07
40
0
40
0
40
0
40
0
40
1
40
1
40
1
40
1
10
61.263802
20
357.247498
30
0
10
61.263802
20
357.085935
30
0
10
61.381868
20
356.936799
30
0
10
61.574501
20
356.936799
30
0
0
SPLINE
5
277
100
AcDbEntity
8
engrave
6
ByLayer
62
7
370
-1
100
AcDbSpline
210
0
220
0
230
1
70
8
71
3
72
8
73
4
74
0
42
1e-07
43
1e-07
40
0
40
0
40
0
40
0
40
1
40
1
40
1
40
1
10
61.574501
20
357.084692
30
0
10
61.475077
20
357.084692
30
0
10
61.400509
20
357.148074
30
0
10
61.400509
20
357.247498
30
0
0
SPLINE
5
278
100
AcDbEntity
8
engrave
6
ByLayer
62
7
370
-1
100
AcDbSpline
210
0
220
0
230
1
70
8
71
3
72
8
73
4
74
0
42
1e-07
43
1e-07
40
0
40
0
40
0
40
0
40
1
40
1
40
1
40
1
10
61.400509
20
357.247498
30
0
10
61.400509
20
357.346922
30
0
10
61.475077
20
357.410304
30
0
10
61.574501
20
357.410304
30
0
0
SPLINE
5
279
100
AcDbEntity
8
engrave
6
ByLayer
62
7
370
-1
100
AcDbSpline
210
0
220
0
230
1
70
8
71
3
72
8
73
4
74
0
42
1e-07
43
1e-07
40
0
40
0
40
0
40
0
40
1
40
1
40
1
40
1
10
61.574501
20
357.410304
30
0
10
61.673924
20
357.410304
30
0
10
61.748492
20
357.346922
30
0
10
61.748492
20
357.247498
30
0
0
SPLINE
5
27A
100
AcDbEntity
8
engrave
6
ByLayer
62
7
370
-1
100
AcDbSpline
210
0
220
0
230
1
70
8
71
3
72
8
73
4
74
0
42
1e-07
43
1e-07
40
0
40
0
40
0
40
0
40
1
40
1
40
1
40
1
10
61.748492
20
357.247498
30
0
10
61.748492
20
357.148074
30
0
10
61.673924
20
357.084692
30
0
10
61.574501
20
357.084692
30
0
0
LINE
5
27B
100
AcDbEntity
8
engrave
6
ByLayer
62
7
370
-1
100
AcDbLine
10
61.294872
20
357.689079
11
61.85413
21
357.689079
0
LINE
5
27C
100
AcDbEntity
8
engrave
6
ByLayer
62
7
370
-1
100
AcDbLine
10
61.85413
20
357.689079
11
61.866558
21
357.701507
0
LINE
5
27D
100
AcDbEntity
8
engrave
6
ByLayer
62
7
370
-1
100
AcDbLine
10
61.866558
20
357.701507
11
61.866558
21
357.825787
0
LINE
5
27E
100
AcDbEntity
8
engrave
6
ByLayer
62
7
370
-1
100
AcDbLine
10
61.866558
20
357.825787
11
61.85413
21
357.838215
0
LINE
5
27F
100
AcDbEntity
8
engrave
6
ByLayer
62
7
370
-1
100
AcDbLine
10
61.85413
20
357.838215
11
61.531003
21
357.838215
0
SPLINE
5
280
100
AcDbEntity
8
engrave
6
ByLayer
62
7
370
-1
100
AcDbSpline
210
0
220
0
230
1
70
8
71
3
72
8
73
4
74
0
42
1e-07
43
1e-07
40
0
40
0
40
0
40
0
40
1
40
1
40
1
40
1
10
61.531003
20
357.838215
30
0
10
61.458921
20
357.8407
30
0
10
61.398024
20
357.895383
30
0
10
61.398024
20
357.974922
30
0
0
SPLINE
5
281
100
AcDbEntity
8
engrave
6
ByLayer
62
7
370
-1
100
AcDbSpline
210
0
220
0
230
1
70
8
71
3
72
8
73
4
74
0
42
1e-07
43
1e-07
40
0
40
0
40
0
40
0
40
1
40
1
40
1
40
1
10
61.398024
20
357.974922
30
0
10
61.398024
20
358.061918
30
0
10
61.450221
20
358.099202
30
0
10
61.543431
20
358.099202
30
0
0
LINE
5
282
100
AcDbEntity
8
engrave
6
ByLayer
62
7
370
-1
100
AcDbLine
10
61.543431
20
358.099202
11
61.85413
21
358.099202
0
LINE
5
283
100
AcDbEntity
8
engrave
6
ByLayer
62
7
370
-1
100
AcDbLine
10
61.85413
20
358.099202
11
61.866558
21
358.11163
0
LINE
5
284
100
AcDbEntity
8
engrave
6
ByLayer
62
7
370
-1
100
AcDbLine
10
61.866558
20
358.11163
11
61.866558
21
358.235909
0
LINE
5
285
100
AcDbEntity
8
engrave
6
ByLayer
62
7
370
-1
100
AcDbLine
10
61.866558
20
358.235909
11
61.85413
21
358.248337
0
LINE
5
286
100
AcDbEntity
8
engrave
6
ByLayer
62
7
370
-1
100
AcDbLine
10
61.85413
20
358.248337
11
61.518575
21
358.248337
0
SPLINE
5
287
100
AcDbEntity
8
engrave
6
ByLayer
62
7
370
-1
100
AcDbSpline
210
0
220
0
230
1
70
8
71
3
72
8
73
4
74
0
42
1e-07
43
1e-07
40
0
40
0
40
0
40
0
40
1
40
1
40
1
40
1
10
61.518575
20
358.248337
30
0
10
61.357011
20
358.248337
30
0
10
61.263802
20
358.161342
30
0
10
61.263802
20
358.012206
30
0
0
SPLINE
5
288
100
AcDbEntity
8
engrave
6
ByLayer
62
7
370
-1
100
AcDbSpline
210
0
220
0
230
1
70
8
71
3
72
8
73
4
74
0
42
1e-07
43
1e-07
40
0
40
0
40
0
40
0
40
1
40
1
40
1
40
1
10
61.263802
20
358.012206
30
0
10
61.263802
20
357.943852
30
0
10
61.294872
20
357.882955
30
0
10
61.332156
20
357.850643
30
0
0
LINE
5
289
100
AcDbEntity
8
engrave
6
ByLayer
62
7
370
-1
100
AcDbLine
10
61.332156
20
357.850643
11
61.33837
21
357.844429
0
LINE
5
28A
100
AcDbEntity
8
engrave
6
ByLayer
62
7
370
-1
100
AcDbLine
10
61.33837
20
357.844429
11
61.332156
21
357.838215
0
LINE
5
28B
100
AcDbEntity
8
engrave
6
ByLayer
62
7
370
-1
100
AcDbLine
10
61.332156
20
357.838215
11
61.294872
21
357.832001
0
LINE
5
28C
100
AcDbEntity
8
engrave
6
ByLayer
62
7
370
-1
100
AcDbLine
10
61.294872
20
357.832001
11
61.282444
21
357.819573
0
LINE
5
28D
100
AcDbEntity
8
engrave
6
ByLayer
62
7
370
-1
100
AcDbLine
10
61.282444
20
357.819573
11
61.282444
21
357.701507
0
LINE
5
28E
100
AcDbEntity
8
engrave
6
ByLayer
62
7
370
-1
100
AcDbLine
10
61.282444
20
357.701507
11
61.294872
21
357.689079
0
LINE
5
28F
100
AcDbEntity
8
engrave
6
ByLayer
62
7
370
-1
100
AcDbLine
10
61.493719
20
358.559132
11
60.934461
21
358.559132
0
LINE
5
290
100
AcDbEntity
8
engrave
6
ByLayer
62
7
370
-1
100
AcDbLine
10
60.934461
20
358.559132
11
60.922033
21
358.546705
0
LINE
5
291
100
AcDbEntity
8
engrave
6
ByLayer
62
7
370
-1
100
AcDbLine
10
60.922033
20
358.546705
11
60.922033
21
358.422425
0
LINE
5
292
100
AcDbEntity
8
engrave
6
ByLayer
62
7
370
-1
100
AcDbLine
10
60.922033
20
358.422425
11
60.934461
21
358.409997
0
LINE
5
293
100
AcDbEntity
8
engrave
6
ByLayer
62
7
370
-1
100
AcDbLine
10
60.934461
20
358.409997
11
61.85413
21
358.409997
0
LINE
5
294
100
AcDbEntity
8
engrave
6
ByLayer
62
7
370
-1
100
AcDbLine
10
61.85413
20
358.409997
11
61.866558
21
358.422425
0
LINE
5
295
100
AcDbEntity
8
engrave
6
ByLayer
62
7
370
-1
100
AcDbLine
10
61.866558
20
358.422425
11
61.866558
21
358.546705
0
LINE
5
296
100
AcDbEntity
8
engrave
6
ByLayer
62
7
370
-1
100
AcDbLine
10
61.866558
20
358.546705
11
61.85413
21
358.559132
0
LINE
5
297
100
AcDbEntity
8
engrave
6
ByLayer
62
7
370
-1
100
AcDbLine
10
61.85413
20
358.559132
11
61.642854
21
358.559132
0
LINE
5
298
100
AcDbEntity
8
engrave
6
ByLayer
62
7
370
-1
100
AcDbLine
10
61.642854
20
358.559132
11
61.860344
21
358.78905
0
LINE
5
299
100
AcDbEntity
8
engrave
6
ByLayer
62
7
370
-1
100
AcDbLine
10
61.860344
20
358.78905
11
61.866558
21
358.801478
0
LINE
5
29A
100
AcDbEntity
8
engrave
6
ByLayer
62
7
370
-1
100
AcDbLine
10
61.866558
20
358.801478
11
61.866558
21
358.975469
0
LINE
5
29B
100
AcDbEntity
8
engrave
6
ByLayer
62
7
370
-1
100
AcDbLine
10
61.866558
20
358.975469
11
61.85413
21
358.981683
0
LINE
5
29C
100
AcDbEntity
8
engrave
6
ByLayer
62
7
370
-1
100
AcDbLine
10
61.85413
20
358.981683
11
61.562073
21
358.679684
0
LINE
5
29D
100
AcDbEntity
8
engrave
6
ByLayer
62
7
370
-1
100
AcDbLine
10
61.562073
20
358.679684
11
61.294872
21
358.969255
0
LINE
5
29E
100
AcDbEntity
8
engrave
6
ByLayer
62
7
370
-1
100
AcDbLine
10
61.294872
20
358.969255
11
61.282444
21
358.963041
0
LINE
5
29F
100
AcDbEntity
8
engrave
6
ByLayer
62
7
370
-1
100
AcDbLine
10
61.282444
20
358.963041
11
61.282444
21
358.78905
0
LINE
5
2A0
100
AcDbEntity
8
engrave
6
ByLayer
62
7
370
-1
100
AcDbLine
10
61.282444
20
358.78905
11
61.288658
21
358.776622
0
LINE
5
2A1
100
AcDbEntity
8
engrave
6
ByLayer
62
7
370
-1
100
AcDbLine
10
61.288658
20
358.776622
11
61.493719
21
358.559132
0
LINE
5
2A2
100
AcDbEntity
8
engrave
6
ByLayer
62
7
370
-1
100
AcDbLine
10
61.637883
20
359.368581
11
61.294872
21
359.22566
0
LINE
5
2A3
100
AcDbEntity
8
engrave
6
ByLayer
62
7
370
-1
100
AcDbLine
10
61.294872
20
359.22566
11
61.282444
21
359.213232
0
LINE
5
2A4
100
AcDbEntity
8
engrave
6
ByLayer
62
7
370
-1
100
AcDbLine
10
61.282444
20
359.213232
11
61.282444
21
359.075281
0
LINE
5
2A5
100
AcDbEntity
8
engrave
6
ByLayer
62
7
370
-1
100
AcDbLine
10
61.282444
20
359.075281
11
61.294872
21
359.069067
0
LINE
5
2A6
100
AcDbEntity
8
engrave
6
ByLayer
62
7
370
-1
100
AcDbLine
10
61.294872
20
359.069067
11
61.805661
21
359.294013
0
LINE
5
2A7
100
AcDbEntity
8
engrave
6
ByLayer
62
7
370
-1
100
AcDbLine
10
61.805661
20
359.294013
11
62.115117
21
359.161034
0
LINE
5
2A8
100
AcDbEntity
8
engrave
6
ByLayer
62
7
370
-1
100
AcDbLine
10
62.115117
20
359.161034
11
62.127545
21
359.173462
0
LINE
5
2A9
100
AcDbEntity
8
engrave
6
ByLayer
62
7
370
-1
100
AcDbLine
10
62.127545
20
359.173462
11
62.127545
21
359.300227
0
LINE
5
2AA
100
AcDbEntity
8
engrave
6
ByLayer
62
7
370
-1
100
AcDbLine
10
62.127545
20
359.300227
11
62.115117
21
359.312655
0
LINE
5
2AB
100
AcDbEntity
8
engrave
6
ByLayer
62
7
370
-1
100
AcDbLine
10
62.115117
20
359.312655
11
61.294872
21
359.665609
0
LINE
5
2AC
100
AcDbEntity
8
engrave
6
ByLayer
62
7
370
-1
100
AcDbLine
10
61.294872
20
359.665609
11
61.282444
21
359.659395
0
LINE
5
2AD
100
AcDbEntity
8
engrave
6
ByLayer
62
7
370
-1
100
AcDbLine
10
61.282444
20
359.659395
11
61.282444
21
359.520202
0
LINE
5
2AE
100
AcDbEntity
8
engrave
6
ByLayer
62
7
370
-1
100
AcDbLine
10
61.282444
20
359.520202
11
61.297357
21
359.507774
0
LINE
5
2AF
100
AcDbEntity
8
engrave
6
ByLayer
62
7
370
-1
100
AcDbLine
10
61.297357
20
359.507774
11
61.637883
21
359.368581
0
LINE
5
2B0
100
AcDbEntity
8
engrave
6
ByLayer
62
7
370
-1
100
AcDbLine
10
61.85413
20
360.347011
11
61.866558
21
360.359439
0
LINE
5
2B1
100
AcDbEntity
8
engrave
6
ByLayer
62
7
370
-1
100
AcDbLine
10
61.866558
20
360.359439
11
61.866558
21
360.496147
0
SPLINE
5
2B2
100
AcDbEntity
8
engrave
6
ByLayer
62
7
370
-1
100
AcDbSpline
210
0
220
0
230
1
70
8
71
3
72
8
73
4
74
0
42
1e-07
43
1e-07
40
0
40
0
40
0
40
0
40
1
40
1
40
1
40
1
10
61.866558
20
360.496147
30
0
10
61.866558
20
360.732277
30
0
10
61.704994
20
360.931125
30
0
10
61.412937
20
360.931125
30
0
0
SPLINE
5
2B3
100
AcDbEntity
8
engrave
6
ByLayer
62
7
370
-1
100
AcDbSpline
210
0
220
0
230
1
70
8
71
3
72
8
73
4
74
0
42
1e-07
43
1e-07
40
0
40
0
40
0
40
0
40
1
40
1
40
1
40
1
10
61.412937
20
360.931125
30
0
10
61.133309
20
360.931125
30
0
10
60.959317
20
360.732277
30
0
10
60.959317
20
360.496147
30
0
0
LINE
5
2B4
100
AcDbEntity
8
engrave
6
ByLayer
62
7
370
-1
100
AcDbLine
10
60.959317
20
360.496147
11
60.959317
21
360.359439
0
LINE
5
2B5
100
AcDbEntity
8
engrave
6
ByLayer
62
7
370
-1
100
AcDbLine
10
60.959317
20
360.359439
11
60.971745
21
360.347011
0
LINE
5
2B6
100
AcDbEntity
8
engrave
6
ByLayer
62
7
370
-1
100
AcDbLine
10
60.971745
20
360.347011
11
61.85413
21
360.347011
0
SPLINE
5
2B7
100
AcDbEntity
8
engrave
6
ByLayer
62
7
370
-1
100
AcDbSpline
210
0
220
0
230
1
70
8
71
3
72
8
73
4
74
0
42
1e-07
43
1e-07
40
0
40
0
40
0
40
0
40
1
40
1
40
1
40
1
10
61.104724
20
360.501118
30
0
10
61.104724
20
360.676352
30
0
10
61.220305
20
360.777018
30
0
10
61.412937
20
360.777018
30
0
0
SPLINE
5
2B8
100
AcDbEntity
8
engrave
6
ByLayer
62
7
370
-1
100
AcDbSpline
210
0
220
0
230
1
70
8
71
3
72
8
73
4
74
0
42
1e-07
43
1e-07
40
0
40
0
40
0
40
0
40
1
40
1
40
1
40
1
10
61.412937
20
360.777018
30
0
10
61.605571
20
360.777018
30
0
10
61.721151
20
360.676352
30
0
10
61.721151
20
360.501118
30
0
0
LINE
5
2B9
100
AcDbEntity
8
engrave
6
ByLayer
62
7
370
-1
100
AcDbLine
10
61.721151
20
360.501118
11
61.104724
21
360.501118
0
LINE
5
2BA
100
AcDbEntity
8
engrave
6
ByLayer
62
7
370
-1
100
AcDbLine
10
61.85413
20
361.080065
11
61.866558
21
361.092493
0
LINE
5
2BB
100
AcDbEntity
8
engrave
6
ByLayer
62
7
370
-1
100
AcDbLine
10
61.866558
20
361.092493
11
61.866558
21
361.216773
0
LINE
5
2BC
100
AcDbEntity
8
engrave
6
ByLayer
62
7
370
-1
100
AcDbLine
10
61.866558
20
361.216773
11
61.85413
21
361.229201
0
LINE
5
2BD
100
AcDbEntity
8
engrave
6
ByLayer
62
7
370
-1
100
AcDbLine
10
61.85413
20
361.229201
11
61.537217
21
361.229201
0
SPLINE
5
2BE
100
AcDbEntity
8
engrave
6
ByLayer
62
7
370
-1
100
AcDbSpline
210
0
220
0
230
1
70
8
71
3
72
8
73
4
74
0
42
1e-07
43
1e-07
40
0
40
0
40
0
40
0
40
1
40
1
40
1
40
1
10
61.537217
20
361.229201
30
0
10
61.465135
20
361.231687
30
0
10
61.400509
20
361.292584
30
0
10
61.400509
20
361.359694
30
0
0
SPLINE
5
2BF
100
AcDbEntity
8
engrave
6
ByLayer
62
7
370
-1
100
AcDbSpline
210
0
220
0
230
1
70
8
71
3
72
8
73
4
74
0
42
1e-07
43
1e-07
40
0
40
0
40
0
40
0
40
1
40
1
40
1
40
1
10
61.400509
20
361.359694
30
0
10
61.400509
20
361.421834
30
0
10
61.444007
20
361.465332
30
0
10
61.518575
20
361.465332
30
0
0
LINE
5
2C0
100
AcDbEntity
8
engrave
6
ByLayer
62
7
370
-1
100
AcDbLine
10
61.518575
20
361.465332
11
61.531003
21
361.47776
0
LINE
5
2C1
100
AcDbEntity
8
engrave
6
ByLayer
62
7
370
-1
100
AcDbLine
10
61.531003
20
361.47776
11
61.506147
21
361.60204
0
LINE
5
2C2
100
AcDbEntity
8
engrave
6
ByLayer
62
7
370
-1
100
AcDbLine
10
61.506147
20
361.60204
11
61.493719
21
361.614468
0
SPLINE
5
2C3
100
AcDbEntity
8
engrave
6
ByLayer
62
7
370
-1
100
AcDbSpline
210
0
220
0
230
1
70
8
71
3
72
8
73
4
74
0
42
1e-07
43
1e-07
40
0
40
0
40
0
40
0
40
1
40
1
40
1
40
1
10
61.493719
20
361.614468
30
0
10
61.357011
20
361.614468
30
0
10
61.263802
20
361.527472
30
0
10
61.263802
20
361.403192
30
0
0
SPLINE
5
2C4
100
AcDbEntity
8
engrave
6
ByLayer
62
7
370
-1
100
AcDbSpline
210
0
220
0
230
1
70
8
71
3
72
8
73
4
74
0
42
1e-07
43
1e-07
40
0
40
0
40
0
40
0
40
1
40
1
40
1
40
1
10
61.263802
20
361.403192
30
0
10
61.263802
20
361.341053
30
0
10
61.301086
20
361.273942
30
0
10
61.33837
20
361.241629
30
0
0
LINE
5
2C5
100
AcDbEntity
8
engrave
6
ByLayer
62
7
370
-1
100
AcDbLine
10
61.33837
20
361.241629
11
61.344584
21
361.235415
0
LINE
5
2C6
100
AcDbEntity
8
engrave
6
ByLayer
62
7
370
-1
100
AcDbLine
10
61.344584
20
361.235415
11
61.33837
21
361.229201
0
LINE
5
2C7
100
AcDbEntity
8
engrave
6
ByLayer
62
7
370
-1
100
AcDbLine
10
61.33837
20
361.229201
11
61.294872
21
361.216773
0
LINE
5
2C8
100
AcDbEntity
8
engrave
6
ByLayer
62
7
370
-1
100
AcDbLine
10
61.294872
20
361.216773
11
61.282444
21
361.204345
0
LINE
5
2C9
100
AcDbEntity
8
engrave
6
ByLayer
62
7
370
-1
100
AcDbLine
10
61.282444
20
361.204345
11
61.282444
21
361.092493
0
LINE
5
2CA
100
AcDbEntity
8
engrave
6
ByLayer
62
7
370
-1
100
AcDbLine
10
61.282444
20
361.092493
11
61.294872
21
361.080065
0
LINE
5
2CB
100
AcDbEntity
8
engrave
6
ByLayer
62
7
370
-1
100
AcDbLine
10
61.294872
20
361.080065
11
61.85413
21
361.080065
0
LINE
5
2CC
100
AcDbEntity
8
engrave
6
ByLayer
62
7
370
-1
100
AcDbLine
10
61.85413
20
362.26043
11
61.294872
21
362.26043
0
LINE
5
2CD
100
AcDbEntity
8
engrave
6
ByLayer
62
7
370
-1
100
AcDbLine
10
61.294872
20
362.26043
11
61.282444
21
362.248002
0
LINE
5
2CE
100
AcDbEntity
8
engrave
6
ByLayer
62
7
370
-1
100
AcDbLine
10
61.282444
20
362.248002
11
61.282444
21
362.123722
0
LINE
5
2CF
100
AcDbEntity
8
engrave
6
ByLayer
62
7
370
-1
100
AcDbLine
10
61.282444
20
362.123722
11
61.294872
21
362.111294
0
LINE
5
2D0
100
AcDbEntity
8
engrave
6
ByLayer
62
7
370
-1
100
AcDbLine
10
61.294872
20
362.111294
11
61.617999
21
362.111294
0
SPLINE
5
2D1
100
AcDbEntity
8
engrave
6
ByLayer
62
7
370
-1
100
AcDbSpline
210
0
220
0
230
1
70
8
71
3
72
8
73
4
74
0
42
1e-07
43
1e-07
40
0
40
0
40
0
40
0
40
1
40
1
40
1
40
1
10
61.617999
20
362.111294
30
0
10
61.690081
20
362.108809
30
0
10
61.750978
20
362.054126
30
0
10
61.750978
20
361.974587
30
0
0
SPLINE
5
2D2
100
AcDbEntity
8
engrave
6
ByLayer
62
7
370
-1
100
AcDbSpline
210
0
220
0
230
1
70
8
71
3
72
8
73
4
74
0
42
1e-07
43
1e-07
40
0
40
0
40
0
40
0
40
1
40
1
40
1
40
1
10
61.750978
20
361.974587
30
0
10
61.750978
20
361.887591
30
0
10
61.69878
20
361.850307
30
0
10
61.605571
20
361.850307
30
0
0
LINE
5
2D3
100
AcDbEntity
8
engrave
6
ByLayer
62
7
370
-1
100
AcDbLine
10
61.605571
20
361.850307
11
61.294872
21
361.850307
0
LINE
5
2D4
100
AcDbEntity
8
engrave
6
ByLayer
62
7
370
-1
100
AcDbLine
10
61.294872
20
361.850307
11
61.282444
21
361.837879
0
LINE
5
2D5
100
AcDbEntity
8
engrave
6
ByLayer
62
7
370
-1
100
AcDbLine
10
61.282444
20
361.837879
11
61.282444
21
361.7136
0
LINE
5
2D6
100
AcDbEntity
8
engrave
6
ByLayer
62
7
370
-1
100
AcDbLine
10
61.282444
20
361.7136
11
61.294872
21
361.701172
0
LINE
5
2D7
100
AcDbEntity
8
engrave
6
ByLayer
62
7
370
-1
100
AcDbLine
10
61.294872
20
361.701172
11
61.630426
21
361.701172
0
SPLINE
5
2D8
100
AcDbEntity
8
engrave
6
ByLayer
62
7
370
-1
100
AcDbSpline
210
0
220
0
230
1
70
8
71
3
72
8
73
4
74
0
42
1e-07
43
1e-07
40
0
40
0
40
0
40
0
40
1
40
1
40
1
40
1
10
61.630426
20
361.701172
30
0
10
61.79199
20
361.701172
30
0
10
61.8852
20
361.788169
30
0
10
61.8852
20
361.937303
30
0
0
SPLINE
5
2D9
100
AcDbEntity
8
engrave
6
ByLayer
62
7
370
-1
100
AcDbSpline
210
0
220
0
230
1
70
8
71
3
72
8
73
4
74
0
42
1e-07
43
1e-07
40
0
40
0
40
0
40
0
40
1
40
1
40
1
40
1
10
61.8852
20
361.937303
30
0
10
61.8852
20
362.005657
30
0
10
61.85413
20
362.066554
30
0
10
61.816846
20
362.098866
30
0
0
LINE
5
2DA
100
AcDbEntity
8
engrave
6
ByLayer
62
7
370
-1
100
AcDbLine
10
61.816846
20
362.098866
11
61.810632
21
362.10508
0
LINE
5
2DB
100
AcDbEntity
8
engrave
6
ByLayer
62
7
370
-1
100
AcDbLine
10
61.810632
20
362.10508
11
61.816846
21
362.111294
0
LINE
5
2DC
100
AcDbEntity
8
engrave
6
ByLayer
62
7
370
-1
100
AcDbLine
10
61.816846
20
362.111294
11
61.85413
21
362.117508
0
LINE
5
2DD
100
AcDbEntity
8
engrave
6
ByLayer
62
7
370
-1
100
AcDbLine
10
61.85413
20
362.117508
11
61.866558
21
362.129936
0
LINE
5
2DE
100
AcDbEntity
8
engrave
6
ByLayer
62
7
370
-1
100
AcDbLine
10
61.866558
20
362.129936
11
61.866558
21
362.248002
0
LINE
5
2DF
100
AcDbEntity
8
engrave
6
ByLayer
62
7
370
-1
100
AcDbLine
10
61.866558
20
362.248002
11
61.85413
21
362.26043
0
LINE
5
2E0
100
AcDbEntity
8
engrave
6
ByLayer
62
7
370
-1
100
AcDbLine
10
61.85413
20
362.939094
11
61.866558
21
362.951522
0
LINE
5
2E1
100
AcDbEntity
8
engrave
6
ByLayer
62
7
370
-1
100
AcDbLine
10
61.866558
20
362.951522
11
61.866558
21
363.068344
0
LINE
5
2E2
100
AcDbEntity
8
engrave
6
ByLayer
62
7
370
-1
100
AcDbLine
10
61.866558
20
363.068344
11
61.85413
21
363.080772
0
LINE
5
2E3
100
AcDbEntity
8
engrave
6
ByLayer
62
7
370
-1
100
AcDbLine
10
61.85413
20
363.080772
11
61.444007
21
363.080772
0
SPLINE
5
2E4
100
AcDbEntity
8
engrave
6
ByLayer
62
7
370
-1
100
AcDbSpline
210
0
220
0
230
1
70
8
71
3
72
8
73
4
74
0
42
1e-07
43
1e-07
40
0
40
0
40
0
40
0
40
1
40
1
40
1
40
1
10
61.444007
20
363.080772
30
0
10
61.325942
20
363.080772
30
0
10
61.270016
20
363.012419
30
0
10
61.270016
20
362.937851
30
0
0
SPLINE
5
2E5
100
AcDbEntity
8
engrave
6
ByLayer
62
7
370
-1
100
AcDbSpline
210
0
220
0
230
1
70
8
71
3
72
8
73
4
74
0
42
1e-07
43
1e-07
40
0
40
0
40
0
40
0
40
1
40
1
40
1
40
1
10
61.270016
20
362.937851
30
0
10
61.270016
20
362.875711
30
0
10
61.3073
20
362.832213
30
0
10
61.344584
20
362.813571
30
0
0
LINE
5
2E6
100
AcDbEntity
8
engrave
6
ByLayer
62
7
370
-1
100
AcDbLine
10
61.344584
20
362.813571
11
61.350797
21
362.807357
0
LINE
5
2E7
100
AcDbEntity
8
engrave
6
ByLayer
62
7
370
-1
100
AcDbLine
10
61.350797
20
362.807357
11
61.344584
21
362.801143
0
SPLINE
5
2E8
100
AcDbEntity
8
engrave
6
ByLayer
62
7
370
-1
100
AcDbSpline
210
0
220
0
230
1
70
8
71
3
72
8
73
4
74
0
42
1e-07
43
1e-07
40
0
40
0
40
0
40
0
40
1
40
1
40
1
40
1
10
61.344584
20
362.801143
30
0
10
61.294872
20
362.782501
30
0
10
61.270016
20
362.743975
30
0
10
61.270016
20
362.694263
30
0
0
SPLINE
5
2E9
100
AcDbEntity
8
engrave
6
ByLayer
62
7
370
-1
100
AcDbSpline
210
0
220
0
230
1
70
8
71
3
72
8
73
4
74
0
42
1e-07
43
1e-07
40
0
40
0
40
0
40
0
40
1
40
1
40
1
40
1
10
61.270016
20
362.694263
30
0
10
61.270016
20
362.649522
30
0
10
61.294872
20
362.602296
30
0
10
61.332156
20
362.583654
30
0
0
LINE
5
2EA
100
AcDbEntity
8
engrave
6
ByLayer
62
7
370
-1
100
AcDbLine
10
61.332156
20
362.583654
11
61.33837
21
362.57744
0
LINE
5
2EB
100
AcDbEntity
8
engrave
6
ByLayer
62
7
370
-1
100
AcDbLine
10
61.33837
20
362.57744
11
61.332156
21
362.571226
0
LINE
5
2EC
100
AcDbEntity
8
engrave
6
ByLayer
62
7
370
-1
100
AcDbLine
10
61.332156
20
362.571226
11
61.294872
21
362.565012
0
LINE
5
2ED
100
AcDbEntity
8
engrave
6
ByLayer
62
7
370
-1
100
AcDbLine
10
61.294872
20
362.565012
11
61.282444
21
362.552584
0
LINE
5
2EE
100
AcDbEntity
8
engrave
6
ByLayer
62
7
370
-1
100
AcDbLine
10
61.282444
20
362.552584
11
61.282444
21
362.446947
0
LINE
5
2EF
100
AcDbEntity
8
engrave
6
ByLayer
62
7
370
-1
100
AcDbLine
10
61.282444
20
362.446947
11
61.294872
21
362.434519
0
LINE
5
2F0
100
AcDbEntity
8
engrave
6
ByLayer
62
7
370
-1
100
AcDbLine
10
61.294872
20
362.434519
11
61.85413
21
362.434519
0
LINE
5
2F1
100
AcDbEntity
8
engrave
6
ByLayer
62
7
370
-1
100
AcDbLine
10
61.85413
20
362.434519
11
61.866558
21
362.446947
0
LINE
5
2F2
100
AcDbEntity
8
engrave
6
ByLayer
62
7
370
-1
100
AcDbLine
10
61.866558
20
362.446947
11
61.866558
21
362.565012
0
LINE
5
2F3
100
AcDbEntity
8
engrave
6
ByLayer
62
7
370
-1
100
AcDbLine
10
61.866558
20
362.565012
11
61.85413
21
362.576197
0
LINE
5
2F4
100
AcDbEntity
8
engrave
6
ByLayer
62
7
370
-1
100
AcDbLine
10
61.85413
20
362.576197
11
61.493719
21
362.576197
0
SPLINE
5
2F5
100
AcDbEntity
8
engrave
6
ByLayer
62
7
370
-1
100
AcDbSpline
210
0
220
0
230
1
70
8
71
3
72
8
73
4
74
0
42
1e-07
43
1e-07
40
0
40
0
40
0
40
0
40
1
40
1
40
1
40
1
10
61.493719
20
362.576197
30
0
10
61.430336
20
362.579926
30
0
10
61.406723
20
362.609753
30
0
10
61.406723
20
362.637094
30
0
0
SPLINE
5
2F6
100
AcDbEntity
8
engrave
6
ByLayer
62
7
370
-1
100
AcDbSpline
210
0
220
0
230
1
70
8
71
3
72
8
73
4
74
0
42
1e-07
43
1e-07
40
0
40
0
40
0
40
0
40
1
40
1
40
1
40
1
10
61.406723
20
362.637094
30
0
10
61.406723
20
362.660707
30
0
10
61.419151
20
362.685563
30
0
10
61.475077
20
362.685563
30
0
0
LINE
5
2F7
100
AcDbEntity
8
engrave
6
ByLayer
62
7
370
-1
100
AcDbLine
10
61.475077
20
362.685563
11
61.85413
21
362.685563
0
LINE
5
2F8
100
AcDbEntity
8
engrave
6
ByLayer
62
7
370
-1
100
AcDbLine
10
61.85413
20
362.685563
11
61.866558
21
362.697991
0
LINE
5
2F9
100
AcDbEntity
8
engrave
6
ByLayer
62
7
370
-1
100
AcDbLine
10
61.866558
20
362.697991
11
61.866558
21
362.8173
0
LINE
5
2FA
100
AcDbEntity
8
engrave
6
ByLayer
62
7
370
-1
100
AcDbLine
10
61.866558
20
362.8173
11
61.85413
21
362.829728
0
LINE
5
2FB
100
AcDbEntity
8
engrave
6
ByLayer
62
7
370
-1
100
AcDbLine
10
61.85413
20
362.829728
11
61.506147
21
362.829728
0
SPLINE
5
2FC
100
AcDbEntity
8
engrave
6
ByLayer
62
7
370
-1
100
AcDbSpline
210
0
220
0
230
1
70
8
71
3
72
8
73
4
74
0
42
1e-07
43
1e-07
40
0
40
0
40
0
40
0
40
1
40
1
40
1
40
1
10
61.506147
20
362.829728
30
0
10
61.431579
20
362.829728
30
0
10
61.406723
20
362.860797
30
0
10
61.406723
20
362.891867
30
0
0
SPLINE
5
2FD
100
AcDbEntity
8
engrave
6
ByLayer
62
7
370
-1
100
AcDbSpline
210
0
220
0
230
1
70
8
71
3
72
8
73
4
74
0
42
1e-07
43
1e-07
40
0
40
0
40
0
40
0
40
1
40
1
40
1
40
1
10
61.406723
20
362.891867
30
0
10
61.406723
20
362.914238
30
0
10
61.419151
20
362.939094
30
0
10
61.475077
20
362.939094
30
0
0
LINE
5
2FE
100
AcDbEntity
8
engrave
6
ByLayer
62
7
370
-1
100
AcDbLine
10
61.475077
20
362.939094
11
61.85413
21
362.939094
0
LINE
5
2FF
100
AcDbEntity
8
engrave
6
ByLayer
62
7
370
-1
100
AcDbLine
10
61.220304
20
364.353861
11
61.207876
21
364.366289
0
SPLINE
5
300
100
AcDbEntity
8
engrave
6
ByLayer
62
7
370
-1
100
AcDbSpline
210
0
220
0
230
1
70
8
71
3
72
8
73
4
74
0
42
1e-07
43
1e-07
40
0
40
0
40
0
40
0
40
1
40
1
40
1
40
1
10
61.207876
20
364.366289
30
0
10
61.058741
20
364.360075
30
0
10
60.940675
20
364.248223
30
0
10
60.940675
20
364.072989
30
0
0
SPLINE
5
301
100
AcDbEntity
8
engrave
6
ByLayer
62
7
370
-1
100
AcDbSpline
210
0
220
0
230
1
70
8
71
3
72
8
73
4
74
0
42
1e-07
43
1e-07
40
0
40
0
40
0
40
0
40
1
40
1
40
1
40
1
10
60.940675
20
364.072989
30
0
10
60.940675
20
363.900241
30
0
10
61.058741
20
363.788389
30
0
10
61.195448
20
363.788389
30
0
0
SPLINE
5
302
100
AcDbEntity
8
engrave
6
ByLayer
62
7
370
-1
100
AcDbSpline
210
0
220
0
230
1
70
8
71
3
72
8
73
4
74
0
42
1e-07
43
1e-07
40
0
40
0
40
0
40
0
40
1
40
1
40
1
40
1
10
61.195448
20
363.788389
30
0
10
61.349555
20
363.788389
30
0
10
61.42288
20
363.884084
30
0
10
61.461406
20
363.999664
30
0
0
LINE
5
303
100
AcDbEntity
8
engrave
6
ByLayer
62
7
370
-1
100
AcDbLine
10
61.461406
20
363.999664
11
61.496205
21
364.111516
0
SPLINE
5
304
100
AcDbEntity
8
engrave
6
ByLayer
62
7
370
-1
100
AcDbSpline
210
0
220
0
230
1
70
8
71
3
72
8
73
4
74
0
42
1e-07
43
1e-07
40
0
40
0
40
0
40
0
40
1
40
1
40
1
40
1
10
61.496205
20
364.111516
30
0
10
61.513604
20
364.172413
30
0
10
61.542188
20
364.229582
30
0
10
61.617999
20
364.229582
30
0
0
SPLINE
5
305
100
AcDbEntity
8
engrave
6
ByLayer
62
7
370
-1
100
AcDbSpline
210
0
220
0
230
1
70
8
71
3
72
8
73
4
74
0
42
1e-07
43
1e-07
40
0
40
0
40
0
40
0
40
1
40
1
40
1
40
1
10
61.617999
20
364.229582
30
0
10
61.686352
20
364.229582
30
0
10
61.732336
20
364.173656
30
0
10
61.732336
20
364.080446
30
0
0
SPLINE
5
306
100
AcDbEntity
8
engrave
6
ByLayer
62
7
370
-1
100
AcDbSpline
210
0
220
0
230
1
70
8
71
3
72
8
73
4
74
0
42
1e-07
43
1e-07
40
0
40
0
40
0
40
0
40
1
40
1
40
1
40
1
10
61.732336
20
364.080446
30
0
10
61.732336
20
364.007121
30
0
10
61.692566
20
363.927582
30
0
10
61.580715
20
363.925097
30
0
0
LINE
5
307
100
AcDbEntity
8
engrave
6
ByLayer
62
7
370
-1
100
AcDbLine
10
61.580715
20
363.925097
11
61.568287
21
363.912669
0
LINE
5
308
100
AcDbEntity
8
engrave
6
ByLayer
62
7
370
-1
100
AcDbLine
10
61.568287
20
363.912669
11
61.605571
21
363.775961
0
LINE
5
309
100
AcDbEntity
8
engrave
6
ByLayer
62
7
370
-1
100
AcDbLine
10
61.605571
20
363.775961
11
61.617999
21
363.769747
0
SPLINE
5
30A
100
AcDbEntity
8
engrave
6
ByLayer
62
7
370
-1
100
AcDbSpline
210
0
220
0
230
1
70
8
71
3
72
8
73
4
74
0
42
1e-07
43
1e-07
40
0
40
0
40
0
40
0
40
1
40
1
40
1
40
1
10
61.617999
20
363.769747
30
0
10
61.763406
20
363.772233
30
0
10
61.8852
20
363.906455
30
0
10
61.8852
20
364.080446
30
0
0
SPLINE
5
30B
100
AcDbEntity
8
engrave
6
ByLayer
62
7
370
-1
100
AcDbSpline
210
0
220
0
230
1
70
8
71
3
72
8
73
4
74
0
42
1e-07
43
1e-07
40
0
40
0
40
0
40
0
40
1
40
1
40
1
40
1
10
61.8852
20
364.080446
30
0
10
61.8852
20
364.273079
30
0
10
61.76092
20
364.384931
30
0
10
61.617999
20
364.384931
30
0
0
SPLINE
5
30C
100
AcDbEntity
8
engrave
6
ByLayer
62
7
370
-1
100
AcDbSpline
210
0
220
0
230
1
70
8
71
3
72
8
73
4
74
0
42
1e-07
43
1e-07
40
0
40
0
40
0
40
0
40
1
40
1
40
1
40
1
10
61.617999
20
364.384931
30
0
10
61.456435
20
364.384931
30
0
10
61.381867
20
364.285507
30
0
10
61.345826
20
364.161228
30
0
0
LINE
5
30D
100
AcDbEntity
8
engrave
6
ByLayer
62
7
370
-1
100
AcDbLine
10
61.345826
20
364.161228
11
61.315999
21
364.061804
0
SPLINE
5
30E
100
AcDbEntity
8
engrave
6
ByLayer
62
7
370
-1
100
AcDbSpline
210
0
220
0
230
1
70
8
71
3
72
8
73
4
74
0
42
1e-07
43
1e-07
40
0
40
0
40
0
40
0
40
1
40
1
40
1
40
1
10
61.315999
20
364.061804
30
0
10
61.291143
20
363.973566
30
0
10
61.251374
20
363.943739
30
0
10
61.195448
20
363.943739
30
0
0
SPLINE
5
30F
100
AcDbEntity
8
engrave
6
ByLayer
62
7
370
-1
100
AcDbSpline
210
0
220
0
230
1
70
8
71
3
72
8
73
4
74
0
42
1e-07
43
1e-07
40
0
40
0
40
0
40
0
40
1
40
1
40
1
40
1
10
61.195448
20
363.943739
30
0
10
61.139522
20
363.943739
30
0
10
61.08981
20
363.987236
30
0
10
61.08981
20
364.074232
30
0
0
SPLINE
5
310
100
AcDbEntity
8
engrave
6
ByLayer
62
7
370
-1
100
AcDbSpline
210
0
220
0
230
1
70
8
71
3
72
8
73
4
74
0
42
1e-07
43
1e-07
40
0
40
0
40
0
40
0
40
1
40
1
40
1
40
1
10
61.08981
20
364.074232
30
0
10
61.08981
20
364.155014
30
0
10
61.139522
20
364.204726
30
0
10
61.207876
20
364.21094
30
0
0
LINE
5
311
100
AcDbEntity
8
engrave
6
ByLayer
62
7
370
-1
100
AcDbLine
10
61.207876
20
364.21094
11
61.220304
21
364.223368
0
LINE
5
312
100
AcDbEntity
8
engrave
6
ByLayer
62
7
370
-1
100
AcDbLine
10
61.220304
20
364.223368
11
61.220304
21
364.353861
0
LINE
5
313
100
AcDbEntity
8
engrave
6
ByLayer
62
7
370
-1
100
AcDbLine
10
61.621727
20
365.062642
11
61.568287
21
365.07507
0
SPLINE
5
314
100
AcDbEntity
8
engrave
6
ByLayer
62
7
370
-1
100
AcDbSpline
210
0
220
0
230
1
70
8
71
3
72
8
73
4
74
0
42
1e-07
43
1e-07
40
0
40
0
40
0
40
0
40
1
40
1
40
1
40
1
10
61.568287
20
365.07507
30
0
10
61.381868
20
365.081284
30
0
10
61.263802
20
364.947062
30
0
10
61.263802
20
364.783013
30
0
0
SPLINE
5
315
100
AcDbEntity
8
engrave
6
ByLayer
62
7
370
-1
100
AcDbSpline
210
0
220
0
230
1
70
8
71
3
72
8
73
4
74
0
42
1e-07
43
1e-07
40
0
40
0
40
0
40
0
40
1
40
1
40
1
40
1
10
61.263802
20
364.783013
30
0
10
61.263802
20
364.606537
30
0
10
61.394296
20
364.478528
30
0
10
61.574501
20
364.478528
30
0
0
SPLINE
5
316
100
AcDbEntity
8
engrave
6
ByLayer
62
7
370
-1
100
AcDbSpline
210
0
220
0
230
1
70
8
71
3
72
8
73
4
74
0
42
1e-07
43
1e-07
40
0
40
0
40
0
40
0
40
1
40
1
40
1
40
1
10
61.574501
20
364.478528
30
0
10
61.754706
20
364.478528
30
0
10
61.8852
20
364.602809
30
0
10
61.8852
20
364.789227
30
0
0
SPLINE
5
317
100
AcDbEntity
8
engrave
6
ByLayer
62
7
370
-1
100
AcDbSpline
210
0
220
0
230
1
70
8
71
3
72
8
73
4
74
0
42
1e-07
43
1e-07
40
0
40
0
40
0
40
0
40
1
40
1
40
1
40
1
10
61.8852
20
364.789227
30
0
10
61.8852
20
364.913507
30
0
10
61.82306
20
364.996774
30
0
10
61.742278
20
365.050214
30
0
0
LINE
5
318
100
AcDbEntity
8
engrave
6
ByLayer
62
7
370
-1
100
AcDbLine
10
61.742278
20
365.050214
11
61.72985
21
365.050214
0
LINE
5
319
100
AcDbEntity
8
engrave
6
ByLayer
62
7
370
-1
100
AcDbLine
10
61.72985
20
365.050214
11
61.66771
21
364.938363
0
LINE
5
31A
100
AcDbEntity
8
engrave
6
ByLayer
62
7
370
-1
100
AcDbLine
10
61.66771
20
364.938363
11
61.66771
21
364.925935
0
SPLINE
5
31B
100
AcDbEntity
8
engrave
6
ByLayer
62
7
370
-1
100
AcDbSpline
210
0
220
0
230
1
70
8
71
3
72
8
73
4
74
0
42
1e-07
43
1e-07
40
0
40
0
40
0
40
0
40
1
40
1
40
1
40
1
10
61.66771
20
364.925935
30
0
10
61.708723
20
364.907293
30
0
10
61.750978
20
364.862552
30
0
10
61.750978
20
364.787984
30
0
0
SPLINE
5
31C
100
AcDbEntity
8
engrave
6
ByLayer
62
7
370
-1
100
AcDbSpline
210
0
220
0
230
1
70
8
71
3
72
8
73
4
74
0
42
1e-07
43
1e-07
40
0
40
0
40
0
40
0
40
1
40
1
40
1
40
1
10
61.750978
20
364.787984
30
0
10
61.750978
20
364.696019
30
0
10
61.692566
20
364.640092
30
0
10
61.621727
20
364.627664
30
0
0
LINE
5
31D
100
AcDbEntity
8
engrave
6
ByLayer
62
7
370
-1
100
AcDbLine
10
61.621727
20
364.627664
11
61.621727
21
365.062642
0
SPLINE
5
31E
100
AcDbEntity
8
engrave
6
ByLayer
62
7
370
-1
100
AcDbSpline
210
0
220
0
230
1
70
8
71
3
72
8
73
4
74
0
42
1e-07
43
1e-07
40
0
40
0
40
0
40
0
40
1
40
1
40
1
40
1
10
61.396781
20
364.778042
30
0
10
61.396781
20
364.853853
30
0
10
61.432822
20
364.907293
30
0
10
61.491233
20
364.920964
30
0
0
LINE
5
31F
100
AcDbEntity
8
engrave
6
ByLayer
62
7
370
-1
100
AcDbLine
10
61.491233
20
364.920964
11
61.491233
21
364.637606
0
SPLINE
5
320
100
AcDbEntity
8
engrave
6
ByLayer
62
7
370
-1
100
AcDbSpline
210
0
220
0
230
1
70
8
71
3
72
8
73
4
74
0
42
1e-07
43
1e-07
40
0
40
0
40
0
40
0
40
1
40
1
40
1
40
1
10
61.491233
20
364.637606
30
0
10
61.432822
20
364.656248
30
0
10
61.396781
20
364.712175
30
0
10
61.396781
20
364.778042
30
0
0
LINE
5
321
100
AcDbEntity
8
engrave
6
ByLayer
62
7
370
-1
100
AcDbLine
10
61.294872
20
365.779289
11
61.282444
21
365.766861
0
LINE
5
322
100
AcDbEntity
8
engrave
6
ByLayer
62
7
370
-1
100
AcDbLine
10
61.282444
20
365.766861
11
61.282444
21
365.655009
0
LINE
5
323
100
AcDbEntity
8
engrave
6
ByLayer
62
7
370
-1
100
AcDbLine
10
61.282444
20
365.655009
11
61.294872
21
365.642581
0
LINE
5
324
100
AcDbEntity
8
engrave
6
ByLayer
62
7
370
-1
100
AcDbLine
10
61.294872
20
365.642581
11
61.332156
21
365.630153
0
LINE
5
325
100
AcDbEntity
8
engrave
6
ByLayer
62
7
370
-1
100
AcDbLine
10
61.332156
20
365.630153
11
61.33837
21
365.623939
0
LINE
5
326
100
AcDbEntity
8
engrave
6
ByLayer
62
7
370
-1
100
AcDbLine
10
61.33837
20
365.623939
11
61.332156
21
365.617725
0
SPLINE
5
327
100
AcDbEntity
8
engrave
6
ByLayer
62
7
370
-1
100
AcDbSpline
210
0
220
0
230
1
70
8
71
3
72
8
73
4
74
0
42
1e-07
43
1e-07
40
0
40
0
40
0
40
0
40
1
40
1
40
1
40
1
10
61.332156
20
365.617725
30
0
10
61.294872
20
365.580442
30
0
10
61.263802
20
365.524516
30
0
10
61.263802
20
365.456162
30
0
0
SPLINE
5
328
100
AcDbEntity
8
engrave
6
ByLayer
62
7
370
-1
100
AcDbSpline
210
0
220
0
230
1
70
8
71
3
72
8
73
4
74
0
42
1e-07
43
1e-07
40
0
40
0
40
0
40
0
40
1
40
1
40
1
40
1
10
61.263802
20
365.456162
30
0
10
61.263802
20
365.294599
30
0
10
61.388082
20
365.170319
30
0
10
61.574501
20
365.170319
30
0
0
SPLINE
5
329
100
AcDbEntity
8
engrave
6
ByLayer
62
7
370
-1
100
AcDbSpline
210
0
220
0
230
1
70
8
71
3
72
8
73
4
74
0
42
1e-07
43
1e-07
40
0
40
0
40
0
40
0
40
1
40
1
40
1
40
1
10
61.574501
20
365.170319
30
0
10
61.76092
20
365.170319
30
0
10
61.8852
20
365.294599
30
0
10
61.8852
20
365.456162
30
0
0
SPLINE
5
32A
100
AcDbEntity
8
engrave
6
ByLayer
62
7
370
-1
100
AcDbSpline
210
0
220
0
230
1
70
8
71
3
72
8
73
4
74
0
42
1e-07
43
1e-07
40
0
40
0
40
0
40
0
40
1
40
1
40
1
40
1
10
61.8852
20
365.456162
30
0
10
61.8852
20
365.524516
30
0
10
61.85413
20
365.580442
30
0
10
61.816846
20
365.617725
30
0
0
LINE
5
32B
100
AcDbEntity
8
engrave
6
ByLayer
62
7
370
-1
100
AcDbLine
10
61.816846
20
365.617725
11
61.810632
21
365.623939
0
LINE
5
32C
100
AcDbEntity
8
engrave
6
ByLayer
62
7
370
-1
100
AcDbLine
10
61.810632
20
365.623939
11
61.816846
21
365.630153
0
LINE
5
32D
100
AcDbEntity
8
engrave
6
ByLayer
62
7
370
-1
100
AcDbLine
10
61.816846
20
365.630153
11
62.115117
21
365.630153
0
LINE
5
32E
100
AcDbEntity
8
engrave
6
ByLayer
62
7
370
-1
100
AcDbLine
10
62.115117
20
365.630153
11
62.127545
21
365.642581
0
LINE
5
32F
100
AcDbEntity
8
engrave
6
ByLayer
62
7
370
-1
100
AcDbLine
10
62.127545
20
365.642581
11
62.127545
21
365.766861
0
LINE
5
330
100
AcDbEntity
8
engrave
6
ByLayer
62
7
370
-1
100
AcDbLine
10
62.127545
20
365.766861
11
62.115117
21
365.779289
0
LINE
5
331
100
AcDbEntity
8
engrave
6
ByLayer
62
7
370
-1
100
AcDbLine
10
62.115117
20
365.779289
11
61.294872
21
365.779289
0
SPLINE
5
332
100
AcDbEntity
8
engrave
6
ByLayer
62
7
370
-1
100
AcDbSpline
210
0
220
0
230
1
70
8
71
3
72
8
73
4
74
0
42
1e-07
43
1e-07
40
0
40
0
40
0
40
0
40
1
40
1
40
1
40
1
10
61.574501
20
365.642581
30
0
10
61.680138
20
365.642581
30
0
10
61.750978
20
365.574228
30
0
10
61.750978
20
365.481018
30
0
0
SPLINE
5
333
100
AcDbEntity
8
engrave
6
ByLayer
62
7
370
-1
100
AcDbSpline
210
0
220
0
230
1
70
8
71
3
72
8
73
4
74
0
42
1e-07
43
1e-07
40
0
40
0
40
0
40
0
40
1
40
1
40
1
40
1
10
61.750978
20
365.481018
30
0
10
61.750978
20
365.381594
30
0
10
61.680138
20
365.319454
30
0
10
61.574501
20
365.319454
30
0
0
SPLINE
5
334
100
AcDbEntity
8
engrave
6
ByLayer
62
7
370
-1
100
AcDbSpline
210
0
220
0
230
1
70
8
71
3
72
8
73
4
74
0
42
1e-07
43
1e-07
40
0
40
0
40
0
40
0
40
1
40
1
40
1
40
1
10
61.574501
20
365.319454
30
0
10
61.468863
20
365.319454
30
0
10
61.398024
20
365.381594
30
0
10
61.398024
20
365.481018
30
0
0
SPLINE
5
335
100
AcDbEntity
8
engrave
6
ByLayer
62
7
370
-1
100
AcDbSpline
210
0
220
0
230
1
70
8
71
3
72
8
73
4
74
0
42
1e-07
43
1e-07
40
0
40
0
40
0
40
0
40
1
40
1
40
1
40
1
10
61.398024
20
365.481018
30
0
10
61.398024
20
365.574228
30
0
10
61.468863
20
365.642581
30
0
10
61.574501
20
365.642581
30
0
0
LINE
5
336
100
AcDbEntity
8
engrave
6
ByLayer
62
7
370
-1
100
AcDbLine
10
61.85413
20
366.500984
11
61.294872
21
366.500984
0
LINE
5
337
100
AcDbEntity
8
engrave
6
ByLayer
62
7
370
-1
100
AcDbLine
10
61.294872
20
366.500984
11
61.282444
21
366.488556
0
LINE
5
338
100
AcDbEntity
8
engrave
6
ByLayer
62
7
370
-1
100
AcDbLine
10
61.282444
20
366.488556
11
61.282444
21
366.364277
0
LINE
5
339
100
AcDbEntity
8
engrave
6
ByLayer
62
7
370
-1
100
AcDbLine
10
61.282444
20
366.364277
11
61.294872
21
366.351849
0
LINE
5
33A
100
AcDbEntity
8
engrave
6
ByLayer
62
7
370
-1
100
AcDbLine
10
61.294872
20
366.351849
11
61.617999
21
366.351849
0
SPLINE
5
33B
100
AcDbEntity
8
engrave
6
ByLayer
62
7
370
-1
100
AcDbSpline
210
0
220
0
230
1
70
8
71
3
72
8
73
4
74
0
42
1e-07
43
1e-07
40
0
40
0
40
0
40
0
40
1
40
1
40
1
40
1
10
61.617999
20
366.351849
30
0
10
61.690081
20
366.349363
30
0
10
61.750978
20
366.29468
30
0
10
61.750978
20
366.215141
30
0
0
SPLINE
5
33C
100
AcDbEntity
8
engrave
6
ByLayer
62
7
370
-1
100
AcDbSpline
210
0
220
0
230
1
70
8
71
3
72
8
73
4
74
0
42
1e-07
43
1e-07
40
0
40
0
40
0
40
0
40
1
40
1
40
1
40
1
10
61.750978
20
366.215141
30
0
10
61.750978
20
366.128145
30
0
10
61.69878
20
366.090862
30
0
10
61.605571
20
366.090862
30
0
0
LINE
5
33D
100
AcDbEntity
8
engrave
6
ByLayer
62
7
370
-1
100
AcDbLine
10
61.605571
20
366.090862
11
61.294872
21
366.090862
0
LINE
5
33E
100
AcDbEntity
8
engrave
6
ByLayer
62
7
370
-1
100
AcDbLine
10
61.294872
20
366.090862
11
61.282444
21
366.078434
0
LINE
5
33F
100
AcDbEntity
8
engrave
6
ByLayer
62
7
370
-1
100
AcDbLine
10
61.282444
20
366.078434
11
61.282444
21
365.954154
0
LINE
5
340
100
AcDbEntity
8
engrave
6
ByLayer
62
7
370
-1
100
AcDbLine
10
61.282444
20
365.954154
11
61.294872
21
365.941726
0
LINE
5
341
100
AcDbEntity
8
engrave
6
ByLayer
62
7
370
-1
100
AcDbLine
10
61.294872
20
365.941726
11
61.630426
21
365.941726
0
SPLINE
5
342
100
AcDbEntity
8
engrave
6
ByLayer
62
7
370
-1
100
AcDbSpline
210
0
220
0
230
1
70
8
71
3
72
8
73
4
74
0
42
1e-07
43
1e-07
40
0
40
0
40
0
40
0
40
1
40
1
40
1
40
1
10
61.630426
20
365.941726
30
0
10
61.79199
20
365.941726
30
0
10
61.8852
20
366.028722
30
0
10
61.8852
20
366.177857
30
0
0
SPLINE
5
343
100
AcDbEntity
8
engrave
6
ByLayer
62
7
370
-1
100
AcDbSpline
210
0
220
0
230
1
70
8
71
3
72
8
73
4
74
0
42
1e-07
43
1e-07
40
0
40
0
40
0
40
0
40
1
40
1
40
1
40
1
10
61.8852
20
366.177857
30
0
10
61.8852
20
366.246211
30
0
10
61.85413
20
366.307108
30
0
10
61.816846
20
366.339421
30
0
0
LINE
5
344
100
AcDbEntity
8
engrave
6
ByLayer
62
7
370
-1
100
AcDbLine
10
61.816846
20
366.339421
11
61.810632
21
366.345635
0
LINE
5
345
100
AcDbEntity
8
engrave
6
ByLayer
62
7
370
-1
100
AcDbLine
10
61.810632
20
366.345635
11
61.816846
21
366.351849
0
LINE
5
346
100
AcDbEntity
8
engrave
6
ByLayer
62
7
370
-1
100
AcDbLine
10
61.816846
20
366.351849
11
61.85413
21
366.358063
0
LINE
5
347
100
AcDbEntity
8
engrave
6
ByLayer
62
7
370
-1
100
AcDbLine
10
61.85413
20
366.358063
11
61.866558
21
366.370491
0
LINE
5
348
100
AcDbEntity
8
engrave
6
ByLayer
62
7
370
-1
100
AcDbLine
10
61.866558
20
366.370491
11
61.866558
21
366.488556
0
LINE
5
349
100
AcDbEntity
8
engrave
6
ByLayer
62
7
370
-1
100
AcDbLine
10
61.866558
20
366.488556
11
61.85413
21
366.500984
0
LINE
5
34A
100
AcDbEntity
8
engrave
6
ByLayer
62
7
370
-1
100
AcDbLine
10
61.621727
20
367.215689
11
61.568287
21
367.228117
0
SPLINE
5
34B
100
AcDbEntity
8
engrave
6
ByLayer
62
7
370
-1
100
AcDbSpline
210
0
220
0
230
1
70
8
71
3
72
8
73
4
74
0
42
1e-07
43
1e-07
40
0
40
0
40
0
40
0
40
1
40
1
40
1
40
1
10
61.568287
20
367.228117
30
0
10
61.381868
20
367.234331
30
0
10
61.263802
20
367.100109
30
0
10
61.263802
20
366.93606
30
0
0
SPLINE
5
34C
100
AcDbEntity
8
engrave
6
ByLayer
62
7
370
-1
100
AcDbSpline
210
0
220
0
230
1
70
8
71
3
72
8
73
4
74
0
42
1e-07
43
1e-07
40
0
40
0
40
0
40
0
40
1
40
1
40
1
40
1
10
61.263802
20
366.93606
30
0
10
61.263802
20
366.759583
30
0
10
61.394296
20
366.631575
30
0
10
61.574501
20
366.631575
30
0
0
SPLINE
5
34D
100
AcDbEntity
8
engrave
6
ByLayer
62
7
370
-1
100
AcDbSpline
210
0
220
0
230
1
70
8
71
3
72
8
73
4
74
0
42
1e-07
43
1e-07
40
0
40
0
40
0
40
0
40
1
40
1
40
1
40
1
10
61.574501
20
366.631575
30
0
10
61.754706
20
366.631575
30
0
10
61.8852
20
366.755855
30
0
10
61.8852
20
366.942274
30
0
0
SPLINE
5
34E
100
AcDbEntity
8
engrave
6
ByLayer
62
7
370
-1
100
AcDbSpline
210
0
220
0
230
1
70
8
71
3
72
8
73
4
74
0
42
1e-07
43
1e-07
40
0
40
0
40
0
40
0
40
1
40
1
40
1
40
1
10
61.8852
20
366.942274
30
0
10
61.8852
20
367.066553
30
0
10
61.82306
20
367.149821
30
0
10
61.742278
20
367.203261
30
0
0
LINE
5
34F
100
AcDbEntity
8
engrave
6
ByLayer
62
7
370
-1
100
AcDbLine
10
61.742278
20
367.203261
11
61.72985
21
367.203261
0
LINE
5
350
100
AcDbEntity
8
engrave
6
ByLayer
62
7
370
-1
100
AcDbLine
10
61.72985
20
367.203261
11
61.66771
21
367.091409
0
LINE
5
351
100
AcDbEntity
8
engrave
6
ByLayer
62
7
370
-1
100
AcDbLine
10
61.66771
20
367.091409
11
61.66771
21
367.078981
0
SPLINE
5
352
100
AcDbEntity
8
engrave
6
ByLayer
62
7
370
-1
100
AcDbSpline
210
0
220
0
230
1
70
8
71
3
72
8
73
4
74
0
42
1e-07
43
1e-07
40
0
40
0
40
0
40
0
40
1
40
1
40
1
40
1
10
61.66771
20
367.078981
30
0
10
61.708723
20
367.060339
30
0
10
61.750978
20
367.015599
30
0
10
61.750978
20
366.941031
30
0
0
SPLINE
5
353
100
AcDbEntity
8
engrave
6
ByLayer
62
7
370
-1
100
AcDbSpline
210
0
220
0
230
1
70
8
71
3
72
8
73
4
74
0
42
1e-07
43
1e-07
40
0
40
0
40
0
40
0
40
1
40
1
40
1
40
1
10
61.750978
20
366.941031
30
0
10
61.750978
20
366.849064
30
0
10
61.692566
20
366.793138
30
0
10
61.621727
20
366.78071
30
0
0
LINE
5
354
100
AcDbEntity
8
engrave
6
ByLayer
62
7
370
-1
100
AcDbLine
10
61.621727
20
366.78071
11
61.621727
21
367.215689
0
SPLINE
5
355
100
AcDbEntity
8
engrave
6
ByLayer
62
7
370
-1
100
AcDbSpline
210
0
220
0
230
1
70
8
71
3
72
8
73
4
74
0
42
1e-07
43
1e-07
40
0
40
0
40
0
40
0
40
1
40
1
40
1
40
1
10
61.396781
20
366.931089
30
0
10
61.396781
20
367.006899
30
0
10
61.432822
20
367.060339
30
0
10
61.491233
20
367.07401
30
0
0
LINE
5
356
100
AcDbEntity
8
engrave
6
ByLayer
62
7
370
-1
100
AcDbLine
10
61.491233
20
367.07401
11
61.491233
21
366.790653
0
SPLINE
5
357
100
AcDbEntity
8
engrave
6
ByLayer
62
7
370
-1
100
AcDbSpline
210
0
220
0
230
1
70
8
71
3
72
8
73
4
74
0
42
1e-07
43
1e-07
40
0
40
0
40
0
40
0
40
1
40
1
40
1
40
1
10
61.491233
20
366.790653
30
0
10
61.432822
20
366.809295
30
0
10
61.396781
20
366.865221
30
0
10
61.396781
20
366.931089
30
0
0
LINE
5
358
100
AcDbEntity
8
engrave
6
ByLayer
62
7
370
-1
100
AcDbLine
10
61.294872
20
367.366864
11
61.85413
21
367.366864
0
LINE
5
359
100
AcDbEntity
8
engrave
6
ByLayer
62
7
370
-1
100
AcDbLine
10
61.85413
20
367.366864
11
61.866558
21
367.379291
0
LINE
5
35A
100
AcDbEntity
8
engrave
6
ByLayer
62
7
370
-1
100
AcDbLine
10
61.866558
20
367.379291
11
61.866558
21
367.503571
0
LINE
5
35B
100
AcDbEntity
8
engrave
6
ByLayer
62
7
370
-1
100
AcDbLine
10
61.866558
20
367.503571
11
61.85413
21
367.515999
0
LINE
5
35C
100
AcDbEntity
8
engrave
6
ByLayer
62
7
370
-1
100
AcDbLine
10
61.85413
20
367.515999
11
61.531003
21
367.515999
0
SPLINE
5
35D
100
AcDbEntity
8
engrave
6
ByLayer
62
7
370
-1
100
AcDbSpline
210
0
220
0
230
1
70
8
71
3
72
8
73
4
74
0
42
1e-07
43
1e-07
40
0
40
0
40
0
40
0
40
1
40
1
40
1
40
1
10
61.531003
20
367.515999
30
0
10
61.458921
20
367.518485
30
0
10
61.398024
20
367.573168
30
0
10
61.398024
20
367.652706
30
0
0
SPLINE
5
35E
100
AcDbEntity
8
engrave
6
ByLayer
62
7
370
-1
100
AcDbSpline
210
0
220
0
230
1
70
8
71
3
72
8
73
4
74
0
42
1e-07
43
1e-07
40
0
40
0
40
0
40
0
40
1
40
1
40
1
40
1
10
61.398024
20
367.652706
30
0
10
61.398024
20
367.739701
30
0
10
61.450221
20
367.776986
30
0
10
61.543431
20
367.776986
30
0
0
LINE
5
35F
100
AcDbEntity
8
engrave
6
ByLayer
62
7
370
-1
100
AcDbLine
10
61.543431
20
367.776986
11
61.85413
21
367.776986
0
LINE
5
360
100
AcDbEntity
8
engrave
6
ByLayer
62
7
370
-1
100
AcDbLine
10
61.85413
20
367.776986
11
61.866558
21
367.789414
0
LINE
5
361
100
AcDbEntity
8
engrave
6
ByLayer
62
7
370
-1
100
AcDbLine
10
61.866558
20
367.789414
11
61.866558
21
367.913694
0
LINE
5
362
100
AcDbEntity
8
engrave
6
ByLayer
62
7
370
-1
100
AcDbLine
10
61.866558
20
367.913694
11
61.85413
21
367.926121
0
LINE
5
363
100
AcDbEntity
8
engrave
6
ByLayer
62
7
370
-1
100
AcDbLine
10
61.85413
20
367.926121
11
61.518575
21
367.926121
0
SPLINE
5
364
100
AcDbEntity
8
engrave
6
ByLayer
62
7
370
-1
100
AcDbSpline
210
0
220
0
230
1
70
8
71
3
72
8
73
4
74
0
42
1e-07
43
1e-07
40
0
40
0
40
0
40
0
40
1
40
1
40
1
40
1
10
61.518575
20
367.926121
30
0
10
61.357011
20
367.926121
30
0
10
61.263802
20
367.839125
30
0
10
61.263802
20
367.68999
30
0
0
SPLINE
5
365
100
AcDbEntity
8
engrave
6
ByLayer
62
7
370
-1
100
AcDbSpline
210
0
220
0
230
1
70
8
71
3
72
8
73
4
74
0
42
1e-07
43
1e-07
40
0
40
0
40
0
40
0
40
1
40
1
40
1
40
1
10
61.263802
20
367.68999
30
0
10
61.263802
20
367.621637
30
0
10
61.294872
20
367.56074
30
0
10
61.332156
20
367.528427
30
0
0
LINE
5
366
100
AcDbEntity
8
engrave
6
ByLayer
62
7
370
-1
100
AcDbLine
10
61.332156
20
367.528427
11
61.33837
21
367.522213
0
LINE
5
367
100
AcDbEntity
8
engrave
6
ByLayer
62
7
370
-1
100
AcDbLine
10
61.33837
20
367.522213
11
61.332156
21
367.515999
0
LINE
5
368
100
AcDbEntity
8
engrave
6
ByLayer
62
7
370
-1
100
AcDbLine
10
61.332156
20
367.515999
11
61.294872
21
367.509785
0
LINE
5
369
100
AcDbEntity
8
engrave
6
ByLayer
62
7
370
-1
100
AcDbLine
10
61.294872
20
367.509785
11
61.282444
21
367.497357
0
LINE
5
36A
100
AcDbEntity
8
engrave
6
ByLayer
62
7
370
-1
100
AcDbLine
10
61.282444
20
367.497357
11
61.282444
21
367.379291
0
LINE
5
36B
100
AcDbEntity
8
engrave
6
ByLayer
62
7
370
-1
100
AcDbLine
10
61.282444
20
367.379291
11
61.294872
21
367.366864
0
SPLINE
5
36C
100
AcDbEntity
8
engrave
6
ByLayer
62
7
370
-1
100
AcDbSpline
210
0
220
0
230
1
70
8
71
3
72
8
73
4
74
0
42
1e-07
43
1e-07
40
0
40
0
40
0
40
0
40
1
40
1
40
1
40
1
10
61.574501
20
368.193419
30
0
10
61.475077
20
368.193419
30
0
10
61.396781
20
368.255559
30
0
10
61.396781
20
368.361196
30
0
0
SPLINE
5
36D
100
AcDbEntity
8
engrave
6
ByLayer
62
7
370
-1
100
AcDbSpline
210
0
220
0
230
1
70
8
71
3
72
8
73
4
74
0
42
1e-07
43
1e-07
40
0
40
0
40
0
40
0
40
1
40
1
40
1
40
1
10
61.396781
20
368.361196
30
0
10
61.396781
20
368.435764
30
0
10
61.444007
20
368.479262
30
0
10
61.493719
20
368.504118
30
0
0
LINE
5
36E
100
AcDbEntity
8
engrave
6
ByLayer
62
7
370
-1
100
AcDbLine
10
61.493719
20
368.504118
11
61.493719
21
368.516546
0
LINE
5
36F
100
AcDbEntity
8
engrave
6
ByLayer
62
7
370
-1
100
AcDbLine
10
61.493719
20
368.516546
11
61.431579
21
368.628397
0
LINE
5
370
100
AcDbEntity
8
engrave
6
ByLayer
62
7
370
-1
100
AcDbLine
10
61.431579
20
368.628397
11
61.419151
21
368.628397
0
SPLINE
5
371
100
AcDbEntity
8
engrave
6
ByLayer
62
7
370
-1
100
AcDbSpline
210
0
220
0
230
1
70
8
71
3
72
8
73
4
74
0
42
1e-07
43
1e-07
40
0
40
0
40
0
40
0
40
1
40
1
40
1
40
1
10
61.419151
20
368.628397
30
0
10
61.332156
20
368.579928
30
0
10
61.263802
20
368.485476
30
0
10
61.263802
20
368.354982
30
0
0
SPLINE
5
372
100
AcDbEntity
8
engrave
6
ByLayer
62
7
370
-1
100
AcDbSpline
210
0
220
0
230
1
70
8
71
3
72
8
73
4
74
0
42
1e-07
43
1e-07
40
0
40
0
40
0
40
0
40
1
40
1
40
1
40
1
10
61.263802
20
368.354982
30
0
10
61.263802
20
368.180991
30
0
10
61.388082
20
368.044283
30
0
10
61.574501
20
368.044283
30
0
0
SPLINE
5
373
100
AcDbEntity
8
engrave
6
ByLayer
62
7
370
-1
100
AcDbSpline
210
0
220
0
230
1
70
8
71
3
72
8
73
4
74
0
42
1e-07
43
1e-07
40
0
40
0
40
0
40
0
40
1
40
1
40
1
40
1
10
61.574501
20
368.044283
30
0
10
61.76092
20
368.044283
30
0
10
61.8852
20
368.180991
30
0
10
61.8852
20
368.354982
30
0
0
SPLINE
5
374
100
AcDbEntity
8
engrave
6
ByLayer
62
7
370
-1
100
AcDbSpline
210
0
220
0
230
1
70
8
71
3
72
8
73
4
74
0
42
1e-07
43
1e-07
40
0
40
0
40
0
40
0
40
1
40
1
40
1
40
1
10
61.8852
20
368.354982
30
0
10
61.8852
20
368.485476
30
0
10
61.816846
20
368.579928
30
0
10
61.72985
20
368.628397
30
0
0
LINE
5
375
100
AcDbEntity
8
engrave
6
ByLayer
62
7
370
-1
100
AcDbLine
10
61.72985
20
368.628397
11
61.717422
21
368.628397
0
LINE
5
376
100
AcDbEntity
8
engrave
6
ByLayer
62
7
370
-1
100
AcDbLine
10
61.717422
20
368.628397
11
61.655282
21
368.516546
0
LINE
5
377
100
AcDbEntity
8
engrave
6
ByLayer
62
7
370
-1
100
AcDbLine
10
61.655282
20
368.516546
11
61.655282
21
368.504118
0
SPLINE
5
378
100
AcDbEntity
8
engrave
6
ByLayer
62
7
370
-1
100
AcDbSpline
210
0
220
0
230
1
70
8
71
3
72
8
73
4
74
0
42
1e-07
43
1e-07
40
0
40
0
40
0
40
0
40
1
40
1
40
1
40
1
10
61.655282
20
368.504118
30
0
10
61.704994
20
368.479262
30
0
10
61.749735
20
368.433278
30
0
10
61.749735
20
368.361196
30
0
0
SPLINE
5
379
100
AcDbEntity
8
engrave
6
ByLayer
62
7
370
-1
100
AcDbSpline
210
0
220
0
230
1
70
8
71
3
72
8
73
4
74
0
42
1e-07
43
1e-07
40
0
40
0
40
0
40
0
40
1
40
1
40
1
40
1
10
61.749735
20
368.361196
30
0
10
61.749735
20
368.255559
30
0
10
61.673924
20
368.193419
30
0
10
61.574501
20
368.193419
30
0
0
LINE
5
37A
100
AcDbEntity
8
engrave
6
ByLayer
62
7
370
-1
100
AcDbLine
10
61.621727
20
369.298342
11
61.568287
21
369.31077
0
SPLINE
5
37B
100
AcDbEntity
8
engrave
6
ByLayer
62
7
370
-1
100
AcDbSpline
210
0
220
0
230
1
70
8
71
3
72
8
73
4
74
0
42
1e-07
43
1e-07
40
0
40
0
40
0
40
0
40
1
40
1
40
1
40
1
10
61.568287
20
369.31077
30
0
10
61.381868
20
369.316984
30
0
10
61.263802
20
369.182762
30
0
10
61.263802
20
369.018713
30
0
0
SPLINE
5
37C
100
AcDbEntity
8
engrave
6
ByLayer
62
7
370
-1
100
AcDbSpline
210
0
220
0
230
1
70
8
71
3
72
8
73
4
74
0
42
1e-07
43
1e-07
40
0
40
0
40
0
40
0
40
1
40
1
40
1
40
1
10
61.263802
20
369.018713
30
0
10
61.263802
20
368.842237
30
0
10
61.394296
20
368.714228
30
0
10
61.574501
20
368.714228
30
0
0
SPLINE
5
37D
100
AcDbEntity
8
engrave
6
ByLayer
62
7
370
-1
100
AcDbSpline
210
0
220
0
230
1
70
8
71
3
72
8
73
4
74
0
42
1e-07
43
1e-07
40
0
40
0
40
0
40
0
40
1
40
1
40
1
40
1
10
61.574501
20
368.714228
30
0
10
61.754706
20
368.714228
30
0
10
61.8852
20
368.838508
30
0
10
61.8852
20
369.024927
30
0
0
SPLINE
5
37E
100
AcDbEntity
8
engrave
6
ByLayer
62
7
370
-1
100
AcDbSpline
210
0
220
0
230
1
70
8
71
3
72
8
73
4
74
0
42
1e-07
43
1e-07
40
0
40
0
40
0
40
0
40
1
40
1
40
1
40
1
10
61.8852
20
369.024927
30
0
10
61.8852
20
369.149206
30
0
10
61.82306
20
369.232473
30
0
10
61.742278
20
369.285914
30
0
0
LINE
5
37F
100
AcDbEntity
8
engrave
6
ByLayer
62
7
370
-1
100
AcDbLine
10
61.742278
20
369.285914
11
61.72985
21
369.285914
0
LINE
5
380
100
AcDbEntity
8
engrave
6
ByLayer
62
7
370
-1
100
AcDbLine
10
61.72985
20
369.285914
11
61.66771
21
369.174062
0
LINE
5
381
100
AcDbEntity
8
engrave
6
ByLayer
62
7
370
-1
100
AcDbLine
10
61.66771
20
369.174062
11
61.66771
21
369.161634
0
SPLINE
5
382
100
AcDbEntity
8
engrave
6
ByLayer
62
7
370
-1
100
AcDbSpline
210
0
220
0
230
1
70
8
71
3
72
8
73
4
74
0
42
1e-07
43
1e-07
40
0
40
0
40
0
40
0
40
1
40
1
40
1
40
1
10
61.66771
20
369.161634
30
0
10
61.708723
20
369.142992
30
0
10
61.750978
20
369.098252
30
0
10
61.750978
20
369.023684
30
0
0
SPLINE
5
383
100
AcDbEntity
8
engrave
6
ByLayer
62
7
370
-1
100
AcDbSpline
210
0
220
0
230
1
70
8
71
3
72
8
73
4
74
0
42
1e-07
43
1e-07
40
0
40
0
40
0
40
0
40
1
40
1
40
1
40
1
10
61.750978
20
369.023684
30
0
10
61.750978
20
368.931717
30
0
10
61.692566
20
368.875791
30
0
10
61.621727
20
368.863363
30
0
0
LINE
5
384
100
AcDbEntity
8
engrave
6
ByLayer
62
7
370
-1
100
AcDbLine
10
61.621727
20
368.863363
11
61.621727
21
369.298342
0
SPLINE
5
385
100
AcDbEntity
8
engrave
6
ByLayer
62
7
370
-1
100
AcDbSpline
210
0
220
0
230
1
70
8
71
3
72
8
73
4
74
0
42
1e-07
43
1e-07
40
0
40
0
40
0
40
0
40
1
40
1
40
1
40
1
10
61.396781
20
369.013741
30
0
10
61.396781
20
369.089552
30
0
10
61.432822
20
369.142992
30
0
10
61.491233
20
369.156663
30
0
0
LINE
5
386
100
AcDbEntity
8
engrave
6
ByLayer
62
7
370
-1
100
AcDbLine
10
61.491233
20
369.156663
11
61.491233
21
368.873306
0
SPLINE
5
387
100
AcDbEntity
8
engrave
6
ByLayer
62
7
370
-1
100
AcDbSpline
210
0
220
0
230
1
70
8
71
3
72
8
73
4
74
0
42
1e-07
43
1e-07
40
0
40
0
40
0
40
0
40
1
40
1
40
1
40
1
10
61.491233
20
368.873306
30
0
10
61.432822
20
368.891948
30
0
10
61.396781
20
368.947873
30
0
10
61.396781
20
369.013741
30
0
0
LINE
5
388
100
AcDbEntity
8
engrave
6
ByLayer
62
7
370
-1
100
AcDbLine
10
61.85413
20
369.449516
11
61.866558
21
369.461944
0
LINE
5
389
100
AcDbEntity
8
engrave
6
ByLayer
62
7
370
-1
100
AcDbLine
10
61.866558
20
369.461944
11
61.866558
21
369.586224
0
LINE
5
38A
100
AcDbEntity
8
engrave
6
ByLayer
62
7
370
-1
100
AcDbLine
10
61.866558
20
369.586224
11
61.85413
21
369.598652
0
LINE
5
38B
100
AcDbEntity
8
engrave
6
ByLayer
62
7
370
-1
100
AcDbLine
10
61.85413
20
369.598652
11
61.537217
21
369.598652
0
SPLINE
5
38C
100
AcDbEntity
8
engrave
6
ByLayer
62
7
370
-1
100
AcDbSpline
210
0
220
0
230
1
70
8
71
3
72
8
73
4
74
0
42
1e-07
43
1e-07
40
0
40
0
40
0
40
0
40
1
40
1
40
1
40
1
10
61.537217
20
369.598652
30
0
10
61.465135
20
369.601137
30
0
10
61.400509
20
369.662034
30
0
10
61.400509
20
369.729145
30
0
0
SPLINE
5
38D
100
AcDbEntity
8
engrave
6
ByLayer
62
7
370
-1
100
AcDbSpline
210
0
220
0
230
1
70
8
71
3
72
8
73
4
74
0
42
1e-07
43
1e-07
40
0
40
0
40
0
40
0
40
1
40
1
40
1
40
1
10
61.400509
20
369.729145
30
0
10
61.400509
20
369.791285
30
0
10
61.444007
20
369.834783
30
0
10
61.518575
20
369.834783
30
0
0
LINE
5
38E
100
AcDbEntity
8
engrave
6
ByLayer
62
7
370
-1
100
AcDbLine
10
61.518575
20
369.834783
11
61.531003
21
369.847211
0
LINE
5
38F
100
AcDbEntity
8
engrave
6
ByLayer
62
7
370
-1
100
AcDbLine
10
61.531003
20
369.847211
11
61.506147
21
369.97149
0
LINE
5
390
100
AcDbEntity
8
engrave
6
ByLayer
62
7
370
-1
100
AcDbLine
10
61.506147
20
369.97149
11
61.493719
21
369.983918
0
SPLINE
5
391
100
AcDbEntity
8
engrave
6
ByLayer
62
7
370
-1
100
AcDbSpline
210
0
220
0
230
1
70
8
71
3
72
8
73
4
74
0
42
1e-07
43
1e-07
40
0
40
0
40
0
40
0
40
1
40
1
40
1
40
1
10
61.493719
20
369.983918
30
0
10
61.357011
20
369.983918
30
0
10
61.263802
20
369.896923
30
0
10
61.263802
20
369.772643
30
0
0
SPLINE
5
392
100
AcDbEntity
8
engrave
6
ByLayer
62
7
370
-1
100
AcDbSpline
210
0
220
0
230
1
70
8
71
3
72
8
73
4
74
0
42
1e-07
43
1e-07
40
0
40
0
40
0
40
0
40
1
40
1
40
1
40
1
10
61.263802
20
369.772643
30
0
10
61.263802
20
369.710503
30
0
10
61.301086
20
369.643392
30
0
10
61.33837
20
369.61108
30
0
0
LINE
5
393
100
AcDbEntity
8
engrave
6
ByLayer
62
7
370
-1
100
AcDbLine
10
61.33837
20
369.61108
11
61.344584
21
369.604866
0
LINE
5
394
100
AcDbEntity
8
engrave
6
ByLayer
62
7
370
-1
100
AcDbLine
10
61.344584
20
369.604866
11
61.33837
21
369.598652
0
LINE
5
395
100
AcDbEntity
8
engrave
6
ByLayer
62
7
370
-1
100
AcDbLine
10
61.33837
20
369.598652
11
61.294872
21
369.586224
0
LINE
5
396
100
AcDbEntity
8
engrave
6
ByLayer
62
7
370
-1
100
AcDbLine
10
61.294872
20
369.586224
11
61.282444
21
369.573796
0
LINE
5
397
100
AcDbEntity
8
engrave
6
ByLayer
62
7
370
-1
100
AcDbLine
10
61.282444
20
369.573796
11
61.282444
21
369.461944
0
LINE
5
398
100
AcDbEntity
8
engrave
6
ByLayer
62
7
370
-1
100
AcDbLine
10
61.282444
20
369.461944
11
61.294872
21
369.449516
0
LINE
5
399
100
AcDbEntity
8
engrave
6
ByLayer
62
7
370
-1
100
AcDbLine
10
61.294872
20
369.449516
11
61.85413
21
369.449516
0
ENDSEC
0
SECTION
2
OBJECTS
0
DICTIONARY
5
C
330
0
100
AcDbDictionary
281
1
3
ACAD_GROUP
350
D
0
DICTIONARY
5
D
330
C
100
AcDbDictionary
281
1
0
ENDSEC
0
EOF
